SplineFontDB: 3.0
FontName: ArchivoNarrowDevanagari-Bold
FullName: Archivo Narrow Devanagari Bold
FamilyName: Archivo Narrow Devanagari
Weight: Bold
Copyright: Copyright (c) 2012-2014, Omnibus-Type (www.omnibus-type.com omnibus.type@gmail.com) with Reserved Font Name 'Archivo'
Version: 001.004
ItalicAngle: 0
UnderlinePosition: -50
UnderlineWidth: 50
Ascent: 800
Descent: 200
InvalidEm: 0
sfntRevision: 0x00010106
LayerCount: 2
Layer: 0 0 "Back" 1
Layer: 1 0 "Fore" 0
XUID: [1021 191 1600663927 5661908]
FSType: 8
OS2Version: 3
OS2_WeightWidthSlopeOnly: 0
OS2_UseTypoMetrics: 1
CreationTime: 1412650100
ModificationTime: 1412676774
PfmFamily: 17
TTFWeight: 700
TTFWidth: 5
LineGap: 0
VLineGap: 0
Panose: 2 11 8 6 2 2 2 2 11 4
OS2TypoAscent: 890
OS2TypoAOffset: 0
OS2TypoDescent: -404
OS2TypoDOffset: 0
OS2TypoLinegap: 0
OS2WinAscent: 890
OS2WinAOffset: 0
OS2WinDescent: 404
OS2WinDOffset: 0
HheadAscent: 890
HheadAOffset: 0
HheadDescent: -404
HheadDOffset: 0
OS2SubXSize: 650
OS2SubYSize: 600
OS2SubXOff: 0
OS2SubYOff: 75
OS2SupXSize: 650
OS2SupYSize: 600
OS2SupXOff: 0
OS2SupYOff: 350
OS2StrikeYSize: 50
OS2StrikeYPos: 279
OS2CapHeight: 0
OS2XHeight: 0
OS2Vendor: 'OMNI'
OS2CodePages: 20000093.00000000
OS2UnicodeRanges: 00008007.00000000.00000000.00000000
Lookup: 1 0 0 "'aalt' Access All Alternates lookup 0" { "'aalt' Access All Alternates lookup 0 subtable"  } ['aalt' ('DFLT' <'dflt' > 'dev2' <'HIN ' 'MAR ' 'NEP ' 'dflt' > 'deva' <'HIN ' 'MAR ' 'NEP ' 'dflt' > 'grek' <'dflt' > 'latn' <'CAT ' 'MOL ' 'ROM ' 'dflt' > ) ]
Lookup: 3 0 0 "'aalt' Access All Alternates lookup 1" { "'aalt' Access All Alternates lookup 1 subtable"  } ['aalt' ('DFLT' <'dflt' > 'dev2' <'HIN ' 'MAR ' 'NEP ' 'dflt' > 'deva' <'HIN ' 'MAR ' 'NEP ' 'dflt' > 'grek' <'dflt' > 'latn' <'CAT ' 'MOL ' 'ROM ' 'dflt' > ) ]
Lookup: 4 0 0 "Ligature Substitution lookup 2" { "Ligature Substitution lookup 2 subtable"  } []

StartChar: .notdef
Encoding: 65536 -1 0
Width: 442
Flags: MW
HStem: 0 44<71 371 71 442> 575 44<71 371 71 71>
VStem: 0 44<84 535 84 619> 398 44<84 535 535 535>
LayerCount: 2
Back
Fore
SplineSet
0 619 m 1
 0 619 442 619 442 619 c 1
 442 619 442 0 442 0 c 1
 442 0 0 0 0 0 c 1
 0 0 0 619 0 619 c 1
371 575 m 1
 371 575 71 575 71 575 c 1
 71 575 221 349 221 349 c 1
 221 349 371 575 371 575 c 1
44 535 m 1
 44 535 44 84 44 84 c 1
 44 84 194 309 194 309 c 1
 194 309 44 535 44 535 c 1
398 535 m 1
 398 535 248 309 248 309 c 1
 248 309 398 84 398 84 c 1
 398 84 398 535 398 535 c 1
221 270 m 1
 221 270 71 44 71 44 c 1
 71 44 371 44 371 44 c 1
 371 44 221 270 221 270 c 1
EndSplineSet
EndChar

StartChar: A
Encoding: 65 65 2
Width: 523
GlyphClass: 2
Flags: MW
HStem: 0 21G<0 110 0 0 407 522 407 407> 119 101<177 339 177 370 146 339> 505 101<256 256 256 260>
VStem: 0 522<0 0>
AnchorPoint: "Anchor-1" 0 0 basechar 0
AnchorPoint: "Anchor-0" 262 606 basechar 0
LayerCount: 2
Back
Fore
SplineSet
407 0 m 1
 407 0 370 119 370 119 c 1
 370 119 146 119 146 119 c 1
 146 119 110 0 110 0 c 1
 110 0 0 0 0 0 c 1
 0 0 195 606 195 606 c 1
 195 606 327 606 327 606 c 1
 327 606 522 0 522 0 c 1
 522 0 407 0 407 0 c 1
256 505 m 1
 256 505 248 451 239 423 c 2
 239 423 177 220 177 220 c 1
 177 220 339 220 339 220 c 1
 339 220 278 423 278 423 c 2
 268 454 260 505 260 505 c 1
 260 505 256 505 256 505 c 1
EndSplineSet
Substitution2: "Single Substitution lookup 33 subtable" ordfeminine
Substitution2: "'aalt' Access All Alternates lookup 0 subtable" ordfeminine
Position2: "'cpsp' Capital Spacing lookup 0 subtable" dx=5 dy=0 dh=10 dv=0
EndChar

StartChar: Aacute
Encoding: 193 193 3
Width: 523
GlyphClass: 2
Flags: MW
HStem: 0 21G<0 110 0 0 407 522 407 407> 119 101<177 339 177 370 146 339> 505 101<256 256 256 260> 664 117<277 288 201 383>
VStem: 0 522<0 0>
LayerCount: 2
Back
Fore
SplineSet
288 664 m 1
 288 664 201 664 201 664 c 1
 201 664 277 781 277 781 c 1
 277 781 383 781 383 781 c 1
 383 781 384 778 384 778 c 1
 384 778 288 664 288 664 c 1
407 0 m 1
 407 0 370 119 370 119 c 1
 370 119 146 119 146 119 c 1
 146 119 110 0 110 0 c 1
 110 0 0 0 0 0 c 1
 0 0 195 606 195 606 c 1
 195 606 327 606 327 606 c 1
 327 606 522 0 522 0 c 1
 522 0 407 0 407 0 c 1
256 505 m 1
 256 505 248 451 239 423 c 2
 239 423 177 220 177 220 c 1
 177 220 339 220 339 220 c 1
 339 220 278 423 278 423 c 2
 268 454 260 505 260 505 c 1
 260 505 256 505 256 505 c 1
EndSplineSet
Position2: "'cpsp' Capital Spacing lookup 0 subtable" dx=5 dy=0 dh=10 dv=0
EndChar

StartChar: Abreve
Encoding: 258 258 4
Width: 523
GlyphClass: 2
Flags: MW
HStem: 0 21G<0 110 0 0 407 522 407 407> 119 101<177 339 177 370 146 339> 505 101<256 256 256 260> 686 95<144 297.5>
VStem: 0 522<0 0>
LayerCount: 2
Back
Fore
SplineSet
380 781 m 1
 380 736 334 686 261 686 c 0
 188 686 144 736 144 781 c 1
 144 781 210 781 210 781 c 1
 212 768 232 751 261 751 c 0
 292 751 313 768 314 781 c 1
 314 781 380 781 380 781 c 1
407 0 m 1
 407 0 370 119 370 119 c 1
 370 119 146 119 146 119 c 1
 146 119 110 0 110 0 c 1
 110 0 0 0 0 0 c 1
 0 0 195 606 195 606 c 1
 195 606 327 606 327 606 c 1
 327 606 522 0 522 0 c 1
 522 0 407 0 407 0 c 1
256 505 m 1
 256 505 248 451 239 423 c 2
 239 423 177 220 177 220 c 1
 177 220 339 220 339 220 c 1
 339 220 278 423 278 423 c 2
 268 454 260 505 260 505 c 1
 260 505 256 505 256 505 c 1
EndSplineSet
Position2: "'cpsp' Capital Spacing lookup 0 subtable" dx=5 dy=0 dh=10 dv=0
EndChar

StartChar: Acircumflex
Encoding: 194 194 5
Width: 523
GlyphClass: 2
Flags: MW
HStem: 0 21G<0 110 0 0 407 522 407 407> 119 101<177 339 177 370 146 339> 505 101<256 256 256 260> 661 120<219 222 143 306 301 306 219 381 301 301>
VStem: 0 522<0 0>
LayerCount: 2
Back
Fore
SplineSet
301 661 m 1
 301 661 262 722 262 722 c 1
 262 722 222 661 222 661 c 1
 222 661 143 661 143 661 c 1
 143 661 219 781 219 781 c 1
 219 781 306 781 306 781 c 1
 306 781 381 661 381 661 c 1
 381 661 301 661 301 661 c 1
407 0 m 1
 407 0 370 119 370 119 c 1
 370 119 146 119 146 119 c 1
 146 119 110 0 110 0 c 1
 110 0 0 0 0 0 c 1
 0 0 195 606 195 606 c 1
 195 606 327 606 327 606 c 1
 327 606 522 0 522 0 c 1
 522 0 407 0 407 0 c 1
256 505 m 1
 256 505 248 451 239 423 c 2
 239 423 177 220 177 220 c 1
 177 220 339 220 339 220 c 1
 339 220 278 423 278 423 c 2
 268 454 260 505 260 505 c 1
 260 505 256 505 256 505 c 1
EndSplineSet
Position2: "'cpsp' Capital Spacing lookup 0 subtable" dx=5 dy=0 dh=10 dv=0
EndChar

StartChar: Adieresis
Encoding: 196 196 6
Width: 523
GlyphClass: 2
Flags: MW
HStem: 0 21G<0 110 0 0 407 522 407 407> 119 101<177 339 177 370 146 339> 505 101<256 256 256 260> 684 97<141 229 141 229 294 384 141 294>
VStem: 141 88<684 781 684 781> 294 90<684 781 684 781>
LayerCount: 2
Back
Fore
SplineSet
141 684 m 1
 141 684 141 781 141 781 c 1
 141 781 229 781 229 781 c 1
 229 781 229 684 229 684 c 1
 229 684 141 684 141 684 c 1
294 684 m 1
 294 684 294 781 294 781 c 1
 294 781 384 781 384 781 c 1
 384 781 384 684 384 684 c 1
 384 684 294 684 294 684 c 1
407 0 m 1
 407 0 370 119 370 119 c 1
 370 119 146 119 146 119 c 1
 146 119 110 0 110 0 c 1
 110 0 0 0 0 0 c 1
 0 0 195 606 195 606 c 1
 195 606 327 606 327 606 c 1
 327 606 522 0 522 0 c 1
 522 0 407 0 407 0 c 1
256 505 m 1
 256 505 248 451 239 423 c 2
 239 423 177 220 177 220 c 1
 177 220 339 220 339 220 c 1
 339 220 278 423 278 423 c 2
 268 454 260 505 260 505 c 1
 260 505 256 505 256 505 c 1
EndSplineSet
Position2: "'cpsp' Capital Spacing lookup 0 subtable" dx=5 dy=0 dh=10 dv=0
EndChar

StartChar: Agrave
Encoding: 192 192 7
Width: 523
GlyphClass: 2
Flags: MW
HStem: 0 21G<0 110 0 0 407 522 407 407> 119 101<177 339 177 370 146 339> 505 101<256 256 256 260> 664 117<235 235 235 247 141 323>
VStem: 0 522<0 0>
LayerCount: 2
Back
Fore
SplineSet
235 664 m 1
 235 664 140 778 140 778 c 1
 140 778 141 781 141 781 c 1
 141 781 247 781 247 781 c 1
 247 781 323 664 323 664 c 1
 323 664 235 664 235 664 c 1
407 0 m 1
 407 0 370 119 370 119 c 1
 370 119 146 119 146 119 c 1
 146 119 110 0 110 0 c 1
 110 0 0 0 0 0 c 1
 0 0 195 606 195 606 c 1
 195 606 327 606 327 606 c 1
 327 606 522 0 522 0 c 1
 522 0 407 0 407 0 c 1
256 505 m 1
 256 505 248 451 239 423 c 2
 239 423 177 220 177 220 c 1
 177 220 339 220 339 220 c 1
 339 220 278 423 278 423 c 2
 268 454 260 505 260 505 c 1
 260 505 256 505 256 505 c 1
EndSplineSet
Position2: "'cpsp' Capital Spacing lookup 0 subtable" dx=5 dy=0 dh=10 dv=0
EndChar

StartChar: Amacron
Encoding: 256 256 8
Width: 523
GlyphClass: 2
Flags: MW
HStem: 0 21G<0 110 0 0 407 522 407 407> 119 101<177 339 177 370 146 339> 505 101<256 256 256 260> 671 77<149 375 149 375>
VStem: 149 226<671 748 671 748>
LayerCount: 2
Back
Fore
SplineSet
149 671 m 1
 149 671 149 748 149 748 c 1
 149 748 375 748 375 748 c 1
 375 748 375 671 375 671 c 1
 375 671 149 671 149 671 c 1
407 0 m 1
 407 0 370 119 370 119 c 1
 370 119 146 119 146 119 c 1
 146 119 110 0 110 0 c 1
 110 0 0 0 0 0 c 1
 0 0 195 606 195 606 c 1
 195 606 327 606 327 606 c 1
 327 606 522 0 522 0 c 1
 522 0 407 0 407 0 c 1
256 505 m 1
 256 505 248 451 239 423 c 2
 239 423 177 220 177 220 c 1
 177 220 339 220 339 220 c 1
 339 220 278 423 278 423 c 2
 268 454 260 505 260 505 c 1
 260 505 256 505 256 505 c 1
EndSplineSet
Position2: "'cpsp' Capital Spacing lookup 0 subtable" dx=5 dy=0 dh=10 dv=0
EndChar

StartChar: Aogonek
Encoding: 260 260 9
Width: 523
GlyphClass: 2
Flags: MW
HStem: -168 61<476.5 555> -156 21G<555 555> -156 49<536 555> 0 21G<0 110 0 0 407 449 407 407 522 522> 119 101<177 339 177 370 146 339> 505 101<256 260 256 256>
VStem: 409 87<-73.5 -68.5>
LayerCount: 2
Back
Fore
SplineSet
555 -107 m 1x3e
 555 -107 555 -156 555 -156 c 1x5e
 535 -164 516 -168 497 -168 c 0
 456 -168 409 -149 409 -88 c 0x9e
 409 -49 425 -29 442 -8 c 0
 445 -5 447 -3 449 0 c 2
 449 0 407 0 407 0 c 1
 407 0 370 119 370 119 c 1
 370 119 146 119 146 119 c 1
 146 119 110 0 110 0 c 1
 110 0 0 0 0 0 c 1
 0 0 195 606 195 606 c 1
 195 606 327 606 327 606 c 1
 327 606 522 0 522 0 c 1
 512 -10 496 -34 496 -62 c 0
 496 -85 507 -107 536 -107 c 2
 536 -107 555 -107 555 -107 c 1x3e
339 220 m 1
 339 220 278 423 278 423 c 2
 268 454 260 505 260 505 c 1
 260 505 256 505 256 505 c 1
 256 505 248 451 239 423 c 2
 239 423 177 220 177 220 c 1
 177 220 339 220 339 220 c 1
EndSplineSet
Position2: "'cpsp' Capital Spacing lookup 0 subtable" dx=5 dy=0 dh=10 dv=0
EndChar

StartChar: Aring
Encoding: 197 197 10
Width: 523
GlyphClass: 2
Flags: MW
HStem: 0 21G<0 110 0 0 407 522 407 407> 119 101<177 339 177 370 146 339> 505 101<256 256 256 260> 637 45<250.5 273 250.5 285.5> 763 44<250.5 273>
VStem: 177 44<710.5 733.5 710.5 745.5> 302 45<710.5 733.5>
LayerCount: 2
Back
Fore
SplineSet
262 807 m 0
 309 807 347 768 347 722 c 0
 347 675 309 637 262 637 c 0
 216 637 177 674 177 722 c 0
 177 769 215 807 262 807 c 0
262 763 m 0
 239 763 221 745 221 722 c 0
 221 699 239 682 262 682 c 0
 284 682 302 699 302 722 c 0
 302 745 284 763 262 763 c 0
407 0 m 1
 407 0 370 119 370 119 c 1
 370 119 146 119 146 119 c 1
 146 119 110 0 110 0 c 1
 110 0 0 0 0 0 c 1
 0 0 195 606 195 606 c 1
 195 606 327 606 327 606 c 1
 327 606 522 0 522 0 c 1
 522 0 407 0 407 0 c 1
256 505 m 1
 256 505 248 451 239 423 c 2
 239 423 177 220 177 220 c 1
 177 220 339 220 339 220 c 1
 339 220 278 423 278 423 c 2
 268 454 260 505 260 505 c 1
 260 505 256 505 256 505 c 1
EndSplineSet
Position2: "'cpsp' Capital Spacing lookup 0 subtable" dx=5 dy=0 dh=10 dv=0
EndChar

StartChar: Aringacute
Encoding: 506 506 11
Width: 523
GlyphClass: 2
Flags: MW
HStem: 0 21G<0 110 0 0 407 522 407 407> 119 101<177 339 177 370 146 339> 682 44<250.5 273> 750 96<224 392 286 311>
VStem: 177 44<635 655 632.5 666.5> 302 45<635 655>
LayerCount: 2
Back
Fore
SplineSet
224 750 m 1
 224 750 286 846 286 846 c 1
 286 846 392 846 392 846 c 1
 392 846 392 843 392 843 c 1
 392 843 311 750 311 750 c 1
 311 750 224 750 224 750 c 1
262 726 m 0xfc
 309 726 347 688 347 644 c 0
 347 626 340 609 331 595 c 1
 331 595 522 0 522 0 c 1
 522 0 407 0 407 0 c 1
 407 0 370 119 370 119 c 1
 370 119 146 119 146 119 c 1
 146 119 110 0 110 0 c 1
 110 0 0 0 0 0 c 1
 0 0 192 596 192 596 c 1
 182 609 177 626 177 644 c 0
 177 689 215 726 262 726 c 0xfc
262 682 m 0
 239 682 221 666 221 644 c 0
 221 621 239 604 262 604 c 0
 284 604 302 621 302 644 c 0
 302 666 284 682 262 682 c 0
256 505 m 1
 256 505 248 451 239 423 c 2
 239 423 177 220 177 220 c 1
 177 220 339 220 339 220 c 1
 339 220 278 423 278 423 c 2
 268 454 260 505 260 505 c 1
 260 505 256 505 256 505 c 1
EndSplineSet
Position2: "'cpsp' Capital Spacing lookup 0 subtable" dx=5 dy=0 dh=10 dv=0
EndChar

StartChar: Atilde
Encoding: 195 195 12
Width: 523
GlyphClass: 2
Flags: MW
HStem: 0 21G<0 110 0 0 407 522 407 407> 119 101<177 339 177 370 146 339> 505 101<256 256 256 260> 673 108<169 171 113 211 352 354>
VStem: 0 522<0 0>
LayerCount: 2
Back
Fore
SplineSet
410 781 m 1
 410 732 385 673 323 673 c 0
 301 673 282 681 262 689 c 0
 244 697 226 705 206 705 c 0
 187 705 175 697 171 673 c 1
 171 673 113 673 113 673 c 1
 113 721 138 781 200 781 c 0
 222 781 242 772 261 764 c 0
 280 756 298 748 317 748 c 0
 336 748 348 756 352 781 c 1
 352 781 410 781 410 781 c 1
407 0 m 1
 407 0 370 119 370 119 c 1
 370 119 146 119 146 119 c 1
 146 119 110 0 110 0 c 1
 110 0 0 0 0 0 c 1
 0 0 195 606 195 606 c 1
 195 606 327 606 327 606 c 1
 327 606 522 0 522 0 c 1
 522 0 407 0 407 0 c 1
256 505 m 1
 256 505 248 451 239 423 c 2
 239 423 177 220 177 220 c 1
 177 220 339 220 339 220 c 1
 339 220 278 423 278 423 c 2
 268 454 260 505 260 505 c 1
 260 505 256 505 256 505 c 1
EndSplineSet
Position2: "'cpsp' Capital Spacing lookup 0 subtable" dx=5 dy=0 dh=10 dv=0
EndChar

StartChar: AE
Encoding: 198 198 13
Width: 725
GlyphClass: 2
Flags: MW
HStem: 0 101<486 687 486 687 395 687> 119 101<179 342 179 366 142 342> 260 101<447 643 447 447> 506 100<387 387 387 682>
VStem: -7 694<0 101>
AnchorPoint: "Anchor-1" 0 0 basechar 0
AnchorPoint: "Anchor-0" 362 606 basechar 0
LayerCount: 2
Back
Fore
SplineSet
387 506 m 1
 387 506 423 361 423 361 c 1
 423 361 643 361 643 361 c 1
 643 361 643 260 643 260 c 1
 643 260 447 260 447 260 c 1
 447 260 486 101 486 101 c 1
 486 101 687 101 687 101 c 1
 687 101 687 0 687 0 c 1
 687 0 395 0 395 0 c 1xb8
 395 0 366 119 366 119 c 1
 366 119 142 119 142 119 c 1xf8
 142 119 98 0 98 0 c 1
 98 0 -7 0 -7 0 c 1
 -7 0 225 606 225 606 c 1
 225 606 682 606 682 606 c 1
 682 606 682 506 682 506 c 1
 682 506 387 506 387 506 c 1
277 483 m 1
 275 478 273 472 271 467 c 0
 269 461 267 456 264 450 c 2
 264 450 179 220 179 220 c 1
 179 220 342 220 342 220 c 1xf8
 342 220 288 450 288 450 c 2
 286 461 283 472 280 483 c 1
 280 483 277 483 277 483 c 1
EndSplineSet
Position2: "'cpsp' Capital Spacing lookup 0 subtable" dx=5 dy=0 dh=10 dv=0
EndChar

StartChar: AEacute
Encoding: 508 508 14
Width: 725
GlyphClass: 2
Flags: MW
HStem: 0 101<486 687 486 687 395 687> 119 101<179 342 179 366 142 342> 260 101<447 643 447 447> 506 100<387 387 387 682> 664 117<377 389 301 484>
VStem: -7 694<0 101>
LayerCount: 2
Back
Fore
SplineSet
389 664 m 1
 389 664 301 664 301 664 c 1
 301 664 377 781 377 781 c 1
 377 781 484 781 484 781 c 1
 484 781 484 778 484 778 c 1
 484 778 389 664 389 664 c 1
387 506 m 1
 387 506 423 361 423 361 c 1
 423 361 643 361 643 361 c 1
 643 361 643 260 643 260 c 1
 643 260 447 260 447 260 c 1
 447 260 486 101 486 101 c 1
 486 101 687 101 687 101 c 1
 687 101 687 0 687 0 c 1
 687 0 395 0 395 0 c 1xbc
 395 0 366 119 366 119 c 1
 366 119 142 119 142 119 c 1xfc
 142 119 98 0 98 0 c 1
 98 0 -7 0 -7 0 c 1
 -7 0 225 606 225 606 c 1
 225 606 682 606 682 606 c 1
 682 606 682 506 682 506 c 1
 682 506 387 506 387 506 c 1
277 483 m 1
 273 473 269 462 265 452 c 0
 264 447 262 443 261 439 c 2
 261 439 179 220 179 220 c 1
 179 220 342 220 342 220 c 1xfc
 342 220 290 442 290 442 c 2
 288 449 286 456 285 463 c 0
 283 470 282 476 280 483 c 1
 280 483 277 483 277 483 c 1
EndSplineSet
Position2: "'cpsp' Capital Spacing lookup 0 subtable" dx=5 dy=0 dh=10 dv=0
EndChar

StartChar: B
Encoding: 66 66 15
Width: 523
GlyphClass: 2
Flags: MW
HStem: 0 101<166 295 295 314> 261 100<166 283 283 290 166 283> 506 100<166 288 166 166>
VStem: 53 113<101 261 361 506> 363 116<421 459> 377 116<152 200.5>
LayerCount: 2
Back
Fore
SplineSet
314 606 m 2xf8
 409 606 479 545 479 456 c 0xf8
 479 386 438 337 386 318 c 1
 386 318 386 315 386 315 c 1
 446 296 493 240 493 163 c 0xf4
 493 61 411 0 314 0 c 2
 314 0 53 0 53 0 c 1
 53 0 53 606 53 606 c 1
 53 606 314 606 314 606 c 2xf8
283 361 m 2
 337 361 363 395 363 436 c 0
 363 482 333 506 288 506 c 2
 288 506 166 506 166 506 c 1
 166 506 166 361 166 361 c 1
 166 361 283 361 283 361 c 2
295 101 m 2xf4
 342 101 377 127 377 177 c 0
 377 224 349 261 290 261 c 2
 290 261 166 261 166 261 c 1
 166 261 166 101 166 101 c 1
 166 101 295 101 295 101 c 2xf4
EndSplineSet
Position2: "'cpsp' Capital Spacing lookup 0 subtable" dx=5 dy=0 dh=10 dv=0
EndChar

StartChar: C
Encoding: 67 67 16
Width: 523
GlyphClass: 2
Flags: MW
HStem: -11 98<231.5 307.5 231.5 335.5> 520 97<229 303>
VStem: 30 117<220.5 281 281 325 220.5 410> 384 110<178 225>
AnchorPoint: "Anchor-1" 262 0 basechar 0
AnchorPoint: "Anchor-0" 262 606 basechar 0
LayerCount: 2
Back
Fore
SplineSet
271 617 m 0
 398 617 494 545 494 381 c 1
 494 381 378 381 378 381 c 1
 378 475 335 520 271 520 c 0
 187 520 147 446 147 325 c 2
 147 325 147 281 147 281 c 2
 147 160 188 87 275 87 c 0
 340 87 384 131 384 225 c 1
 384 225 494 225 494 225 c 1
 494 65 400 -11 271 -11 c 0
 119 -11 30 89 30 303 c 0
 30 517 119 617 271 617 c 0
EndSplineSet
Position2: "'cpsp' Capital Spacing lookup 0 subtable" dx=5 dy=0 dh=10 dv=0
EndChar

StartChar: Cacute
Encoding: 262 262 17
Width: 523
GlyphClass: 2
Flags: MW
HStem: -11 98<231.5 307.5 231.5 335.5> 520 97<229 303> 664 117<286 298 210 392>
VStem: 30 117<220.5 281 281 325 220.5 410> 384 110<178 225>
LayerCount: 2
Back
Fore
SplineSet
298 664 m 1
 298 664 210 664 210 664 c 1
 210 664 286 781 286 781 c 1
 286 781 392 781 392 781 c 1
 392 781 393 778 393 778 c 1
 393 778 298 664 298 664 c 1
271 617 m 0
 398 617 494 545 494 381 c 1
 494 381 378 381 378 381 c 1
 378 475 335 520 271 520 c 0
 187 520 147 446 147 325 c 2
 147 325 147 281 147 281 c 2
 147 160 188 87 275 87 c 0
 340 87 384 131 384 225 c 1
 384 225 494 225 494 225 c 1
 494 65 400 -11 271 -11 c 0
 119 -11 30 89 30 303 c 0
 30 517 119 617 271 617 c 0
EndSplineSet
Position2: "'cpsp' Capital Spacing lookup 0 subtable" dx=5 dy=0 dh=10 dv=0
EndChar

StartChar: Ccaron
Encoding: 268 268 18
Width: 523
GlyphClass: 2
Flags: MW
HStem: -11 98<231.5 307.5 231.5 335.5> 520 97<229 303> 661 120<228 232 311 315 228 228>
VStem: 30 117<220.5 281 281 325 220.5 410> 384 110<178 225>
LayerCount: 2
Back
Fore
SplineSet
152 781 m 1
 152 781 232 781 232 781 c 1
 232 781 271 720 271 720 c 1
 271 720 311 781 311 781 c 1
 311 781 390 781 390 781 c 1
 390 781 315 661 315 661 c 1
 315 661 228 661 228 661 c 1
 228 661 152 781 152 781 c 1
271 617 m 0
 398 617 494 545 494 381 c 1
 494 381 378 381 378 381 c 1
 378 475 335 520 271 520 c 0
 187 520 147 446 147 325 c 2
 147 325 147 281 147 281 c 2
 147 160 188 87 275 87 c 0
 340 87 384 131 384 225 c 1
 384 225 494 225 494 225 c 1
 494 65 400 -11 271 -11 c 0
 119 -11 30 89 30 303 c 0
 30 517 119 617 271 617 c 0
EndSplineSet
Position2: "'cpsp' Capital Spacing lookup 0 subtable" dx=5 dy=0 dh=10 dv=0
EndChar

StartChar: Ccedilla
Encoding: 199 199 19
Width: 523
GlyphClass: 2
Flags: MW
HStem: -161 50<251 252 252 261.5 189 282> -154 21G<189 189> -68 39<225 290> -10 21G<292 292> -8 21G<232 232> 520 97<229 303>
VStem: 30 117<220.5 281 281 325 220.5 410> 228.5 62.5 284 76<-97.5 -82> 384 110<178 225>
LayerCount: 2
Back
Fore
SplineSet
271 617 m 0x8f40
 398 617 494 545 494 381 c 1
 494 381 378 381 378 381 c 1
 378 475 335 520 271 520 c 0
 187 520 147 446 147 325 c 2
 147 325 147 281 147 281 c 2
 147 160 188 87 275 87 c 0xaf40
 340 87 384 131 384 225 c 1
 384 225 494 225 494 225 c 1
 494 74 409 -2 292 -10 c 1x9740
 292 -10 290 -29 290 -29 c 1
 328 -32 360 -49 360 -89 c 0
 360 -149 301 -161 263 -161 c 0xaec0
 239 -161 210 -158 189 -154 c 1x4f40
 189 -154 189 -111 189 -111 c 1
 189 -111 252 -111 252 -111 c 2
 271 -111 284 -106 284 -89 c 0
 284 -75 277 -68 254 -68 c 2xaec0
 254 -68 225 -68 225 -68 c 1xaf40
 225 -68 232 -8 232 -8 c 1
 103 8 30 108 30 303 c 0
 30 517 119 617 271 617 c 0x8f40
EndSplineSet
Position2: "'cpsp' Capital Spacing lookup 0 subtable" dx=5 dy=0 dh=10 dv=0
EndChar

StartChar: Ccircumflex
Encoding: 264 264 20
Width: 523
GlyphClass: 2
Flags: MW
HStem: -11 98<231.5 307.5 231.5 335.5> 520 97<229 303> 661 120<228 232 152 315 311 311 311 315 228 390>
VStem: 30 117<220.5 281 281 325 220.5 410> 384 110<178 225>
LayerCount: 2
Back
Fore
SplineSet
271 722 m 1
 271 722 232 661 232 661 c 1
 232 661 152 661 152 661 c 1
 152 661 228 781 228 781 c 1
 228 781 315 781 315 781 c 1
 315 781 390 661 390 661 c 1
 390 661 311 661 311 661 c 1
 311 661 271 722 271 722 c 1
271 617 m 0
 398 617 494 545 494 381 c 1
 494 381 378 381 378 381 c 1
 378 475 335 520 271 520 c 0
 187 520 147 446 147 325 c 2
 147 325 147 281 147 281 c 2
 147 160 188 87 275 87 c 0
 340 87 384 131 384 225 c 1
 384 225 494 225 494 225 c 1
 494 65 400 -11 271 -11 c 0
 119 -11 30 89 30 303 c 0
 30 517 119 617 271 617 c 0
EndSplineSet
Position2: "'cpsp' Capital Spacing lookup 0 subtable" dx=5 dy=0 dh=10 dv=0
EndChar

StartChar: Cdotaccent
Encoding: 266 266 21
Width: 523
GlyphClass: 2
Flags: MW
HStem: -11 98<231.5 307.5 231.5 335.5> 520 97<229 303> 679 102<224 318 224 318>
VStem: 30 117<220.5 281 281 325 220.5 410> 224 94<679 781 679 781> 384 110<178 225>
LayerCount: 2
Back
Fore
SplineSet
224 781 m 1
 224 781 318 781 318 781 c 1
 318 781 318 679 318 679 c 1
 318 679 224 679 224 679 c 1
 224 679 224 781 224 781 c 1
271 617 m 0
 398 617 494 545 494 381 c 1
 494 381 378 381 378 381 c 1
 378 475 335 520 271 520 c 0
 187 520 147 446 147 325 c 2
 147 325 147 281 147 281 c 2
 147 160 188 87 275 87 c 0
 340 87 384 131 384 225 c 1
 384 225 494 225 494 225 c 1
 494 65 400 -11 271 -11 c 0
 119 -11 30 89 30 303 c 0
 30 517 119 617 271 617 c 0
EndSplineSet
Position2: "'cpsp' Capital Spacing lookup 0 subtable" dx=5 dy=0 dh=10 dv=0
EndChar

StartChar: D
Encoding: 68 68 22
Width: 523
GlyphClass: 2
Flags: MW
HStem: 0 101<166 240 240 250> 506 100<166 240 166 166>
VStem: 53 113<101 506 101 606 101 606> 377 116<290 334 334 391>
AnchorPoint: "Anchor-1" 0 0 basechar 0
AnchorPoint: "Anchor-0" 262 606 basechar 0
LayerCount: 2
Back
Fore
SplineSet
250 606 m 2
 401 606 493 507 493 312 c 0
 493 104 401 0 250 0 c 2
 250 0 53 0 53 0 c 1
 53 0 53 606 53 606 c 1
 53 606 250 606 250 606 c 2
240 101 m 2
 324 101 377 164 377 290 c 2
 377 290 377 334 377 334 c 2
 377 448 324 506 240 506 c 2
 240 506 166 506 166 506 c 1
 166 506 166 101 166 101 c 1
 166 101 240 101 240 101 c 2
EndSplineSet
Position2: "'cpsp' Capital Spacing lookup 0 subtable" dx=5 dy=0 dh=10 dv=0
EndChar

StartChar: Eth
Encoding: 208 208 23
Width: 523
GlyphClass: 2
Flags: MW
HStem: 0 101<166 240 240 250> 276 75<9 53 9 53 166 277> 506 100<166 240 166 166>
VStem: 53 113<101 276 101 276 101 276 351 506> 377 116<290 334 334 391>
LayerCount: 2
Back
Fore
SplineSet
53 606 m 1
 53 606 250 606 250 606 c 2
 401 606 493 507 493 312 c 0
 493 104 401 0 250 0 c 2
 250 0 53 0 53 0 c 1
 53 0 53 276 53 276 c 1
 53 276 9 276 9 276 c 1
 9 276 9 351 9 351 c 1
 9 351 53 351 53 351 c 1
 53 351 53 606 53 606 c 1
277 351 m 1
 277 351 277 276 277 276 c 1
 277 276 166 276 166 276 c 1
 166 276 166 101 166 101 c 1
 166 101 240 101 240 101 c 2
 324 101 377 164 377 290 c 2
 377 290 377 334 377 334 c 2
 377 448 324 506 240 506 c 2
 240 506 166 506 166 506 c 1
 166 506 166 351 166 351 c 1
 166 351 277 351 277 351 c 1
EndSplineSet
Position2: "'cpsp' Capital Spacing lookup 0 subtable" dx=5 dy=0 dh=10 dv=0
EndChar

StartChar: Dcaron
Encoding: 270 270 24
Width: 523
GlyphClass: 2
Flags: MW
HStem: 0 101<166 240 240 250> 506 100<166 240 166 166> 661 120<181 185 263 268 181 181>
VStem: 53 113<101 506 101 606 101 606> 377 116<290 334 334 391>
LayerCount: 2
Back
Fore
SplineSet
105 781 m 1
 105 781 185 781 185 781 c 1
 185 781 225 720 225 720 c 1
 225 720 263 781 263 781 c 1
 263 781 343 781 343 781 c 1
 343 781 268 661 268 661 c 1
 268 661 181 661 181 661 c 1
 181 661 105 781 105 781 c 1
250 606 m 2
 401 606 493 507 493 312 c 0
 493 104 401 0 250 0 c 2
 250 0 53 0 53 0 c 1
 53 0 53 606 53 606 c 1
 53 606 250 606 250 606 c 2
240 101 m 2
 324 101 377 164 377 290 c 2
 377 290 377 334 377 334 c 2
 377 448 324 506 240 506 c 2
 240 506 166 506 166 506 c 1
 166 506 166 101 166 101 c 1
 166 101 240 101 240 101 c 2
EndSplineSet
Position2: "'cpsp' Capital Spacing lookup 0 subtable" dx=5 dy=0 dh=10 dv=0
EndChar

StartChar: Dcroat
Encoding: 272 272 25
Width: 523
GlyphClass: 2
Flags: MW
HStem: 0 101<166 240 240 250> 276 75<9 53 9 53 166 277> 506 100<166 240 166 166>
VStem: 53 113<101 276 101 276 101 276 351 506> 377 116<290 334 334 391>
LayerCount: 2
Back
Fore
SplineSet
53 606 m 1
 53 606 250 606 250 606 c 2
 401 606 493 507 493 312 c 0
 493 104 401 0 250 0 c 2
 250 0 53 0 53 0 c 1
 53 0 53 276 53 276 c 1
 53 276 9 276 9 276 c 1
 9 276 9 351 9 351 c 1
 9 351 53 351 53 351 c 1
 53 351 53 606 53 606 c 1
277 351 m 1
 277 351 277 276 277 276 c 1
 277 276 166 276 166 276 c 1
 166 276 166 101 166 101 c 1
 166 101 240 101 240 101 c 2
 324 101 377 164 377 290 c 2
 377 290 377 334 377 334 c 2
 377 448 324 506 240 506 c 2
 240 506 166 506 166 506 c 1
 166 506 166 351 166 351 c 1
 166 351 277 351 277 351 c 1
EndSplineSet
Position2: "'cpsp' Capital Spacing lookup 0 subtable" dx=5 dy=0 dh=10 dv=0
EndChar

StartChar: E
Encoding: 69 69 26
Width: 484
GlyphClass: 2
Flags: MW
HStem: 0 101<166 445 166 445> 260 101<166 400 166 400> 506 100<166 439 166 166>
VStem: 53 113<101 260 361 506>
AnchorPoint: "Anchor-1" 242 0 basechar 0
AnchorPoint: "Anchor-0" 242 606 basechar 0
LayerCount: 2
Back
Fore
SplineSet
439 606 m 1
 439 606 439 506 439 506 c 1
 439 506 166 506 166 506 c 1
 166 506 166 361 166 361 c 1
 166 361 400 361 400 361 c 1
 400 361 400 260 400 260 c 1
 400 260 166 260 166 260 c 1
 166 260 166 101 166 101 c 1
 166 101 445 101 445 101 c 1
 445 101 445 0 445 0 c 1
 445 0 53 0 53 0 c 1
 53 0 53 606 53 606 c 1
 53 606 439 606 439 606 c 1
EndSplineSet
Position2: "'cpsp' Capital Spacing lookup 0 subtable" dx=5 dy=0 dh=10 dv=0
EndChar

StartChar: Eacute
Encoding: 201 201 27
Width: 484
GlyphClass: 2
Flags: MW
HStem: 0 101<166 445 166 445> 260 101<166 400 166 400> 506 100<166 166 166 439> 664 117<257 269 181 363>
VStem: 53 113<101 260 361 506>
LayerCount: 2
Back
Fore
SplineSet
269 664 m 1
 269 664 181 664 181 664 c 1
 181 664 257 781 257 781 c 1
 257 781 363 781 363 781 c 1
 363 781 364 778 364 778 c 1
 364 778 269 664 269 664 c 1
166 506 m 1
 166 506 166 361 166 361 c 1
 166 361 400 361 400 361 c 1
 400 361 400 260 400 260 c 1
 400 260 166 260 166 260 c 1
 166 260 166 101 166 101 c 1
 166 101 445 101 445 101 c 1
 445 101 445 0 445 0 c 1
 445 0 53 0 53 0 c 1
 53 0 53 606 53 606 c 1
 53 606 439 606 439 606 c 1
 439 606 439 506 439 506 c 1
 439 506 166 506 166 506 c 1
EndSplineSet
Position2: "'cpsp' Capital Spacing lookup 0 subtable" dx=5 dy=0 dh=10 dv=0
EndChar

StartChar: Ebreve
Encoding: 276 276 28
Width: 484
GlyphClass: 2
Flags: MW
HStem: 0 101<166 445 166 445> 260 101<166 400 166 400> 506 100<166 439 166 166> 686 95<124 278>
VStem: 53 113<101 260 361 506>
LayerCount: 2
Back
Fore
SplineSet
360 781 m 1
 360 736 315 686 241 686 c 0
 169 686 124 736 124 781 c 1
 124 781 189 781 189 781 c 1
 192 768 212 751 241 751 c 0
 271 751 293 768 294 781 c 1
 294 781 360 781 360 781 c 1
439 606 m 1
 439 606 439 506 439 506 c 1
 439 506 166 506 166 506 c 1
 166 506 166 361 166 361 c 1
 166 361 400 361 400 361 c 1
 400 361 400 260 400 260 c 1
 400 260 166 260 166 260 c 1
 166 260 166 101 166 101 c 1
 166 101 445 101 445 101 c 1
 445 101 445 0 445 0 c 1
 445 0 53 0 53 0 c 1
 53 0 53 606 53 606 c 1
 53 606 439 606 439 606 c 1
EndSplineSet
Position2: "'cpsp' Capital Spacing lookup 0 subtable" dx=5 dy=0 dh=10 dv=0
EndChar

StartChar: Ecaron
Encoding: 282 282 29
Width: 484
GlyphClass: 2
Flags: MW
HStem: 0 101<166 445 166 445> 260 101<166 400 166 400> 506 100<166 439 166 166> 661 120<199 202 281 286 199 199>
VStem: 53 113<101 260 361 506>
LayerCount: 2
Back
Fore
SplineSet
123 781 m 1
 123 781 202 781 202 781 c 1
 202 781 242 720 242 720 c 1
 242 720 281 781 281 781 c 1
 281 781 361 781 361 781 c 1
 361 781 286 661 286 661 c 1
 286 661 199 661 199 661 c 1
 199 661 123 781 123 781 c 1
439 606 m 1
 439 606 439 506 439 506 c 1
 439 506 166 506 166 506 c 1
 166 506 166 361 166 361 c 1
 166 361 400 361 400 361 c 1
 400 361 400 260 400 260 c 1
 400 260 166 260 166 260 c 1
 166 260 166 101 166 101 c 1
 166 101 445 101 445 101 c 1
 445 101 445 0 445 0 c 1
 445 0 53 0 53 0 c 1
 53 0 53 606 53 606 c 1
 53 606 439 606 439 606 c 1
EndSplineSet
Position2: "'cpsp' Capital Spacing lookup 0 subtable" dx=5 dy=0 dh=10 dv=0
EndChar

StartChar: Ecircumflex
Encoding: 202 202 30
Width: 484
GlyphClass: 2
Flags: MW
HStem: 0 101<166 445 166 445> 260 101<166 400 166 400> 506 100<166 439 166 166> 661 120<199 202 123 286 281 281 281 286 199 361>
VStem: 53 113<101 260 361 506>
LayerCount: 2
Back
Fore
SplineSet
242 722 m 1
 242 722 202 661 202 661 c 1
 202 661 123 661 123 661 c 1
 123 661 199 781 199 781 c 1
 199 781 286 781 286 781 c 1
 286 781 361 661 361 661 c 1
 361 661 281 661 281 661 c 1
 281 661 242 722 242 722 c 1
439 606 m 1
 439 606 439 506 439 506 c 1
 439 506 166 506 166 506 c 1
 166 506 166 361 166 361 c 1
 166 361 400 361 400 361 c 1
 400 361 400 260 400 260 c 1
 400 260 166 260 166 260 c 1
 166 260 166 101 166 101 c 1
 166 101 445 101 445 101 c 1
 445 101 445 0 445 0 c 1
 445 0 53 0 53 0 c 1
 53 0 53 606 53 606 c 1
 53 606 439 606 439 606 c 1
EndSplineSet
Position2: "'cpsp' Capital Spacing lookup 0 subtable" dx=5 dy=0 dh=10 dv=0
EndChar

StartChar: Edieresis
Encoding: 203 203 31
Width: 484
GlyphClass: 2
Flags: MW
HStem: 0 101<166 445 166 445> 260 101<166 400 166 400> 506 100<166 166 166 439> 684 97<120 209 120 209 275 363 120 275>
VStem: 53 113<101 260 361 506> 120 89<684 781 684 781> 275 88<684 781 684 781>
LayerCount: 2
Back
Fore
SplineSet
120 684 m 1xf6
 120 684 120 781 120 781 c 1
 120 781 209 781 209 781 c 1
 209 781 209 684 209 684 c 1
 209 684 120 684 120 684 c 1xf6
275 684 m 1
 275 684 275 781 275 781 c 1
 275 781 363 781 363 781 c 1
 363 781 363 684 363 684 c 1
 363 684 275 684 275 684 c 1
166 506 m 1xfa
 166 506 166 361 166 361 c 1
 166 361 400 361 400 361 c 1
 400 361 400 260 400 260 c 1
 400 260 166 260 166 260 c 1
 166 260 166 101 166 101 c 1
 166 101 445 101 445 101 c 1
 445 101 445 0 445 0 c 1
 445 0 53 0 53 0 c 1
 53 0 53 606 53 606 c 1
 53 606 439 606 439 606 c 1
 439 606 439 506 439 506 c 1
 439 506 166 506 166 506 c 1xfa
EndSplineSet
Position2: "'cpsp' Capital Spacing lookup 0 subtable" dx=5 dy=0 dh=10 dv=0
EndChar

StartChar: Edotaccent
Encoding: 278 278 32
Width: 484
GlyphClass: 2
Flags: MW
HStem: 0 101<166 445 166 445> 260 101<166 400 166 400> 506 100<166 439 166 166> 679 102<194 289 194 289>
VStem: 53 113<101 260 361 506> 194 95<679 781 679 781>
LayerCount: 2
Back
Fore
SplineSet
194 781 m 1
 194 781 289 781 289 781 c 1
 289 781 289 679 289 679 c 1
 289 679 194 679 194 679 c 1
 194 679 194 781 194 781 c 1
439 606 m 1
 439 606 439 506 439 506 c 1
 439 506 166 506 166 506 c 1
 166 506 166 361 166 361 c 1
 166 361 400 361 400 361 c 1
 400 361 400 260 400 260 c 1
 400 260 166 260 166 260 c 1
 166 260 166 101 166 101 c 1
 166 101 445 101 445 101 c 1
 445 101 445 0 445 0 c 1
 445 0 53 0 53 0 c 1
 53 0 53 606 53 606 c 1xf8
 53 606 439 606 439 606 c 1
EndSplineSet
Position2: "'cpsp' Capital Spacing lookup 0 subtable" dx=5 dy=0 dh=10 dv=0
EndChar

StartChar: Egrave
Encoding: 200 200 33
Width: 484
GlyphClass: 2
Flags: MW
HStem: 0 101<166 445 166 445> 260 101<166 400 166 400> 506 100<166 166 166 439> 664 117<215 215 215 226 120 302>
VStem: 53 113<101 260 361 506>
LayerCount: 2
Back
Fore
SplineSet
215 664 m 1
 215 664 119 778 119 778 c 1
 119 778 120 781 120 781 c 1
 120 781 226 781 226 781 c 1
 226 781 302 664 302 664 c 1
 302 664 215 664 215 664 c 1
166 506 m 1
 166 506 166 361 166 361 c 1
 166 361 400 361 400 361 c 1
 400 361 400 260 400 260 c 1
 400 260 166 260 166 260 c 1
 166 260 166 101 166 101 c 1
 166 101 445 101 445 101 c 1
 445 101 445 0 445 0 c 1
 445 0 53 0 53 0 c 1
 53 0 53 606 53 606 c 1
 53 606 439 606 439 606 c 1
 439 606 439 506 439 506 c 1
 439 506 166 506 166 506 c 1
EndSplineSet
Position2: "'cpsp' Capital Spacing lookup 0 subtable" dx=5 dy=0 dh=10 dv=0
EndChar

StartChar: Emacron
Encoding: 274 274 34
Width: 484
GlyphClass: 2
Flags: MW
HStem: 0 101<166 445 166 445> 260 101<166 400 166 400> 506 100<166 439 166 166> 671 77<129 354 129 354>
VStem: 53 113<101 260 361 506> 129 225<671 748 671 748>
LayerCount: 2
Back
Fore
SplineSet
129 748 m 1xf4
 129 748 354 748 354 748 c 1
 354 748 354 671 354 671 c 1
 354 671 129 671 129 671 c 1
 129 671 129 748 129 748 c 1xf4
439 606 m 1
 439 606 439 506 439 506 c 1
 439 506 166 506 166 506 c 1
 166 506 166 361 166 361 c 1
 166 361 400 361 400 361 c 1
 400 361 400 260 400 260 c 1
 400 260 166 260 166 260 c 1
 166 260 166 101 166 101 c 1
 166 101 445 101 445 101 c 1
 445 101 445 0 445 0 c 1
 445 0 53 0 53 0 c 1
 53 0 53 606 53 606 c 1xf8
 53 606 439 606 439 606 c 1
EndSplineSet
Position2: "'cpsp' Capital Spacing lookup 0 subtable" dx=5 dy=0 dh=10 dv=0
EndChar

StartChar: Eogonek
Encoding: 280 280 35
Width: 484
GlyphClass: 2
Flags: MW
HStem: -168 61<398.5 477> -156 21G<477 477> -156 49<458 477> 0 101<166 370 166 445> 260 101<166 400 166 400> 506 100<166 439 166 166>
VStem: 53 113<101 260 361 506> 331 146<-118.5 -107 -156 -67.5>
LayerCount: 2
Back
Fore
SplineSet
166 361 m 1x5f
 166 361 400 361 400 361 c 1
 400 361 400 260 400 260 c 1
 400 260 166 260 166 260 c 1
 166 260 166 101 166 101 c 1
 166 101 445 101 445 101 c 1
 445 101 445 0 445 0 c 1
 434 -12 418 -37 418 -62 c 0
 418 -85 429 -107 458 -107 c 2
 458 -107 477 -107 477 -107 c 1x3f
 477 -107 477 -156 477 -156 c 1x5f
 457 -164 438 -168 419 -168 c 0
 378 -168 331 -149 331 -88 c 0x9f
 331 -47 349 -22 370 0 c 1
 370 0 53 0 53 0 c 1
 53 0 53 606 53 606 c 1
 53 606 439 606 439 606 c 1
 439 606 439 506 439 506 c 1
 439 506 166 506 166 506 c 1
 166 506 166 361 166 361 c 1x5f
EndSplineSet
Position2: "'cpsp' Capital Spacing lookup 0 subtable" dx=5 dy=0 dh=10 dv=0
EndChar

StartChar: F
Encoding: 70 70 36
Width: 443
GlyphClass: 2
Flags: MW
HStem: 0 21G<53 166 53 53> 252 101<166 374 166 374> 506 100<166 409 166 166>
VStem: 53 113<0 252 353 506>
LayerCount: 2
Back
Fore
SplineSet
409 606 m 1
 409 606 409 506 409 506 c 1
 409 506 166 506 166 506 c 1
 166 506 166 353 166 353 c 1
 166 353 374 353 374 353 c 1
 374 353 374 252 374 252 c 1
 374 252 166 252 166 252 c 1
 166 252 166 0 166 0 c 1
 166 0 53 0 53 0 c 1
 53 0 53 606 53 606 c 1
 53 606 409 606 409 606 c 1
EndSplineSet
Position2: "'cpsp' Capital Spacing lookup 0 subtable" dx=5 dy=0 dh=10 dv=0
EndChar

StartChar: G
Encoding: 71 71 37
Width: 564
GlyphClass: 2
Flags: MW
HStem: -11 98<237.5 296> 0 21G<446 519 446 446> 232 98<267 403 267 519> 520 97<236.5 316.5>
VStem: 30 117<219 281 281 325 219 410> 403 116<187.5 232 394 435>
AnchorPoint: "Anchor-1" 282 0 basechar 0
AnchorPoint: "Anchor-0" 282 606 basechar 0
LayerCount: 2
Back
Fore
SplineSet
267 330 m 1xbc
 267 330 519 330 519 330 c 1
 519 330 519 0 519 0 c 1
 519 0 446 0 446 0 c 1x7c
 446 0 426 67 426 67 c 1
 387 16 328 -11 264 -11 c 0
 116 -11 30 88 30 303 c 0
 30 517 124 617 287 617 c 0
 409 617 519 539 519 394 c 1
 519 394 403 394 403 394 c 1
 403 476 349 520 284 520 c 0
 189 520 147 446 147 325 c 2
 147 325 147 281 147 281 c 2
 147 157 190 87 285 87 c 0
 354 87 403 143 403 232 c 1
 403 232 267 232 267 232 c 1
 267 232 267 330 267 330 c 1xbc
EndSplineSet
Position2: "'cpsp' Capital Spacing lookup 0 subtable" dx=5 dy=0 dh=10 dv=0
EndChar

StartChar: Gbreve
Encoding: 286 286 38
Width: 564
GlyphClass: 2
Flags: MW
HStem: -11 98<237.5 296> 0 21G<446 519 446 446> 232 98<267 403 267 519> 520 97<236.5 316.5> 686 95<164 318.5>
VStem: 30 117<219 281 281 325 219 410> 403 116<187.5 232 394 435>
LayerCount: 2
Back
Fore
SplineSet
282 686 m 0xbe
 210 686 164 736 164 781 c 1
 164 781 230 781 230 781 c 1
 232 768 253 751 282 751 c 0
 312 751 333 768 335 781 c 1
 335 781 400 781 400 781 c 1
 400 736 355 686 282 686 c 0xbe
267 330 m 1
 267 330 519 330 519 330 c 1
 519 330 519 0 519 0 c 1
 519 0 446 0 446 0 c 1x7e
 446 0 426 67 426 67 c 1
 387 16 328 -11 264 -11 c 0
 116 -11 30 88 30 303 c 0
 30 517 124 617 287 617 c 0
 409 617 519 539 519 394 c 1
 519 394 403 394 403 394 c 1
 403 476 349 520 284 520 c 0
 189 520 147 446 147 325 c 2
 147 325 147 281 147 281 c 2
 147 157 190 87 285 87 c 0
 354 87 403 143 403 232 c 1
 403 232 267 232 267 232 c 1
 267 232 267 330 267 330 c 1
EndSplineSet
Position2: "'cpsp' Capital Spacing lookup 0 subtable" dx=5 dy=0 dh=10 dv=0
EndChar

StartChar: Gcircumflex
Encoding: 284 284 39
Width: 564
GlyphClass: 2
Flags: MW
HStem: -11 98<237.5 296> 0 21G<446 519 446 446> 232 98<267 403 267 519> 520 97<236.5 316.5> 661 120<240 243 164 326 322 322 322 326 240 401>
VStem: 30 117<219 281 281 325 219 410> 403 116<187.5 232 394 435>
LayerCount: 2
Back
Fore
SplineSet
243 661 m 1xbe
 243 661 164 661 164 661 c 1
 164 661 240 781 240 781 c 1
 240 781 326 781 326 781 c 1
 326 781 401 661 401 661 c 1
 401 661 322 661 322 661 c 1
 322 661 283 722 283 722 c 1
 283 722 243 661 243 661 c 1xbe
267 330 m 1
 267 330 519 330 519 330 c 1
 519 330 519 0 519 0 c 1
 519 0 446 0 446 0 c 1x7e
 446 0 426 67 426 67 c 1
 387 16 328 -11 264 -11 c 0
 116 -11 30 88 30 303 c 0
 30 517 124 617 287 617 c 0
 409 617 519 539 519 394 c 1
 519 394 403 394 403 394 c 1
 403 476 349 520 284 520 c 0
 189 520 147 446 147 325 c 2
 147 325 147 281 147 281 c 2
 147 157 190 87 285 87 c 0
 354 87 403 143 403 232 c 1
 403 232 267 232 267 232 c 1
 267 232 267 330 267 330 c 1
EndSplineSet
Position2: "'cpsp' Capital Spacing lookup 0 subtable" dx=5 dy=0 dh=10 dv=0
EndChar

StartChar: Gcommaaccent
Encoding: 290 290 40
Width: 564
GlyphClass: 2
Flags: MW
HStem: -157 108<214 257 214 323> -11 98<237.5 296> 0 21G<446 519 446 446> 232 98<267 403 267 519> 520 97<236.5 316.5>
VStem: 30 117<219 281 281 325 219 410> 214 109<-148 -49 -148 -49 -148 -49> 403 116<187.5 232 394 435>
LayerCount: 2
Back
Fore
SplineSet
267 330 m 1xdf
 267 330 519 330 519 330 c 1
 519 330 519 0 519 0 c 1
 519 0 446 0 446 0 c 1xbf
 446 0 426 67 426 67 c 1
 387 16 328 -11 264 -11 c 0
 116 -11 30 88 30 303 c 0
 30 517 124 617 287 617 c 0
 409 617 519 539 519 394 c 1
 519 394 403 394 403 394 c 1
 403 476 349 520 284 520 c 0
 189 520 147 446 147 325 c 2
 147 325 147 281 147 281 c 2
 147 157 190 87 285 87 c 0
 354 87 403 143 403 232 c 1
 403 232 267 232 267 232 c 1
 267 232 267 330 267 330 c 1xdf
214 -49 m 1
 214 -49 323 -49 323 -49 c 1
 323 -49 323 -148 323 -148 c 1
 323 -148 283 -232 283 -232 c 1
 283 -232 225 -232 225 -232 c 1
 225 -232 257 -157 257 -157 c 1
 257 -157 214 -157 214 -157 c 1
 214 -157 214 -49 214 -49 c 1
EndSplineSet
Position2: "'cpsp' Capital Spacing lookup 0 subtable" dx=5 dy=0 dh=10 dv=0
EndChar

StartChar: Gdotaccent
Encoding: 288 288 41
Width: 564
GlyphClass: 2
Flags: MW
HStem: -11 98<237.5 296> 0 21G<446 519 446 446> 232 98<267 403 267 519> 520 97<236.5 316.5> 679 102<235 330 235 330>
VStem: 30 117<219 281 281 325 219 410> 235 95<679 781> 403 116<187.5 232 394 435>
LayerCount: 2
Back
Fore
SplineSet
330 679 m 1xbf
 330 679 235 679 235 679 c 1
 235 679 235 781 235 781 c 1
 235 781 330 781 330 781 c 1
 330 781 330 679 330 679 c 1xbf
267 330 m 1
 267 330 519 330 519 330 c 1
 519 330 519 0 519 0 c 1
 519 0 446 0 446 0 c 1x7f
 446 0 426 67 426 67 c 1
 387 16 328 -11 264 -11 c 0
 116 -11 30 88 30 303 c 0
 30 517 124 617 287 617 c 0
 409 617 519 539 519 394 c 1
 519 394 403 394 403 394 c 1
 403 476 349 520 284 520 c 0
 189 520 147 446 147 325 c 2
 147 325 147 281 147 281 c 2
 147 157 190 87 285 87 c 0
 354 87 403 143 403 232 c 1
 403 232 267 232 267 232 c 1
 267 232 267 330 267 330 c 1
EndSplineSet
Position2: "'cpsp' Capital Spacing lookup 0 subtable" dx=5 dy=0 dh=10 dv=0
EndChar

StartChar: H
Encoding: 72 72 42
Width: 523
GlyphClass: 2
Flags: MW
HStem: 0 21G<53 166 53 53 357 470 357 357> 260 101<166 357 166 357> 586 20G<53 166 166 166 357 470 470 470>
VStem: 53 113<0 260 0 361 361 606> 357 113<0 260 260 260 361 606 0 606>
AnchorPoint: "Anchor-1" 0 0 basechar 0
AnchorPoint: "Anchor-0" 262 606 basechar 0
LayerCount: 2
Back
Fore
SplineSet
357 0 m 1
 357 0 357 260 357 260 c 1
 357 260 166 260 166 260 c 1
 166 260 166 0 166 0 c 1
 166 0 53 0 53 0 c 1
 53 0 53 606 53 606 c 1
 53 606 166 606 166 606 c 1
 166 606 166 361 166 361 c 1
 166 361 357 361 357 361 c 1
 357 361 357 606 357 606 c 1
 357 606 470 606 470 606 c 1
 470 606 470 0 470 0 c 1
 470 0 357 0 357 0 c 1
EndSplineSet
Position2: "'cpsp' Capital Spacing lookup 0 subtable" dx=5 dy=0 dh=10 dv=0
EndChar

StartChar: Hbar
Encoding: 294 294 43
Width: 523
GlyphClass: 2
Flags: MW
HStem: 0 21G<53 166 53 53 357 470 357 357> 254 100<166 357 166 357> 433 77<9 53 9 53 166 357 470 514> 433 173<9 166 9 166 53 357 53 166>
VStem: 53 113<0 254 0 354 354 433 510 606> 357 113<0 254 254 254 354 433 510 606>
LayerCount: 2
Back
Fore
SplineSet
470 0 m 1xdc
 470 0 357 0 357 0 c 1
 357 0 357 254 357 254 c 1
 357 254 166 254 166 254 c 1
 166 254 166 0 166 0 c 1
 166 0 53 0 53 0 c 1
 53 0 53 433 53 433 c 1
 53 433 9 433 9 433 c 1xdc
 9 433 9 510 9 510 c 1
 9 510 53 510 53 510 c 1xec
 53 510 53 606 53 606 c 1
 53 606 166 606 166 606 c 1xdc
 166 606 166 510 166 510 c 1
 166 510 357 510 357 510 c 1xec
 357 510 357 606 357 606 c 1
 357 606 470 606 470 606 c 1xdc
 470 606 470 510 470 510 c 1
 470 510 514 510 514 510 c 1xec
 514 510 514 433 514 433 c 1
 514 433 470 433 470 433 c 1
 470 433 470 0 470 0 c 1xdc
166 433 m 1
 166 433 166 354 166 354 c 1
 166 354 357 354 357 354 c 1
 357 354 357 433 357 433 c 1
 357 433 166 433 166 433 c 1
EndSplineSet
Position2: "'cpsp' Capital Spacing lookup 0 subtable" dx=5 dy=0 dh=10 dv=0
EndChar

StartChar: Hcircumflex
Encoding: 292 292 44
Width: 523
GlyphClass: 2
Flags: MW
HStem: 0 21G<53 166 53 53 357 470 357 357> 260 101<166 357 166 357> 586 20G<53 166 166 166 357 470 470 470> 661 120<219 222 143 306 301 306 219 381 301 301>
VStem: 53 113<0 260 0 361 361 606> 357 113<0 260 260 260 361 606 0 606>
LayerCount: 2
Back
Fore
SplineSet
301 661 m 1
 301 661 262 722 262 722 c 1
 262 722 222 661 222 661 c 1
 222 661 143 661 143 661 c 1
 143 661 219 781 219 781 c 1
 219 781 306 781 306 781 c 1
 306 781 381 661 381 661 c 1
 381 661 301 661 301 661 c 1
357 0 m 1
 357 0 357 260 357 260 c 1
 357 260 166 260 166 260 c 1
 166 260 166 0 166 0 c 1
 166 0 53 0 53 0 c 1
 53 0 53 606 53 606 c 1
 53 606 166 606 166 606 c 1
 166 606 166 361 166 361 c 1
 166 361 357 361 357 361 c 1
 357 361 357 606 357 606 c 1
 357 606 470 606 470 606 c 1
 470 606 470 0 470 0 c 1
 470 0 357 0 357 0 c 1
EndSplineSet
Position2: "'cpsp' Capital Spacing lookup 0 subtable" dx=5 dy=0 dh=10 dv=0
EndChar

StartChar: I
Encoding: 73 73 45
Width: 202
GlyphClass: 2
Flags: MW
HStem: 0 21G<44 157 44 44> 586 20G<44 157 157 157>
VStem: 44 113<0 606 0 606>
AnchorPoint: "Anchor-1" 0 0 basechar 0
AnchorPoint: "Anchor-0" 101 606 basechar 0
LayerCount: 2
Back
Fore
SplineSet
44 606 m 1
 44 606 157 606 157 606 c 1
 157 606 157 0 157 0 c 1
 157 0 44 0 44 0 c 1
 44 0 44 606 44 606 c 1
EndSplineSet
Position2: "'cpsp' Capital Spacing lookup 0 subtable" dx=5 dy=0 dh=10 dv=0
EndChar

StartChar: IJ
Encoding: 306 306 46
Width: 605
GlyphClass: 2
Flags: MW
HStem: -11 98<361.5 400 361.5 436> 0 191<44 322 44 322> 586 20G<44 157 157 157 438 552 552 552>
VStem: 44 113<0 606 0 606> 210 112<144 153 153 191 131.5 191> 438 114<153 606>
LayerCount: 2
Back
Fore
SplineSet
44 0 m 1x7c
 44 0 44 606 44 606 c 1
 44 606 157 606 157 606 c 1
 157 606 157 0 157 0 c 1
 157 0 44 0 44 0 c 1x7c
552 144 m 2xbc
 552 43 491 -11 381 -11 c 0xbc
 271 -11 210 43 210 144 c 2
 210 144 210 191 210 191 c 1
 210 191 322 191 322 191 c 1x7c
 322 191 322 153 322 153 c 2
 322 110 342 87 381 87 c 0
 419 87 438 110 438 153 c 2
 438 153 438 606 438 606 c 1
 438 606 552 606 552 606 c 1
 552 606 552 144 552 144 c 2xbc
EndSplineSet
Position2: "'cpsp' Capital Spacing lookup 0 subtable" dx=5 dy=0 dh=10 dv=0
EndChar

StartChar: Iacute
Encoding: 205 205 47
Width: 202
GlyphClass: 2
Flags: MW
HStem: 0 21G<44 44 44 157> 586 20G<44 157 157 157> 664 117<116 128 40 222>
VStem: 44 113<0 606 0 606>
LayerCount: 2
Back
Fore
SplineSet
128 664 m 1
 128 664 40 664 40 664 c 1
 40 664 116 781 116 781 c 1
 116 781 222 781 222 781 c 1
 222 781 223 778 223 778 c 1
 223 778 128 664 128 664 c 1
44 0 m 1
 44 0 44 606 44 606 c 1
 44 606 157 606 157 606 c 1
 157 606 157 0 157 0 c 1
 157 0 44 0 44 0 c 1
EndSplineSet
Position2: "'cpsp' Capital Spacing lookup 0 subtable" dx=5 dy=0 dh=10 dv=0
EndChar

StartChar: Ibreve
Encoding: 300 300 48
Width: 202
GlyphClass: 2
Flags: MW
HStem: 0 21G<44 157 44 44> 586 20G<44 157 157 157> 686 95<-18 137.5>
VStem: 44 113<0 606 0 606>
LayerCount: 2
Back
Fore
SplineSet
219 781 m 1
 219 736 174 686 101 686 c 0
 28 686 -18 736 -18 781 c 1
 -18 781 49 781 49 781 c 1
 51 768 72 751 101 751 c 0
 131 751 152 768 154 781 c 1
 154 781 219 781 219 781 c 1
44 606 m 1
 44 606 157 606 157 606 c 1
 157 606 157 0 157 0 c 1
 157 0 44 0 44 0 c 1
 44 0 44 606 44 606 c 1
EndSplineSet
Position2: "'cpsp' Capital Spacing lookup 0 subtable" dx=5 dy=0 dh=10 dv=0
EndChar

StartChar: Icircumflex
Encoding: 206 206 49
Width: 202
GlyphClass: 2
Flags: MW
HStem: 0 21G<44 157 44 44> 586 20G<44 157 157 157> 661 120<58 62 -19 145 141 141 141 145 58 220>
VStem: 44 113<0 606 0 606>
LayerCount: 2
Back
Fore
SplineSet
102 722 m 1
 102 722 62 661 62 661 c 1
 62 661 -19 661 -19 661 c 1
 -19 661 58 781 58 781 c 1
 58 781 145 781 145 781 c 1
 145 781 220 661 220 661 c 1
 220 661 141 661 141 661 c 1
 141 661 102 722 102 722 c 1
44 606 m 1
 44 606 157 606 157 606 c 1
 157 606 157 0 157 0 c 1
 157 0 44 0 44 0 c 1
 44 0 44 606 44 606 c 1
EndSplineSet
Position2: "'cpsp' Capital Spacing lookup 0 subtable" dx=5 dy=0 dh=10 dv=0
EndChar

StartChar: Idieresis
Encoding: 207 207 50
Width: 202
GlyphClass: 2
Flags: MW
HStem: 0 21G<44 44 44 157> 586 20G<44 157 157 157> 684 97<-20 68 -20 68 134 223 -20 134>
VStem: -20 88<684 781 684 781> 44 113<0 606 0 606> 134 89<684 781 684 781>
LayerCount: 2
Back
Fore
SplineSet
-20 684 m 1xf4
 -20 684 -20 781 -20 781 c 1
 -20 781 68 781 68 781 c 1
 68 781 68 684 68 684 c 1
 68 684 -20 684 -20 684 c 1xf4
134 684 m 1
 134 684 134 781 134 781 c 1
 134 781 223 781 223 781 c 1
 223 781 223 684 223 684 c 1
 223 684 134 684 134 684 c 1
44 0 m 1xe8
 44 0 44 606 44 606 c 1
 44 606 157 606 157 606 c 1
 157 606 157 0 157 0 c 1
 157 0 44 0 44 0 c 1xe8
EndSplineSet
Position2: "'cpsp' Capital Spacing lookup 0 subtable" dx=5 dy=0 dh=10 dv=0
EndChar

StartChar: Idotaccent
Encoding: 304 304 51
Width: 202
GlyphClass: 2
Flags: MW
HStem: 0 21G<44 157 44 44> 586 20G<44 157 157 157> 679 102<54 149 54 149>
VStem: 44 113<0 606 0 606> 54 95<679 781 679 781>
LayerCount: 2
Back
Fore
SplineSet
54 781 m 1xe8
 54 781 149 781 149 781 c 1
 149 781 149 679 149 679 c 1
 149 679 54 679 54 679 c 1
 54 679 54 781 54 781 c 1xe8
44 606 m 1xf0
 44 606 157 606 157 606 c 1
 157 606 157 0 157 0 c 1
 157 0 44 0 44 0 c 1
 44 0 44 606 44 606 c 1xf0
EndSplineSet
Position2: "'cpsp' Capital Spacing lookup 0 subtable" dx=5 dy=0 dh=10 dv=0
EndChar

StartChar: Igrave
Encoding: 204 204 52
Width: 202
GlyphClass: 2
Flags: MW
HStem: 0 21G<44 44 44 157> 586 20G<44 157 157 157> 664 117<74 74 74 86 -20 162>
VStem: 44 113<0 606 0 606>
LayerCount: 2
Back
Fore
SplineSet
74 664 m 1
 74 664 -21 778 -21 778 c 1
 -21 778 -20 781 -20 781 c 1
 -20 781 86 781 86 781 c 1
 86 781 162 664 162 664 c 1
 162 664 74 664 74 664 c 1
44 0 m 1
 44 0 44 606 44 606 c 1
 44 606 157 606 157 606 c 1
 157 606 157 0 157 0 c 1
 157 0 44 0 44 0 c 1
EndSplineSet
Position2: "'cpsp' Capital Spacing lookup 0 subtable" dx=5 dy=0 dh=10 dv=0
EndChar

StartChar: Imacron
Encoding: 298 298 53
Width: 202
GlyphClass: 2
Flags: MW
HStem: 0 21G<44 157 44 44> 586 20G<44 157 157 157> 671 77<-12 214 -12 214>
VStem: 44 113<0 606 0 606>
LayerCount: 2
Back
Fore
SplineSet
-12 748 m 1
 -12 748 214 748 214 748 c 1
 214 748 214 671 214 671 c 1
 214 671 -12 671 -12 671 c 1
 -12 671 -12 748 -12 748 c 1
44 606 m 1
 44 606 157 606 157 606 c 1
 157 606 157 0 157 0 c 1
 157 0 44 0 44 0 c 1
 44 0 44 606 44 606 c 1
EndSplineSet
Position2: "'cpsp' Capital Spacing lookup 0 subtable" dx=5 dy=0 dh=10 dv=0
EndChar

StartChar: Iogonek
Encoding: 302 302 54
Width: 202
GlyphClass: 2
Flags: MW
HStem: -168 61<112 190> -156 21G<190 190> -156 49<171 190> 0 21G<44 83 44 44 157 157> 586 20G<44 157 157 157>
VStem: 44 113<-118.5 0 0 606>
LayerCount: 2
Back
Fore
SplineSet
157 0 m 1x5c
 148 -12 131 -37 131 -62 c 0
 131 -85 141 -107 171 -107 c 2
 171 -107 190 -107 190 -107 c 1x3c
 190 -107 190 -156 190 -156 c 1x5c
 170 -164 151 -168 132 -168 c 0
 92 -168 44 -149 44 -88 c 0x9c
 44 -47 62 -22 83 0 c 1
 83 0 44 0 44 0 c 1
 44 0 44 606 44 606 c 1
 44 606 157 606 157 606 c 1
 157 606 157 0 157 0 c 1x5c
EndSplineSet
Position2: "'cpsp' Capital Spacing lookup 0 subtable" dx=5 dy=0 dh=10 dv=0
EndChar

StartChar: Itilde
Encoding: 296 296 55
Width: 202
GlyphClass: 2
Flags: MW
HStem: 0 21G<44 157 44 44> 586 20G<44 157 157 157> 673 108<8 11 -48 50.5 191 194>
VStem: 44 113<0 606 0 606>
LayerCount: 2
Back
Fore
SplineSet
250 781 m 1
 250 732 225 673 163 673 c 0
 141 673 122 681 102 689 c 0
 84 697 66 705 46 705 c 0
 27 705 15 697 11 673 c 1
 11 673 -48 673 -48 673 c 1
 -48 721 -23 781 39 781 c 0
 62 781 81 772 101 764 c 0
 119 756 137 748 157 748 c 0
 176 748 187 756 191 781 c 1
 191 781 250 781 250 781 c 1
44 606 m 1
 44 606 157 606 157 606 c 1
 157 606 157 0 157 0 c 1
 157 0 44 0 44 0 c 1
 44 0 44 606 44 606 c 1
EndSplineSet
Position2: "'cpsp' Capital Spacing lookup 0 subtable" dx=5 dy=0 dh=10 dv=0
EndChar

StartChar: J
Encoding: 74 74 56
Width: 403
GlyphClass: 2
Flags: MW
HStem: -11 98<160 198 160 234> -11 202<8 234> 586 20G<237 350 350 350>
VStem: 8 112<144 153 153 191 131.5 191> 237 113<153 606>
AnchorPoint: "Anchor-1" 0 0 basechar 0
AnchorPoint: "Anchor-0" 202 606 basechar 0
LayerCount: 2
Back
Fore
SplineSet
350 144 m 2xb8
 350 43 289 -11 179 -11 c 0xb8
 70 -11 8 43 8 144 c 2
 8 144 8 191 8 191 c 1
 8 191 120 191 120 191 c 1x78
 120 191 120 153 120 153 c 2
 120 110 141 87 179 87 c 0
 217 87 237 110 237 153 c 2
 237 153 237 606 237 606 c 1
 237 606 350 606 350 606 c 1
 350 606 350 144 350 144 c 2xb8
EndSplineSet
Position2: "'cpsp' Capital Spacing lookup 0 subtable" dx=5 dy=0 dh=10 dv=0
EndChar

StartChar: Jcircumflex
Encoding: 308 308 57
Width: 403
GlyphClass: 2
Flags: MW
HStem: -11 98<160 198 160 234> -11 202<8 234> 586 20G<237 350 350 350> 661 120<262 265 186 349 345 349 262 423 345 345>
VStem: 8 112<144 153 153 191 131.5 191> 237 113<153 606>
LayerCount: 2
Back
Fore
SplineSet
345 661 m 1xbc
 345 661 305 722 305 722 c 1
 305 722 265 661 265 661 c 1
 265 661 186 661 186 661 c 1
 186 661 262 781 262 781 c 1
 262 781 349 781 349 781 c 1
 349 781 423 661 423 661 c 1
 423 661 345 661 345 661 c 1xbc
350 144 m 2
 350 43 289 -11 179 -11 c 0xbc
 70 -11 8 43 8 144 c 2
 8 144 8 191 8 191 c 1
 8 191 120 191 120 191 c 1x7c
 120 191 120 153 120 153 c 2
 120 110 141 87 179 87 c 0
 217 87 237 110 237 153 c 2
 237 153 237 606 237 606 c 1
 237 606 350 606 350 606 c 1
 350 606 350 144 350 144 c 2
EndSplineSet
Position2: "'cpsp' Capital Spacing lookup 0 subtable" dx=5 dy=0 dh=10 dv=0
EndChar

StartChar: K
Encoding: 75 75 58
Width: 523
GlyphClass: 2
Flags: MW
HStem: 0 21G<53 167 53 53 393 521 393 393> 586 20G<53 167 167 167 389 515 515 515>
VStem: 53 114<0 155 296 606>
AnchorPoint: "Anchor-1" 262 0 basechar 0
AnchorPoint: "Anchor-0" 262 606 basechar 0
LayerCount: 2
Back
Fore
SplineSet
515 606 m 1
 515 606 336 360 336 360 c 1
 336 360 521 0 521 0 c 1
 521 0 393 0 393 0 c 1
 393 0 262 271 262 271 c 1
 262 271 167 155 167 155 c 1
 167 155 167 0 167 0 c 1
 167 0 53 0 53 0 c 1
 53 0 53 606 53 606 c 1
 53 606 167 606 167 606 c 1
 167 606 167 296 167 296 c 1
 167 296 389 606 389 606 c 1
 389 606 515 606 515 606 c 1
EndSplineSet
Position2: "'cpsp' Capital Spacing lookup 0 subtable" dx=5 dy=0 dh=10 dv=0
EndChar

StartChar: Kcommaaccent
Encoding: 310 310 59
Width: 523
GlyphClass: 2
Flags: MW
HStem: -157 108<207 250 207 316> 0 21G<53 167 53 53 393 521 393 393> 586 20G<53 167 167 167 389 515 515 515>
VStem: 53 114<0 155 296 606> 207 109<-148 -49 -148 -49 -148 -49>
LayerCount: 2
Back
Fore
SplineSet
515 606 m 1
 515 606 336 360 336 360 c 1
 336 360 521 0 521 0 c 1
 521 0 393 0 393 0 c 1
 393 0 262 271 262 271 c 1
 262 271 167 155 167 155 c 1
 167 155 167 0 167 0 c 1
 167 0 53 0 53 0 c 1
 53 0 53 606 53 606 c 1
 53 606 167 606 167 606 c 1
 167 606 167 296 167 296 c 1
 167 296 389 606 389 606 c 1
 389 606 515 606 515 606 c 1
219 -232 m 1
 219 -232 250 -157 250 -157 c 1
 250 -157 207 -157 207 -157 c 1
 207 -157 207 -49 207 -49 c 1
 207 -49 316 -49 316 -49 c 1
 316 -49 316 -148 316 -148 c 1
 316 -148 276 -232 276 -232 c 1
 276 -232 219 -232 219 -232 c 1
EndSplineSet
Position2: "'cpsp' Capital Spacing lookup 0 subtable" dx=5 dy=0 dh=10 dv=0
EndChar

StartChar: L
Encoding: 76 76 60
Width: 443
GlyphClass: 2
Flags: MW
HStem: 0 106<166 423 166 423> 586 20G<53 166 166 166>
VStem: 53 113<106 606 106 606 106 606>
AnchorPoint: "Anchor-1" 222 0 basechar 0
AnchorPoint: "Anchor-0" 222 606 basechar 0
LayerCount: 2
Back
Fore
SplineSet
423 106 m 1
 423 106 423 0 423 0 c 1
 423 0 53 0 53 0 c 1
 53 0 53 606 53 606 c 1
 53 606 166 606 166 606 c 1
 166 606 166 106 166 106 c 1
 166 106 423 106 423 106 c 1
EndSplineSet
Position2: "'cpsp' Capital Spacing lookup 0 subtable" dx=5 dy=0 dh=10 dv=0
EndChar

StartChar: Lacute
Encoding: 313 313 61
Width: 443
GlyphClass: 2
Flags: MW
HStem: 0 106<166 423 166 423> 586 20G<53 166 166 166> 664 117<127 139 51 233>
VStem: 53 113<106 606 106 606 106 606>
LayerCount: 2
Back
Fore
SplineSet
139 664 m 1
 139 664 51 664 51 664 c 1
 51 664 127 781 127 781 c 1
 127 781 233 781 233 781 c 1
 233 781 234 778 234 778 c 1
 234 778 139 664 139 664 c 1
423 106 m 1
 423 106 423 0 423 0 c 1
 423 0 53 0 53 0 c 1
 53 0 53 606 53 606 c 1
 53 606 166 606 166 606 c 1
 166 606 166 106 166 106 c 1
 166 106 423 106 423 106 c 1
EndSplineSet
Position2: "'cpsp' Capital Spacing lookup 0 subtable" dx=5 dy=0 dh=10 dv=0
EndChar

StartChar: Lcaron
Encoding: 317 317 62
Width: 443
GlyphClass: 2
Flags: MW
HStem: 0 106<166 423 166 423> 485 121<301 349>
VStem: 53 113<106 606 106 606 106 606> 301 122<496 606>
LayerCount: 2
Back
Fore
SplineSet
423 106 m 1
 423 106 423 0 423 0 c 1
 423 0 53 0 53 0 c 1
 53 0 53 606 53 606 c 1
 53 606 166 606 166 606 c 1
 166 606 166 106 166 106 c 1
 166 106 423 106 423 106 c 1
364 347 m 1
 364 347 301 347 301 347 c 1
 301 347 349 485 349 485 c 1
 349 485 301 485 301 485 c 1
 301 485 301 606 301 606 c 1
 301 606 423 606 423 606 c 1
 423 606 423 496 423 496 c 1
 423 496 364 347 364 347 c 1
EndSplineSet
Position2: "'cpsp' Capital Spacing lookup 0 subtable" dx=5 dy=0 dh=10 dv=0
EndChar

StartChar: Lcommaaccent
Encoding: 315 315 63
Width: 443
GlyphClass: 2
Flags: MW
HStem: -157 108<167 210 167 276> 0 106<166 423 166 423> 586 20G<53 166 166 166>
VStem: 53 113<106 606 106 606 106 606> 167 109<-148 -49 -148 -49 -148 -49>
LayerCount: 2
Back
Fore
SplineSet
423 106 m 1
 423 106 423 0 423 0 c 1
 423 0 53 0 53 0 c 1
 53 0 53 606 53 606 c 1
 53 606 166 606 166 606 c 1
 166 606 166 106 166 106 c 1
 166 106 423 106 423 106 c 1
236 -232 m 1xe8
 236 -232 179 -232 179 -232 c 1
 179 -232 210 -157 210 -157 c 1
 210 -157 167 -157 167 -157 c 1
 167 -157 167 -49 167 -49 c 1
 167 -49 276 -49 276 -49 c 1
 276 -49 276 -148 276 -148 c 1
 276 -148 236 -232 236 -232 c 1xe8
EndSplineSet
Position2: "'cpsp' Capital Spacing lookup 0 subtable" dx=5 dy=0 dh=10 dv=0
EndChar

StartChar: Ldot
Encoding: 319 319 64
Width: 443
GlyphClass: 2
Flags: MW
HStem: 0 106<166 423 166 423> 362 101<277 371 277 371> 586 20G<53 166 166 166>
VStem: 53 113<106 606 106 606 106 606> 277 94<362 463 362 463>
LayerCount: 2
Back
Fore
SplineSet
423 106 m 1
 423 106 423 0 423 0 c 1
 423 0 53 0 53 0 c 1
 53 0 53 606 53 606 c 1
 53 606 166 606 166 606 c 1
 166 606 166 106 166 106 c 1
 166 106 423 106 423 106 c 1
277 362 m 1
 277 362 277 463 277 463 c 1
 277 463 371 463 371 463 c 1
 371 463 371 362 371 362 c 1
 371 362 277 362 277 362 c 1
EndSplineSet
Ligature2: "Ligature Substitution lookup 32 subtable" L periodcentered
Position2: "'cpsp' Capital Spacing lookup 0 subtable" dx=5 dy=0 dh=10 dv=0
EndChar

StartChar: Lslash
Encoding: 321 321 65
Width: 443
GlyphClass: 2
Flags: MW
HStem: 0 106<166 423 166 423> 586 20G<53 166 166 166>
VStem: 53 113<106 210 210 210 293 309 106 394 394 606>
LayerCount: 2
Back
Fore
SplineSet
269 486 m 1
 269 486 269 400 269 400 c 1
 269 400 166 309 166 309 c 1
 166 309 166 106 166 106 c 1
 166 106 423 106 423 106 c 1
 423 106 423 0 423 0 c 1
 423 0 53 0 53 0 c 1
 53 0 53 210 53 210 c 1
 53 210 0 163 0 163 c 1
 0 163 0 247 0 247 c 1
 0 247 53 293 53 293 c 1
 53 293 53 606 53 606 c 1
 53 606 166 606 166 606 c 1
 166 606 166 394 166 394 c 1
 166 394 269 486 269 486 c 1
EndSplineSet
Position2: "'cpsp' Capital Spacing lookup 0 subtable" dx=5 dy=0 dh=10 dv=0
EndChar

StartChar: M
Encoding: 77 77 66
Width: 604
GlyphClass: 2
Flags: MW
HStem: 0 21G<47 143 47 47 249 347 249 249 453 557 453 453> 0 135<305 309 305 347 249 309> 484 122<139 142 139 139 453 457 453 453>
VStem: 47 96<0 386 0 606> 453 104<0 386 386 400 484 484>
LayerCount: 2
Back
Fore
SplineSet
453 0 m 1xb8
 453 0 453 386 453 386 c 2
 453 414 457 484 457 484 c 1
 457 484 453 484 453 484 c 1
 451 476 450 469 448 461 c 0
 445 446 442 430 438 415 c 2
 438 415 347 0 347 0 c 1
 347 0 249 0 249 0 c 1
 249 0 164 389 164 389 c 2
 156 421 149 452 142 484 c 1
 142 484 139 484 139 484 c 1
 139 484 143 410 143 386 c 2
 143 386 143 0 143 0 c 1
 143 0 47 0 47 0 c 1
 47 0 47 606 47 606 c 1
 47 606 206 606 206 606 c 1
 206 606 281 272 281 272 c 2
 290 232 305 135 305 135 c 1
 305 135 309 135 309 135 c 1x78
 309 135 321 237 329 272 c 2
 329 272 403 606 403 606 c 1
 403 606 557 606 557 606 c 1
 557 606 557 0 557 0 c 1
 557 0 453 0 453 0 c 1xb8
EndSplineSet
Position2: "'cpsp' Capital Spacing lookup 0 subtable" dx=5 dy=0 dh=10 dv=0
EndChar

StartChar: N
Encoding: 78 78 67
Width: 523
GlyphClass: 2
Flags: MW
HStem: 0 21G<53 153 53 53 370 470 370 370> 586 20G<53 153 153 153 370 470 470 470>
VStem: 53 100<0 338 0 606> 370 100<0 606 218 269 269 606 0 606>
AnchorPoint: "Anchor-1" 262 0 basechar 0
AnchorPoint: "Anchor-0" 262 606 basechar 0
LayerCount: 2
Back
Fore
SplineSet
370 0 m 1
 370 0 182 334 182 334 c 2
 175 347 155 391 155 391 c 1
 155 391 151 388 151 388 c 1
 151 388 153 354 153 338 c 2
 153 338 153 0 153 0 c 1
 153 0 53 0 53 0 c 1
 53 0 53 606 53 606 c 1
 53 606 153 606 153 606 c 1
 153 606 340 272 340 272 c 2
 350 257 368 216 368 216 c 1
 368 216 370 218 370 218 c 1
 370 218 370 269 370 269 c 1
 370 269 370 606 370 606 c 1
 370 606 470 606 470 606 c 1
 470 606 470 0 470 0 c 1
 470 0 370 0 370 0 c 1
EndSplineSet
Position2: "'cpsp' Capital Spacing lookup 0 subtable" dx=5 dy=0 dh=10 dv=0
EndChar

StartChar: Nacute
Encoding: 323 323 68
Width: 523
GlyphClass: 2
Flags: MW
HStem: 0 21G<53 153 53 53 370 470 370 370> 586 20G<53 153 153 153 370 470 470 470> 664 117<277 288 201 383>
VStem: 53 100<0 338 0 606> 370 100<0 606 218 269 269 606 0 606>
LayerCount: 2
Back
Fore
SplineSet
288 664 m 1
 288 664 201 664 201 664 c 1
 201 664 277 781 277 781 c 1
 277 781 383 781 383 781 c 1
 383 781 384 778 384 778 c 1
 384 778 288 664 288 664 c 1
370 0 m 1
 370 0 182 334 182 334 c 2
 175 347 155 391 155 391 c 1
 155 391 151 388 151 388 c 1
 151 388 153 354 153 338 c 2
 153 338 153 0 153 0 c 1
 153 0 53 0 53 0 c 1
 53 0 53 606 53 606 c 1
 53 606 153 606 153 606 c 1
 153 606 340 272 340 272 c 2
 350 257 368 216 368 216 c 1
 368 216 370 218 370 218 c 1
 370 218 370 269 370 269 c 1
 370 269 370 606 370 606 c 1
 370 606 470 606 470 606 c 1
 470 606 470 0 470 0 c 1
 470 0 370 0 370 0 c 1
EndSplineSet
Position2: "'cpsp' Capital Spacing lookup 0 subtable" dx=5 dy=0 dh=10 dv=0
EndChar

StartChar: Ncaron
Encoding: 327 327 69
Width: 523
GlyphClass: 2
Flags: MW
HStem: 0 21G<53 153 53 53 370 470 370 370> 586 20G<53 153 153 153 370 470 470 470> 661 120<219 219 219 222 301 306>
VStem: 53 100<0 338 0 606> 370 100<0 606 218 269 269 606 0 606>
LayerCount: 2
Back
Fore
SplineSet
219 661 m 1
 219 661 143 781 143 781 c 1
 143 781 222 781 222 781 c 1
 222 781 262 720 262 720 c 1
 262 720 301 781 301 781 c 1
 301 781 381 781 381 781 c 1
 381 781 306 661 306 661 c 1
 306 661 219 661 219 661 c 1
370 0 m 1
 370 0 182 334 182 334 c 2
 175 347 155 391 155 391 c 1
 155 391 151 388 151 388 c 1
 151 388 153 354 153 338 c 2
 153 338 153 0 153 0 c 1
 153 0 53 0 53 0 c 1
 53 0 53 606 53 606 c 1
 53 606 153 606 153 606 c 1
 153 606 340 272 340 272 c 2
 350 257 368 216 368 216 c 1
 368 216 370 218 370 218 c 1
 370 218 370 269 370 269 c 1
 370 269 370 606 370 606 c 1
 370 606 470 606 470 606 c 1
 470 606 470 0 470 0 c 1
 470 0 370 0 370 0 c 1
EndSplineSet
Position2: "'cpsp' Capital Spacing lookup 0 subtable" dx=5 dy=0 dh=10 dv=0
EndChar

StartChar: Ncommaaccent
Encoding: 325 325 70
Width: 523
GlyphClass: 2
Flags: MW
HStem: -157 108<207 250 207 316> 0 21G<53 153 53 53 370 470 370 370> 586 20G<53 153 153 153 370 470 470 470>
VStem: 53 100<0 338 0 606> 207 109<-148 -49 -148 -49 -148 -49> 370 100<0 606 218 269 269 606 0 606>
LayerCount: 2
Back
Fore
SplineSet
370 0 m 1
 370 0 182 334 182 334 c 2
 175 347 155 391 155 391 c 1
 155 391 151 388 151 388 c 1
 151 388 153 354 153 338 c 2
 153 338 153 0 153 0 c 1
 153 0 53 0 53 0 c 1
 53 0 53 606 53 606 c 1
 53 606 153 606 153 606 c 1
 153 606 340 272 340 272 c 2
 350 257 368 216 368 216 c 1
 368 216 370 218 370 218 c 1
 370 218 370 269 370 269 c 1
 370 269 370 606 370 606 c 1
 370 606 470 606 470 606 c 1
 470 606 470 0 470 0 c 1
 470 0 370 0 370 0 c 1
276 -232 m 1
 276 -232 219 -232 219 -232 c 1
 219 -232 250 -157 250 -157 c 1
 250 -157 207 -157 207 -157 c 1
 207 -157 207 -49 207 -49 c 1
 207 -49 316 -49 316 -49 c 1
 316 -49 316 -148 316 -148 c 1
 316 -148 276 -232 276 -232 c 1
EndSplineSet
Position2: "'cpsp' Capital Spacing lookup 0 subtable" dx=5 dy=0 dh=10 dv=0
EndChar

StartChar: Eng
Encoding: 330 330 71
Width: 524
GlyphClass: 2
Flags: MW
HStem: -161 89<286 404.5> 0 21G<53 153 53 53 367 367> 586 20G<53 153 153 153 370 470 470 470>
VStem: 53 100<0 338 0 606> 370 100<218 269 269 606>
LayerCount: 2
Back
Fore
SplineSet
470 -36 m 2
 470 -98 447 -161 362 -161 c 0
 336 -161 304 -156 286 -150 c 1
 286 -150 286 -72 286 -72 c 1
 286 -72 325 -72 325 -72 c 2
 353 -72 367 -57 367 -29 c 2
 367 -29 367 0 367 0 c 1
 367 0 182 334 182 334 c 2
 175 347 155 391 155 391 c 1
 155 391 151 388 151 388 c 1
 151 388 153 354 153 338 c 2
 153 338 153 0 153 0 c 1
 153 0 53 0 53 0 c 1
 53 0 53 606 53 606 c 1
 53 606 153 606 153 606 c 1
 153 606 340 272 340 272 c 2
 350 257 368 216 368 216 c 1
 368 216 370 218 370 218 c 1
 370 218 370 269 370 269 c 1
 370 269 370 606 370 606 c 1
 370 606 470 606 470 606 c 1
 470 606 470 -36 470 -36 c 2
EndSplineSet
Position2: "'cpsp' Capital Spacing lookup 0 subtable" dx=5 dy=0 dh=10 dv=0
EndChar

StartChar: Ntilde
Encoding: 209 209 72
Width: 523
GlyphClass: 2
Flags: MW
HStem: 0 21G<53 153 53 53 370 470 370 370> 586 20G<53 153 153 153 370 470 470 470> 673 108<169 171 113 211 352 354>
VStem: 53 100<0 338 0 606> 370 100<0 606 218 269 269 606 0 606>
LayerCount: 2
Back
Fore
SplineSet
410 781 m 1
 410 732 385 673 323 673 c 0
 301 673 282 681 262 689 c 0
 244 697 226 705 206 705 c 0
 187 705 175 697 171 673 c 1
 171 673 113 673 113 673 c 1
 113 721 138 781 200 781 c 0
 222 781 242 772 261 764 c 0
 280 756 298 748 317 748 c 0
 336 748 348 756 352 781 c 1
 352 781 410 781 410 781 c 1
370 0 m 1
 370 0 182 334 182 334 c 2
 175 347 155 391 155 391 c 1
 155 391 151 388 151 388 c 1
 151 388 153 354 153 338 c 2
 153 338 153 0 153 0 c 1
 153 0 53 0 53 0 c 1
 53 0 53 606 53 606 c 1
 53 606 153 606 153 606 c 1
 153 606 340 272 340 272 c 2
 350 257 368 216 368 216 c 1
 368 216 370 218 370 218 c 1
 370 218 370 269 370 269 c 1
 370 269 370 606 370 606 c 1
 370 606 470 606 470 606 c 1
 470 606 470 0 470 0 c 1
 470 0 370 0 370 0 c 1
EndSplineSet
Position2: "'cpsp' Capital Spacing lookup 0 subtable" dx=5 dy=0 dh=10 dv=0
EndChar

StartChar: O
Encoding: 79 79 73
Width: 564
GlyphClass: 2
Flags: MW
HStem: -11 98<237 327 237 360> 520 97<237 327>
VStem: 30 117<220.5 281 281 325 220.5 410> 417 117<281 325 325 385.5>
AnchorPoint: "Anchor-1" 0 0 basechar 0
AnchorPoint: "Anchor-0" 282 606 basechar 0
LayerCount: 2
Back
Fore
SplineSet
282 617 m 0
 438 617 534 517 534 303 c 0
 534 89 438 -11 282 -11 c 0
 126 -11 30 89 30 303 c 0
 30 517 126 617 282 617 c 0
282 520 m 0
 192 520 147 446 147 325 c 2
 147 325 147 281 147 281 c 2
 147 160 192 87 282 87 c 0
 372 87 417 160 417 281 c 2
 417 281 417 325 417 325 c 2
 417 446 372 520 282 520 c 0
EndSplineSet
Substitution2: "Single Substitution lookup 33 subtable" ordmasculine
Substitution2: "'aalt' Access All Alternates lookup 0 subtable" ordmasculine
Position2: "'cpsp' Capital Spacing lookup 0 subtable" dx=5 dy=0 dh=10 dv=0
EndChar

StartChar: Oacute
Encoding: 211 211 74
Width: 564
GlyphClass: 2
Flags: MW
HStem: -11 98<237 327 237 360> 520 97<237 327> 664 117<297 309 221 404>
VStem: 30 117<220.5 281 281 325 220.5 410> 417 117<281 325 325 385.5>
LayerCount: 2
Back
Fore
SplineSet
309 664 m 1
 309 664 221 664 221 664 c 1
 221 664 297 781 297 781 c 1
 297 781 404 781 404 781 c 1
 404 781 405 778 405 778 c 1
 405 778 309 664 309 664 c 1
282 617 m 0
 438 617 534 517 534 303 c 0
 534 89 438 -11 282 -11 c 0
 126 -11 30 89 30 303 c 0
 30 517 126 617 282 617 c 0
282 520 m 0
 192 520 147 446 147 325 c 2
 147 325 147 281 147 281 c 2
 147 160 192 87 282 87 c 0
 372 87 417 160 417 281 c 2
 417 281 417 325 417 325 c 2
 417 446 372 520 282 520 c 0
EndSplineSet
Position2: "'cpsp' Capital Spacing lookup 0 subtable" dx=5 dy=0 dh=10 dv=0
EndChar

StartChar: Obreve
Encoding: 334 334 75
Width: 564
GlyphClass: 2
Flags: MW
HStem: -11 98<237 327 237 360> 520 97<237 327> 686 95<164 318.5>
VStem: 30 117<220.5 281 281 325 220.5 410> 417 117<281 325 325 385.5>
LayerCount: 2
Back
Fore
SplineSet
400 781 m 1
 400 736 355 686 282 686 c 0
 210 686 164 736 164 781 c 1
 164 781 230 781 230 781 c 1
 232 768 253 751 282 751 c 0
 312 751 333 768 335 781 c 1
 335 781 400 781 400 781 c 1
282 617 m 0
 438 617 534 517 534 303 c 0
 534 89 438 -11 282 -11 c 0
 126 -11 30 89 30 303 c 0
 30 517 126 617 282 617 c 0
282 520 m 0
 192 520 147 446 147 325 c 2
 147 325 147 281 147 281 c 2
 147 160 192 87 282 87 c 0
 372 87 417 160 417 281 c 2
 417 281 417 325 417 325 c 2
 417 446 372 520 282 520 c 0
EndSplineSet
Position2: "'cpsp' Capital Spacing lookup 0 subtable" dx=5 dy=0 dh=10 dv=0
EndChar

StartChar: Ocircumflex
Encoding: 212 212 76
Width: 564
GlyphClass: 2
Flags: MW
HStem: -11 98<237 327 237 360> 520 97<237 327> 661 120<240 243 164 326 322 322 322 326 240 401>
VStem: 30 117<220.5 281 281 325 220.5 410> 417 117<281 325 325 385.5>
LayerCount: 2
Back
Fore
SplineSet
283 722 m 1
 283 722 243 661 243 661 c 1
 243 661 164 661 164 661 c 1
 164 661 240 781 240 781 c 1
 240 781 326 781 326 781 c 1
 326 781 401 661 401 661 c 1
 401 661 322 661 322 661 c 1
 322 661 283 722 283 722 c 1
282 617 m 0
 438 617 534 517 534 303 c 0
 534 89 438 -11 282 -11 c 0
 126 -11 30 89 30 303 c 0
 30 517 126 617 282 617 c 0
282 520 m 0
 192 520 147 446 147 325 c 2
 147 325 147 281 147 281 c 2
 147 160 192 87 282 87 c 0
 372 87 417 160 417 281 c 2
 417 281 417 325 417 325 c 2
 417 446 372 520 282 520 c 0
EndSplineSet
Position2: "'cpsp' Capital Spacing lookup 0 subtable" dx=5 dy=0 dh=10 dv=0
EndChar

StartChar: Odieresis
Encoding: 214 214 77
Width: 564
GlyphClass: 2
Flags: MW
HStem: -11 98<237 327 237 360> 520 97<237 327> 684 97<161 249 161 249 316 404 161 316>
VStem: 30 117<220.5 281 281 325 220.5 410> 161 88<684 781 684 781> 316 88<684 781 684 781> 417 117<281 325 325 385.5>
LayerCount: 2
Back
Fore
SplineSet
161 684 m 1
 161 684 161 781 161 781 c 1
 161 781 249 781 249 781 c 1
 249 781 249 684 249 684 c 1
 249 684 161 684 161 684 c 1
316 684 m 1
 316 684 316 781 316 781 c 1
 316 781 404 781 404 781 c 1
 404 781 404 684 404 684 c 1
 404 684 316 684 316 684 c 1
282 617 m 0xf2
 438 617 534 517 534 303 c 0
 534 89 438 -11 282 -11 c 0
 126 -11 30 89 30 303 c 0
 30 517 126 617 282 617 c 0xf2
282 520 m 0
 192 520 147 446 147 325 c 2
 147 325 147 281 147 281 c 2
 147 160 192 87 282 87 c 0
 372 87 417 160 417 281 c 2
 417 281 417 325 417 325 c 2
 417 446 372 520 282 520 c 0
EndSplineSet
Position2: "'cpsp' Capital Spacing lookup 0 subtable" dx=5 dy=0 dh=10 dv=0
EndChar

StartChar: Ograve
Encoding: 210 210 78
Width: 564
GlyphClass: 2
Flags: MW
HStem: -11 98<237 327 237 360> 520 97<237 327> 664 117<255 255 255 267 161 343>
VStem: 30 117<220.5 281 281 325 220.5 410> 417 117<281 325 325 385.5>
LayerCount: 2
Back
Fore
SplineSet
255 664 m 1
 255 664 160 778 160 778 c 1
 160 778 161 781 161 781 c 1
 161 781 267 781 267 781 c 1
 267 781 343 664 343 664 c 1
 343 664 255 664 255 664 c 1
282 617 m 0
 438 617 534 517 534 303 c 0
 534 89 438 -11 282 -11 c 0
 126 -11 30 89 30 303 c 0
 30 517 126 617 282 617 c 0
282 520 m 0
 192 520 147 446 147 325 c 2
 147 325 147 281 147 281 c 2
 147 160 192 87 282 87 c 0
 372 87 417 160 417 281 c 2
 417 281 417 325 417 325 c 2
 417 446 372 520 282 520 c 0
EndSplineSet
Position2: "'cpsp' Capital Spacing lookup 0 subtable" dx=5 dy=0 dh=10 dv=0
EndChar

StartChar: Ohungarumlaut
Encoding: 336 336 79
Width: 564
GlyphClass: 2
Flags: MW
HStem: -11 98<237 327 237 360> 520 97<237 327> 664 117<238 253 183 326 307 307 307 326 362 377>
VStem: 30 117<220.5 281 281 325 220.5 410> 417 117<281 325 325 385.5>
LayerCount: 2
Back
Fore
SplineSet
253 664 m 1
 253 664 183 664 183 664 c 1
 183 664 238 781 238 781 c 1
 238 781 326 781 326 781 c 1
 326 781 327 778 327 778 c 1
 327 778 253 664 253 664 c 1
377 664 m 1
 377 664 307 664 307 664 c 1
 307 664 362 781 362 781 c 1
 362 781 450 781 450 781 c 1
 450 781 451 778 451 778 c 1
 451 778 377 664 377 664 c 1
282 617 m 0
 438 617 534 517 534 303 c 0
 534 89 438 -11 282 -11 c 0
 126 -11 30 89 30 303 c 0
 30 517 126 617 282 617 c 0
282 520 m 0
 192 520 147 446 147 325 c 2
 147 325 147 281 147 281 c 2
 147 160 192 87 282 87 c 0
 372 87 417 160 417 281 c 2
 417 281 417 325 417 325 c 2
 417 446 372 520 282 520 c 0
EndSplineSet
Position2: "'cpsp' Capital Spacing lookup 0 subtable" dx=5 dy=0 dh=10 dv=0
EndChar

StartChar: Omacron
Encoding: 332 332 80
Width: 564
GlyphClass: 2
Flags: MW
HStem: -11 98<237 327 237 360> 520 97<237 327> 671 77<170 395 170 395>
VStem: 30 117<220.5 281 281 325 220.5 410> 170 225<671 748 671 748> 417 117<281 325 325 385.5>
LayerCount: 2
Back
Fore
SplineSet
170 748 m 1
 170 748 395 748 395 748 c 1
 395 748 395 671 395 671 c 1
 395 671 170 671 170 671 c 1
 170 671 170 748 170 748 c 1
282 617 m 0xf4
 438 617 534 517 534 303 c 0
 534 89 438 -11 282 -11 c 0
 126 -11 30 89 30 303 c 0
 30 517 126 617 282 617 c 0xf4
282 520 m 0
 192 520 147 446 147 325 c 2
 147 325 147 281 147 281 c 2
 147 160 192 87 282 87 c 0
 372 87 417 160 417 281 c 2
 417 281 417 325 417 325 c 2
 417 446 372 520 282 520 c 0
EndSplineSet
Position2: "'cpsp' Capital Spacing lookup 0 subtable" dx=5 dy=0 dh=10 dv=0
EndChar

StartChar: Oslash
Encoding: 216 216 81
Width: 564
GlyphClass: 2
Flags: MW
HStem: -11 98<265.5 327 265.5 360> 520 97<237 298.5> 539 100<467 467>
VStem: 30 117<260 281 281 325 260 410> 417 117<281 325 325 346>
AnchorPoint: "Anchor-1" 0 0 basechar 0
AnchorPoint: "Anchor-0" 282 606 basechar 0
LayerCount: 2
Back
Fore
SplineSet
467 539 m 1xb8
 510 488 534 409 534 303 c 0
 534 89 438 -11 282 -11 c 0
 229 -11 183 1 145 24 c 1
 145 24 110 -33 110 -33 c 1
 110 -33 35 -33 35 -33 c 1
 35 -33 97 66 97 66 c 1
 54 118 30 196 30 303 c 0
 30 517 126 617 282 617 c 0
 335 617 381 606 419 582 c 1xd8
 419 582 455 639 455 639 c 1
 455 639 530 639 530 639 c 1
 530 639 467 539 467 539 c 1xb8
282 520 m 0xd8
 192 520 147 446 147 325 c 2
 147 325 147 281 147 281 c 2
 147 239 152 202 163 171 c 1
 163 171 362 492 362 492 c 1
 342 510 315 520 282 520 c 0xd8
202 114 m 1
 222 96 249 87 282 87 c 0
 372 87 417 160 417 281 c 2
 417 281 417 325 417 325 c 2
 417 367 412 404 400 433 c 1
 400 433 202 114 202 114 c 1
EndSplineSet
Position2: "'cpsp' Capital Spacing lookup 0 subtable" dx=5 dy=0 dh=10 dv=0
EndChar

StartChar: Oslashacute
Encoding: 510 510 82
Width: 564
GlyphClass: 2
Flags: MW
HStem: -11 98<265.5 327 265.5 360> 520 97<237 298.5> 539 100<467 467> 664 117<297 309 221 404>
VStem: 30 117<260 281 281 325 260 410> 417 117<281 325 325 346>
LayerCount: 2
Back
Fore
SplineSet
309 664 m 1xdc
 309 664 221 664 221 664 c 1
 221 664 297 781 297 781 c 1
 297 781 404 781 404 781 c 1
 404 781 405 778 405 778 c 1
 405 778 309 664 309 664 c 1xdc
467 539 m 1xbc
 510 488 534 409 534 303 c 0
 534 89 438 -11 282 -11 c 0
 229 -11 183 1 145 24 c 1
 145 24 110 -33 110 -33 c 1
 110 -33 35 -33 35 -33 c 1
 35 -33 97 66 97 66 c 1
 54 118 30 196 30 303 c 0
 30 517 126 617 282 617 c 0
 335 617 381 606 419 582 c 1xdc
 419 582 455 639 455 639 c 1
 455 639 530 639 530 639 c 1
 530 639 467 539 467 539 c 1xbc
282 520 m 0xdc
 192 520 147 446 147 325 c 2
 147 325 147 281 147 281 c 2
 147 239 152 202 163 171 c 1
 163 171 362 492 362 492 c 1
 342 510 315 520 282 520 c 0xdc
202 114 m 1
 222 96 249 87 282 87 c 0
 372 87 417 160 417 281 c 2
 417 281 417 325 417 325 c 2
 417 367 412 404 400 433 c 1
 400 433 202 114 202 114 c 1
EndSplineSet
Position2: "'cpsp' Capital Spacing lookup 0 subtable" dx=5 dy=0 dh=10 dv=0
EndChar

StartChar: Otilde
Encoding: 213 213 83
Width: 564
GlyphClass: 2
Flags: MW
HStem: -11 98<237 327 237 360> 520 97<237 327> 673 108<190 193 133 232 372 375>
VStem: 30 117<220.5 281 281 325 220.5 410> 372 59<756.5 781> 417 117<281 325 325 385.5>
LayerCount: 2
Back
Fore
SplineSet
431 781 m 1xf8
 431 732 406 673 344 673 c 0
 322 673 303 681 283 689 c 0
 265 697 247 705 227 705 c 0
 208 705 196 697 193 673 c 1
 193 673 133 673 133 673 c 1
 133 721 159 781 221 781 c 0
 243 781 262 773 281 764 c 0
 300 756 319 748 339 748 c 0
 357 748 369 756 372 781 c 1
 372 781 431 781 431 781 c 1xf8
282 617 m 0xf4
 438 617 534 517 534 303 c 0
 534 89 438 -11 282 -11 c 0
 126 -11 30 89 30 303 c 0
 30 517 126 617 282 617 c 0xf4
282 520 m 0
 192 520 147 446 147 325 c 2
 147 325 147 281 147 281 c 2
 147 160 192 87 282 87 c 0
 372 87 417 160 417 281 c 2
 417 281 417 325 417 325 c 2
 417 446 372 520 282 520 c 0
EndSplineSet
Position2: "'cpsp' Capital Spacing lookup 0 subtable" dx=5 dy=0 dh=10 dv=0
EndChar

StartChar: OE
Encoding: 338 338 84
Width: 725
GlyphClass: 2
Flags: MW
HStem: -11 98<215 255> 0 101<474 700 474 700> 260 101<474 656 474 656> 506 100<474 694 474 474> 520 97<215 255 165.5 287.5>
VStem: 27 116<211.5 281 281 325 211.5 410> 360 114<101 325 361 394.5>
AnchorPoint: "Anchor-1" 0 0 basechar 0
AnchorPoint: "Anchor-0" 362 606 basechar 0
LayerCount: 2
Back
Fore
SplineSet
228 617 m 0xae
 282 617 327 596 361 552 c 1x6e
 361 552 361 606 361 606 c 1
 361 606 694 606 694 606 c 1
 694 606 694 506 694 506 c 1
 694 506 474 506 474 506 c 1
 474 506 474 361 474 361 c 1
 474 361 656 361 656 361 c 1
 656 361 656 260 656 260 c 1
 656 260 474 260 474 260 c 1
 474 260 474 101 474 101 c 1
 474 101 700 101 700 101 c 1
 700 101 700 0 700 0 c 1
 700 0 361 0 361 0 c 1x76
 361 0 361 54 361 54 c 1
 327 10 282 -11 228 -11 c 0
 103 -11 27 89 27 303 c 0
 27 517 103 617 228 617 c 0xae
251 520 m 0
 179 520 143 464 143 325 c 2
 143 325 143 281 143 281 c 2
 143 142 179 87 251 87 c 0
 324 87 360 142 360 281 c 2
 360 281 360 325 360 325 c 2
 360 464 324 520 251 520 c 0
EndSplineSet
Position2: "'cpsp' Capital Spacing lookup 0 subtable" dx=5 dy=0 dh=10 dv=0
EndChar

StartChar: P
Encoding: 80 80 85
Width: 484
GlyphClass: 2
Flags: MW
HStem: 0 21G<53 53 53 166> 235 100<166 258 258 270 166 258> 506 100<166 258 166 166>
VStem: 53 113<0 235 0 335 335 506> 343 117<396.5 449>
LayerCount: 2
Back
Fore
SplineSet
53 0 m 1
 53 0 53 606 53 606 c 1
 53 606 270 606 270 606 c 2
 395 606 460 530 460 424 c 0
 460 310 384 235 270 235 c 2
 270 235 166 235 166 235 c 1
 166 235 166 0 166 0 c 1
 166 0 53 0 53 0 c 1
258 335 m 2
 313 335 343 369 343 424 c 0
 343 474 312 506 258 506 c 2
 258 506 166 506 166 506 c 1
 166 506 166 335 166 335 c 1
 166 335 258 335 258 335 c 2
EndSplineSet
Position2: "'cpsp' Capital Spacing lookup 0 subtable" dx=5 dy=0 dh=10 dv=0
EndChar

StartChar: Thorn
Encoding: 222 222 86
Width: 484
GlyphClass: 2
Flags: MW
HStem: 0 21G<53 166 53 53> 127 100<166 258 258 270 166 258> 398 101<166 258 166 270> 586 20G<53 166 166 166>
VStem: 53 113<0 127 227 398 499 606> 343 117<288.5 341>
LayerCount: 2
Back
Fore
SplineSet
270 499 m 2
 395 499 460 422 460 316 c 0
 460 202 384 127 270 127 c 2
 270 127 166 127 166 127 c 1
 166 127 166 0 166 0 c 1
 166 0 53 0 53 0 c 1
 53 0 53 606 53 606 c 1
 53 606 166 606 166 606 c 1
 166 606 166 499 166 499 c 1
 166 499 270 499 270 499 c 2
166 227 m 1
 166 227 258 227 258 227 c 2
 313 227 343 261 343 316 c 0
 343 366 312 398 258 398 c 2
 258 398 166 398 166 398 c 1
 166 398 166 227 166 227 c 1
EndSplineSet
Position2: "'cpsp' Capital Spacing lookup 0 subtable" dx=5 dy=0 dh=10 dv=0
EndChar

StartChar: Q
Encoding: 81 81 87
Width: 564
GlyphClass: 2
Flags: MW
HStem: -11 98<237 282 282 293> 520 97<237 327>
VStem: 30 117<220.5 281 281 325 220.5 410> 417 117<281 325 325 385.5>
LayerCount: 2
Back
Fore
SplineSet
30 303 m 0
 30 517 126 617 282 617 c 0
 438 617 534 517 534 303 c 0
 534 151 485 57 402 15 c 1
 402 15 519 -110 519 -110 c 1
 519 -110 380 -110 380 -110 c 1
 380 -110 293 -11 293 -11 c 1
 293 -11 282 -11 282 -11 c 2
 126 -11 30 89 30 303 c 0
147 281 m 2
 147 160 192 87 282 87 c 0
 372 87 417 160 417 281 c 2
 417 281 417 325 417 325 c 2
 417 446 372 520 282 520 c 0
 192 520 147 446 147 325 c 2
 147 325 147 281 147 281 c 2
EndSplineSet
Position2: "'cpsp' Capital Spacing lookup 0 subtable" dx=5 dy=0 dh=10 dv=0
EndChar

StartChar: R
Encoding: 82 82 88
Width: 523
GlyphClass: 2
Flags: MW
HStem: 0 21G<53 166 53 53 385 507 385 385> 253 100<166 284 166 291> 506 100<166 295 166 166>
VStem: 53 113<0 253 353 506> 370 122<408 455>
AnchorPoint: "Anchor-1" 262 0 basechar 0
AnchorPoint: "Anchor-0" 262 606 basechar 0
LayerCount: 2
Back
Fore
SplineSet
307 606 m 2
 430 606 492 533 492 433 c 0
 492 360 453 303 391 278 c 1
 391 278 507 0 507 0 c 1
 507 0 385 0 385 0 c 1
 385 0 284 253 284 253 c 1
 284 253 166 253 166 253 c 1
 166 253 166 0 166 0 c 1
 166 0 53 0 53 0 c 1
 53 0 53 606 53 606 c 1
 53 606 307 606 307 606 c 2
166 353 m 1
 166 353 291 353 291 353 c 2
 346 353 370 383 370 433 c 0
 370 477 347 506 295 506 c 2
 295 506 166 506 166 506 c 1
 166 506 166 353 166 353 c 1
EndSplineSet
Position2: "'cpsp' Capital Spacing lookup 0 subtable" dx=5 dy=0 dh=10 dv=0
EndChar

StartChar: Racute
Encoding: 340 340 89
Width: 523
GlyphClass: 2
Flags: MW
HStem: 0 21G<53 166 53 53 385 507 385 385> 253 100<166 284 166 291> 506 100<166 295 166 166> 664 117<277 288 201 383>
VStem: 53 113<0 253 353 506> 370 122<408 455>
LayerCount: 2
Back
Fore
SplineSet
288 664 m 1
 288 664 201 664 201 664 c 1
 201 664 277 781 277 781 c 1
 277 781 383 781 383 781 c 1
 383 781 384 778 384 778 c 1
 384 778 288 664 288 664 c 1
307 606 m 2
 430 606 492 533 492 433 c 0
 492 360 453 303 391 278 c 1
 391 278 507 0 507 0 c 1
 507 0 385 0 385 0 c 1
 385 0 284 253 284 253 c 1
 284 253 166 253 166 253 c 1
 166 253 166 0 166 0 c 1
 166 0 53 0 53 0 c 1
 53 0 53 606 53 606 c 1
 53 606 307 606 307 606 c 2
166 353 m 1
 166 353 291 353 291 353 c 2
 346 353 370 383 370 433 c 0
 370 477 347 506 295 506 c 2
 295 506 166 506 166 506 c 1
 166 506 166 353 166 353 c 1
EndSplineSet
Position2: "'cpsp' Capital Spacing lookup 0 subtable" dx=5 dy=0 dh=10 dv=0
EndChar

StartChar: Rcaron
Encoding: 344 344 90
Width: 523
GlyphClass: 2
Flags: MW
HStem: 0 21G<53 166 53 53 385 507 385 385> 253 100<166 284 166 291> 506 100<166 295 166 166> 661 120<219 219 219 222 301 306>
VStem: 53 113<0 253 353 506> 370 122<408 455>
LayerCount: 2
Back
Fore
SplineSet
219 661 m 1
 219 661 143 781 143 781 c 1
 143 781 222 781 222 781 c 1
 222 781 262 720 262 720 c 1
 262 720 301 781 301 781 c 1
 301 781 381 781 381 781 c 1
 381 781 306 661 306 661 c 1
 306 661 219 661 219 661 c 1
307 606 m 2
 430 606 492 533 492 433 c 0
 492 360 453 303 391 278 c 1
 391 278 507 0 507 0 c 1
 507 0 385 0 385 0 c 1
 385 0 284 253 284 253 c 1
 284 253 166 253 166 253 c 1
 166 253 166 0 166 0 c 1
 166 0 53 0 53 0 c 1
 53 0 53 606 53 606 c 1
 53 606 307 606 307 606 c 2
166 353 m 1
 166 353 291 353 291 353 c 2
 346 353 370 383 370 433 c 0
 370 477 347 506 295 506 c 2
 295 506 166 506 166 506 c 1
 166 506 166 353 166 353 c 1
EndSplineSet
Position2: "'cpsp' Capital Spacing lookup 0 subtable" dx=5 dy=0 dh=10 dv=0
EndChar

StartChar: Rcommaaccent
Encoding: 342 342 91
Width: 523
GlyphClass: 2
Flags: MW
HStem: -157 108<207 250 207 316> 0 21G<53 166 53 53 385 507 385 385> 253 100<166 284 166 291> 506 100<166 295 166 166>
VStem: 53 113<0 253 353 506> 207 109<-148 -49 -148 -49 -148 -49> 370 122<408 455>
LayerCount: 2
Back
Fore
SplineSet
307 606 m 2
 430 606 492 533 492 433 c 0
 492 360 453 303 391 278 c 1
 391 278 507 0 507 0 c 1
 507 0 385 0 385 0 c 1
 385 0 284 253 284 253 c 1
 284 253 166 253 166 253 c 1
 166 253 166 0 166 0 c 1
 166 0 53 0 53 0 c 1
 53 0 53 606 53 606 c 1
 53 606 307 606 307 606 c 2
166 353 m 1
 166 353 291 353 291 353 c 2
 346 353 370 383 370 433 c 0
 370 477 347 506 295 506 c 2
 295 506 166 506 166 506 c 1
 166 506 166 353 166 353 c 1
276 -232 m 1
 276 -232 219 -232 219 -232 c 1
 219 -232 250 -157 250 -157 c 1
 250 -157 207 -157 207 -157 c 1
 207 -157 207 -49 207 -49 c 1
 207 -49 316 -49 316 -49 c 1
 316 -49 316 -148 316 -148 c 1
 316 -148 276 -232 276 -232 c 1
EndSplineSet
Position2: "'cpsp' Capital Spacing lookup 0 subtable" dx=5 dy=0 dh=10 dv=0
EndChar

StartChar: S
Encoding: 83 83 92
Width: 484
GlyphClass: 2
Flags: MW
HStem: -11 98<210 275 210 299> 520 97<213 266>
VStem: 27 117<178 183 154.5 197 154.5 197> 39 117<429 473.5 429 504.5> 323 115<428 436 436 438 428 461.5> 333 117<140.5 190>
AnchorPoint: "Anchor-1" 242 0 basechar 0
AnchorPoint: "Anchor-0" 242 606 basechar 0
LayerCount: 2
Back
Fore
SplineSet
241 617 m 0xd8
 349 617 438 563 438 438 c 2
 438 438 438 428 438 428 c 1
 438 428 323 428 323 428 c 1
 323 428 323 436 323 436 c 2
 323 487 292 520 240 520 c 0
 186 520 156 492 156 455 c 0xd8
 156 403 209 386 271 366 c 0
 353 340 450 310 450 182 c 0
 450 43 362 -11 236 -11 c 0
 125 -11 27 53 27 178 c 2
 27 178 27 197 27 197 c 1
 27 197 145 197 145 197 c 1
 145 197 144 183 144 183 c 1
 144 126 179 87 241 87 c 0
 309 87 333 123 333 158 c 0xe4
 333 222 276 241 212 262 c 0
 131 288 39 319 39 447 c 0
 39 562 134 617 241 617 c 0xd8
EndSplineSet
Position2: "'cpsp' Capital Spacing lookup 0 subtable" dx=5 dy=0 dh=10 dv=0
EndChar

StartChar: Sacute
Encoding: 346 346 93
Width: 484
GlyphClass: 2
Flags: MW
HStem: -11 98<210 275 210 299> 520 97<213 266> 664 117<257 269 181 363>
VStem: 27 117<178 183 154.5 197 154.5 197> 39 117<429 473.5 429 504.5> 323 115<428 436 436 438 428 461.5> 333 117<140.5 190>
LayerCount: 2
Back
Fore
SplineSet
269 664 m 1xea
 269 664 181 664 181 664 c 1
 181 664 257 781 257 781 c 1
 257 781 363 781 363 781 c 1
 363 781 364 778 364 778 c 1
 364 778 269 664 269 664 c 1xea
241 617 m 0xec
 349 617 438 563 438 438 c 2
 438 438 438 428 438 428 c 1
 438 428 323 428 323 428 c 1
 323 428 323 436 323 436 c 2
 323 487 292 520 240 520 c 0
 186 520 156 492 156 455 c 0xec
 156 403 209 386 271 366 c 0
 353 340 450 310 450 182 c 0
 450 43 362 -11 236 -11 c 0
 125 -11 27 53 27 178 c 2
 27 178 27 197 27 197 c 1
 27 197 145 197 145 197 c 1
 145 197 144 183 144 183 c 1
 144 126 179 87 241 87 c 0
 309 87 333 123 333 158 c 0xf2
 333 222 276 241 212 262 c 0
 131 288 39 319 39 447 c 0
 39 562 134 617 241 617 c 0xec
EndSplineSet
Position2: "'cpsp' Capital Spacing lookup 0 subtable" dx=5 dy=0 dh=10 dv=0
EndChar

StartChar: Scaron
Encoding: 352 352 94
Width: 484
GlyphClass: 2
Flags: MW
HStem: -11 98<210 275 210 299> 520 97<213 266> 661 120<199 202 281 286 199 199>
VStem: 27 117<178 183 154.5 197 154.5 197> 39 117<429 473.5 429 504.5> 323 115<428 436 436 438 428 461.5> 333 117<140.5 190>
LayerCount: 2
Back
Fore
SplineSet
123 781 m 1xea
 123 781 202 781 202 781 c 1
 202 781 242 720 242 720 c 1
 242 720 281 781 281 781 c 1
 281 781 361 781 361 781 c 1
 361 781 286 661 286 661 c 1
 286 661 199 661 199 661 c 1
 199 661 123 781 123 781 c 1xea
241 617 m 0xec
 349 617 438 563 438 438 c 2
 438 438 438 428 438 428 c 1
 438 428 323 428 323 428 c 1
 323 428 323 436 323 436 c 2
 323 487 292 520 240 520 c 0
 186 520 156 492 156 455 c 0xec
 156 403 209 386 271 366 c 0
 353 340 450 310 450 182 c 0
 450 43 362 -11 236 -11 c 0
 125 -11 27 53 27 178 c 2
 27 178 27 197 27 197 c 1
 27 197 145 197 145 197 c 1
 145 197 144 183 144 183 c 1
 144 126 179 87 241 87 c 0
 309 87 333 123 333 158 c 0xf2
 333 222 276 241 212 262 c 0
 131 288 39 319 39 447 c 0
 39 562 134 617 241 617 c 0xec
EndSplineSet
Position2: "'cpsp' Capital Spacing lookup 0 subtable" dx=5 dy=0 dh=10 dv=0
EndChar

StartChar: Scedilla
Encoding: 350 350 95
Width: 484
GlyphClass: 2
Flags: MW
HStem: -161 50<218.5 219 219 229 156 250> -154 21G<156 156> -68 39<192 257> -10 21G<259 259> -8 21G<199 199> 520 97<213 266>
VStem: 27 117<178 183 154.5 197 154.5 197> 39 117<429 473.5> 195.5 62.5 251 76<-97.5 -82> 323 115<428 436 436 438 428 461.5> 333 117<140.5 190>
LayerCount: 2
Back
Fore
SplineSet
241 617 m 0x8d20
 349 617 438 563 438 438 c 2
 438 438 438 428 438 428 c 1
 438 428 323 428 323 428 c 1
 323 428 323 436 323 436 c 2x8d20
 323 487 292 520 240 520 c 0
 186 520 156 492 156 455 c 0
 156 403 209 386 271 366 c 0
 353 340 450 310 450 182 c 0
 450 52 372 -3 259 -10 c 1x9590
 259 -10 257 -29 257 -29 c 1
 295 -32 327 -49 327 -89 c 0
 327 -149 269 -161 231 -161 c 0xad40
 206 -161 178 -158 156 -154 c 1x4d10
 156 -154 156 -111 156 -111 c 1
 156 -111 219 -111 219 -111 c 2
 239 -111 251 -106 251 -89 c 0
 251 -75 244 -68 221 -68 c 2xad40
 221 -68 192 -68 192 -68 c 1xad90
 192 -68 199 -8 199 -8 c 1x8e10
 103 4 27 66 27 178 c 2
 27 178 27 197 27 197 c 1
 27 197 145 197 145 197 c 1
 145 197 144 183 144 183 c 1
 144 126 179 87 241 87 c 0
 309 87 333 123 333 158 c 0xae10
 333 222 276 241 212 262 c 0
 131 288 39 319 39 447 c 0
 39 562 134 617 241 617 c 0x8d20
EndSplineSet
Substitution2: "'locl' Localized Forms in Latin lookup 5 subtable" Scommaaccent
Substitution2: "'locl' Localized Forms in Latin lookup 4 subtable" Scommaaccent
Substitution2: "'aalt' Access All Alternates lookup 0 subtable" Scommaaccent
Position2: "'cpsp' Capital Spacing lookup 0 subtable" dx=5 dy=0 dh=10 dv=0
EndChar

StartChar: Scircumflex
Encoding: 348 348 96
Width: 484
GlyphClass: 2
Flags: MW
HStem: -11 98<210 275 210 299> 520 97<213 266> 661 120<199 202 123 286 281 281 281 286 199 361>
VStem: 27 117<178 183 154.5 197 154.5 197> 39 117<429 473.5 429 504.5> 323 115<428 436 436 438 428 461.5> 333 117<140.5 190>
LayerCount: 2
Back
Fore
SplineSet
242 722 m 1xea
 242 722 202 661 202 661 c 1
 202 661 123 661 123 661 c 1
 123 661 199 781 199 781 c 1
 199 781 286 781 286 781 c 1
 286 781 361 661 361 661 c 1
 361 661 281 661 281 661 c 1
 281 661 242 722 242 722 c 1xea
241 617 m 0xec
 349 617 438 563 438 438 c 2
 438 438 438 428 438 428 c 1
 438 428 323 428 323 428 c 1
 323 428 323 436 323 436 c 2
 323 487 292 520 240 520 c 0
 186 520 156 492 156 455 c 0xec
 156 403 209 386 271 366 c 0
 353 340 450 310 450 182 c 0
 450 43 362 -11 236 -11 c 0
 125 -11 27 53 27 178 c 2
 27 178 27 197 27 197 c 1
 27 197 145 197 145 197 c 1
 145 197 144 183 144 183 c 1
 144 126 179 87 241 87 c 0
 309 87 333 123 333 158 c 0xf2
 333 222 276 241 212 262 c 0
 131 288 39 319 39 447 c 0
 39 562 134 617 241 617 c 0xec
EndSplineSet
Position2: "'cpsp' Capital Spacing lookup 0 subtable" dx=5 dy=0 dh=10 dv=0
EndChar

StartChar: Scommaaccent
Encoding: 536 536 97
Width: 484
GlyphClass: 2
Flags: MW
HStem: -157 108<187 231 187 297> -11 98<210 275 210 299> 520 97<213 266>
VStem: 27 117<178 183 154.5 197 154.5 197> 39 117<429 473.5 429 504.5> 187 110<-148 -49 -148 -49 -148 -49> 323 115<428 436 436 438 428 461.5> 333 117<140.5 190>
AnchorPoint: "Anchor-1" 242 0 basechar 0
AnchorPoint: "Anchor-0" 242 606 basechar 0
LayerCount: 2
Back
Fore
SplineSet
241 617 m 0xee
 349 617 438 563 438 438 c 2
 438 438 438 428 438 428 c 1
 438 428 323 428 323 428 c 1
 323 428 323 436 323 436 c 2
 323 487 292 520 240 520 c 0
 186 520 156 492 156 455 c 0xee
 156 403 209 386 271 366 c 0
 353 340 450 310 450 182 c 0
 450 43 362 -11 236 -11 c 0
 125 -11 27 53 27 178 c 2
 27 178 27 197 27 197 c 1
 27 197 145 197 145 197 c 1
 145 197 144 183 144 183 c 1
 144 126 179 87 241 87 c 0
 309 87 333 123 333 158 c 0xf5
 333 222 276 241 212 262 c 0
 131 288 39 319 39 447 c 0
 39 562 134 617 241 617 c 0xee
199 -232 m 1xed
 199 -232 231 -157 231 -157 c 1
 231 -157 187 -157 187 -157 c 1
 187 -157 187 -49 187 -49 c 1
 187 -49 297 -49 297 -49 c 1
 297 -49 297 -148 297 -148 c 1
 297 -148 256 -232 256 -232 c 1
 256 -232 199 -232 199 -232 c 1xed
EndSplineSet
Position2: "'cpsp' Capital Spacing lookup 0 subtable" dx=5 dy=0 dh=10 dv=0
EndChar

StartChar: T
Encoding: 84 84 98
Width: 443
GlyphClass: 2
Flags: MW
HStem: 0 21G<165 278 165 165> 506 100<15 165 15 429 278 429 278 278>
VStem: 165 113<0 506 0 506>
AnchorPoint: "Anchor-1" 222 0 basechar 0
AnchorPoint: "Anchor-0" 222 606 basechar 0
LayerCount: 2
Back
Fore
SplineSet
278 506 m 1
 278 506 278 0 278 0 c 1
 278 0 165 0 165 0 c 1
 165 0 165 506 165 506 c 1
 165 506 15 506 15 506 c 1
 15 506 15 606 15 606 c 1
 15 606 429 606 429 606 c 1
 429 606 429 506 429 506 c 1
 429 506 278 506 278 506 c 1
EndSplineSet
Position2: "'cpsp' Capital Spacing lookup 0 subtable" dx=5 dy=0 dh=10 dv=0
EndChar

StartChar: Tbar
Encoding: 358 358 99
Width: 443
GlyphClass: 2
Flags: MW
HStem: 0 21G<165 278 165 165> 271 76<65 165 65 165 278 377> 506 100<15 165 15 429 278 429 278 278>
VStem: 165 113<0 271 0 271 347 506>
LayerCount: 2
Back
Fore
SplineSet
278 506 m 1
 278 506 278 347 278 347 c 1
 278 347 377 347 377 347 c 1
 377 347 377 271 377 271 c 1
 377 271 278 271 278 271 c 1
 278 271 278 0 278 0 c 1
 278 0 165 0 165 0 c 1
 165 0 165 271 165 271 c 1
 165 271 65 271 65 271 c 1
 65 271 65 347 65 347 c 1
 65 347 165 347 165 347 c 1
 165 347 165 506 165 506 c 1
 165 506 15 506 15 506 c 1
 15 506 15 606 15 606 c 1
 15 606 429 606 429 606 c 1
 429 606 429 506 429 506 c 1
 429 506 278 506 278 506 c 1
EndSplineSet
Position2: "'cpsp' Capital Spacing lookup 0 subtable" dx=5 dy=0 dh=10 dv=0
EndChar

StartChar: Tcaron
Encoding: 356 356 100
Width: 443
GlyphClass: 2
Flags: MW
HStem: 0 21G<165 278 165 165> 506 100<15 165 15 429 278 429 278 278> 661 120<179 179 179 182 261 265>
VStem: 165 113<0 506 0 506>
LayerCount: 2
Back
Fore
SplineSet
179 661 m 1
 179 661 103 781 103 781 c 1
 103 781 182 781 182 781 c 1
 182 781 222 720 222 720 c 1
 222 720 261 781 261 781 c 1
 261 781 340 781 340 781 c 1
 340 781 265 661 265 661 c 1
 265 661 179 661 179 661 c 1
278 506 m 1
 278 506 278 0 278 0 c 1
 278 0 165 0 165 0 c 1
 165 0 165 506 165 506 c 1
 165 506 15 506 15 506 c 1
 15 506 15 606 15 606 c 1
 15 606 429 606 429 606 c 1
 429 606 429 506 429 506 c 1
 429 506 278 506 278 506 c 1
EndSplineSet
Position2: "'cpsp' Capital Spacing lookup 0 subtable" dx=5 dy=0 dh=10 dv=0
EndChar

StartChar: Tcedilla
Encoding: 354 354 101
Width: 443
GlyphClass: 2
Flags: MW
HStem: -161 50<197.5 199 199 208.5 136 229> -154 21G<136 136> -68 39<171 237> 0 21G<165 180 165 165 240 278 240 240> 506 100<15 165 15 429 278 278 278 429>
VStem: 165 113<0 506 0 506> 230 76<-97.5 -82>
AnchorPoint: "Anchor-1" 222 0 basechar 0
AnchorPoint: "Anchor-0" 222 606 basechar 0
LayerCount: 2
Back
Fore
SplineSet
240 0 m 1x9c
 240 0 237 -29 237 -29 c 1xbc
 275 -32 306 -49 306 -89 c 0
 306 -149 248 -161 210 -161 c 0x9a
 185 -161 157 -158 136 -154 c 1x5c
 136 -154 136 -111 136 -111 c 1
 136 -111 199 -111 199 -111 c 2
 218 -111 230 -106 230 -89 c 0
 230 -75 223 -68 200 -68 c 2
 200 -68 171 -68 171 -68 c 1xbc
 171 -68 180 0 180 0 c 1
 180 0 165 0 165 0 c 1
 165 0 165 506 165 506 c 1
 165 506 15 506 15 506 c 1
 15 506 15 606 15 606 c 1
 15 606 429 606 429 606 c 1
 429 606 429 506 429 506 c 1
 429 506 278 506 278 506 c 1
 278 506 278 0 278 0 c 1
 278 0 240 0 240 0 c 1x9c
EndSplineSet
Substitution2: "'locl' Localized Forms in Latin lookup 5 subtable" uni021A
Substitution2: "'locl' Localized Forms in Latin lookup 4 subtable" uni021A
Substitution2: "'aalt' Access All Alternates lookup 0 subtable" uni021A
Position2: "'cpsp' Capital Spacing lookup 0 subtable" dx=5 dy=0 dh=10 dv=0
EndChar

StartChar: uni021A
Encoding: 538 538 102
Width: 443
GlyphClass: 2
Flags: MW
HStem: -157 108<167 210 167 276> 0 21G<165 278 165 165> 506 100<15 165 15 429 278 429 278 278>
VStem: 165 113<0 506 0 506>
LayerCount: 2
Back
Fore
SplineSet
278 506 m 1
 278 506 278 0 278 0 c 1
 278 0 165 0 165 0 c 1
 165 0 165 506 165 506 c 1
 165 506 15 506 15 506 c 1
 15 506 15 606 15 606 c 1
 15 606 429 606 429 606 c 1
 429 606 429 506 429 506 c 1
 429 506 278 506 278 506 c 1
236 -232 m 1
 236 -232 179 -232 179 -232 c 1
 179 -232 210 -157 210 -157 c 1
 210 -157 167 -157 167 -157 c 1
 167 -157 167 -49 167 -49 c 1
 167 -49 276 -49 276 -49 c 1
 276 -49 276 -148 276 -148 c 1
 276 -148 236 -232 236 -232 c 1
EndSplineSet
Position2: "'cpsp' Capital Spacing lookup 0 subtable" dx=5 dy=0 dh=10 dv=0
EndChar

StartChar: U
Encoding: 85 85 103
Width: 523
GlyphClass: 2
Flags: MW
HStem: -11 98<232 292 232 327> 586 20G<54 167 167 167 357 470 470 470>
VStem: 54 113<190 194 194 606> 357 113<194 606>
AnchorPoint: "Anchor-1" 0 0 basechar 0
AnchorPoint: "Anchor-0" 262 606 basechar 0
LayerCount: 2
Back
Fore
SplineSet
470 190 m 2
 470 58 392 -11 262 -11 c 0
 132 -11 54 58 54 190 c 2
 54 190 54 606 54 606 c 1
 54 606 167 606 167 606 c 1
 167 606 167 194 167 194 c 2
 167 124 202 87 262 87 c 0
 322 87 357 124 357 194 c 2
 357 194 357 606 357 606 c 1
 357 606 470 606 470 606 c 1
 470 606 470 190 470 190 c 2
EndSplineSet
Position2: "'cpsp' Capital Spacing lookup 0 subtable" dx=5 dy=0 dh=10 dv=0
EndChar

StartChar: Uacute
Encoding: 218 218 104
Width: 523
GlyphClass: 2
Flags: MW
HStem: -11 98<232 292 232 327> 586 20G<54 167 167 167 357 470 470 470> 664 117<277 288 201 383>
VStem: 54 113<190 194 194 606> 357 113<194 606>
LayerCount: 2
Back
Fore
SplineSet
288 664 m 1
 288 664 201 664 201 664 c 1
 201 664 277 781 277 781 c 1
 277 781 383 781 383 781 c 1
 383 781 384 778 384 778 c 1
 384 778 288 664 288 664 c 1
470 190 m 2
 470 58 392 -11 262 -11 c 0
 132 -11 54 58 54 190 c 2
 54 190 54 606 54 606 c 1
 54 606 167 606 167 606 c 1
 167 606 167 194 167 194 c 2
 167 124 202 87 262 87 c 0
 322 87 357 124 357 194 c 2
 357 194 357 606 357 606 c 1
 357 606 470 606 470 606 c 1
 470 606 470 190 470 190 c 2
EndSplineSet
Position2: "'cpsp' Capital Spacing lookup 0 subtable" dx=5 dy=0 dh=10 dv=0
EndChar

StartChar: Ubreve
Encoding: 364 364 105
Width: 523
GlyphClass: 2
Flags: MW
HStem: -11 98<232 292 232 327> 586 20G<54 167 167 167 357 470 470 470> 686 95<144 297.5>
VStem: 54 113<190 194 194 606> 357 113<194 606>
LayerCount: 2
Back
Fore
SplineSet
380 781 m 1
 380 736 334 686 261 686 c 0
 188 686 144 736 144 781 c 1
 144 781 210 781 210 781 c 1
 212 768 232 751 261 751 c 0
 292 751 313 768 314 781 c 1
 314 781 380 781 380 781 c 1
470 190 m 2
 470 58 392 -11 262 -11 c 0
 132 -11 54 58 54 190 c 2
 54 190 54 606 54 606 c 1
 54 606 167 606 167 606 c 1
 167 606 167 194 167 194 c 2
 167 124 202 87 262 87 c 0
 322 87 357 124 357 194 c 2
 357 194 357 606 357 606 c 1
 357 606 470 606 470 606 c 1
 470 606 470 190 470 190 c 2
EndSplineSet
Position2: "'cpsp' Capital Spacing lookup 0 subtable" dx=5 dy=0 dh=10 dv=0
EndChar

StartChar: Ucircumflex
Encoding: 219 219 106
Width: 523
GlyphClass: 2
Flags: MW
HStem: -11 98<232 292 232 327> 586 20G<54 167 167 167 357 470 470 470> 661 120<219 222 143 306 301 306 219 381 301 301>
VStem: 54 113<190 194 194 606> 357 113<194 606>
LayerCount: 2
Back
Fore
SplineSet
301 661 m 1
 301 661 262 722 262 722 c 1
 262 722 222 661 222 661 c 1
 222 661 143 661 143 661 c 1
 143 661 219 781 219 781 c 1
 219 781 306 781 306 781 c 1
 306 781 381 661 381 661 c 1
 381 661 301 661 301 661 c 1
470 190 m 2
 470 58 392 -11 262 -11 c 0
 132 -11 54 58 54 190 c 2
 54 190 54 606 54 606 c 1
 54 606 167 606 167 606 c 1
 167 606 167 194 167 194 c 2
 167 124 202 87 262 87 c 0
 322 87 357 124 357 194 c 2
 357 194 357 606 357 606 c 1
 357 606 470 606 470 606 c 1
 470 606 470 190 470 190 c 2
EndSplineSet
Position2: "'cpsp' Capital Spacing lookup 0 subtable" dx=5 dy=0 dh=10 dv=0
EndChar

StartChar: Udieresis
Encoding: 220 220 107
Width: 523
GlyphClass: 2
Flags: MW
HStem: -11 98<232 292 232 327> 586 20G<54 167 167 167 357 470 470 470> 684 97<141 229 141 229 294 384 141 294>
VStem: 54 113<190 194 194 606> 141 88<684 781 684 781> 294 90<684 781 684 781> 357 113<194 606>
LayerCount: 2
Back
Fore
SplineSet
141 684 m 1xec
 141 684 141 781 141 781 c 1
 141 781 229 781 229 781 c 1
 229 781 229 684 229 684 c 1
 229 684 141 684 141 684 c 1xec
294 684 m 1
 294 684 294 781 294 781 c 1
 294 781 384 781 384 781 c 1
 384 781 384 684 384 684 c 1
 384 684 294 684 294 684 c 1
470 190 m 2xf2
 470 58 392 -11 262 -11 c 0
 132 -11 54 58 54 190 c 2
 54 190 54 606 54 606 c 1
 54 606 167 606 167 606 c 1
 167 606 167 194 167 194 c 2
 167 124 202 87 262 87 c 0
 322 87 357 124 357 194 c 2
 357 194 357 606 357 606 c 1
 357 606 470 606 470 606 c 1
 470 606 470 190 470 190 c 2xf2
EndSplineSet
Position2: "'cpsp' Capital Spacing lookup 0 subtable" dx=5 dy=0 dh=10 dv=0
EndChar

StartChar: Ugrave
Encoding: 217 217 108
Width: 523
GlyphClass: 2
Flags: MW
HStem: -11 98<232 292 232 327> 586 20G<54 167 167 167 357 470 470 470> 664 117<235 235 235 247 141 323>
VStem: 54 113<190 194 194 606> 357 113<194 606>
LayerCount: 2
Back
Fore
SplineSet
235 664 m 1
 235 664 140 778 140 778 c 1
 140 778 141 781 141 781 c 1
 141 781 247 781 247 781 c 1
 247 781 323 664 323 664 c 1
 323 664 235 664 235 664 c 1
470 190 m 2
 470 58 392 -11 262 -11 c 0
 132 -11 54 58 54 190 c 2
 54 190 54 606 54 606 c 1
 54 606 167 606 167 606 c 1
 167 606 167 194 167 194 c 2
 167 124 202 87 262 87 c 0
 322 87 357 124 357 194 c 2
 357 194 357 606 357 606 c 1
 357 606 470 606 470 606 c 1
 470 606 470 190 470 190 c 2
EndSplineSet
Position2: "'cpsp' Capital Spacing lookup 0 subtable" dx=5 dy=0 dh=10 dv=0
EndChar

StartChar: Uhungarumlaut
Encoding: 368 368 109
Width: 523
GlyphClass: 2
Flags: MW
HStem: -11 98<232 292 232 327> 586 20G<54 167 167 167 357 470 470 470> 664 117<217 232 162 305 286 286 286 305 340 355>
VStem: 54 113<190 194 194 606> 357 113<194 606>
LayerCount: 2
Back
Fore
SplineSet
232 664 m 1
 232 664 162 664 162 664 c 1
 162 664 217 781 217 781 c 1
 217 781 305 781 305 781 c 1
 305 781 306 778 306 778 c 1
 306 778 232 664 232 664 c 1
355 664 m 1
 355 664 286 664 286 664 c 1
 286 664 340 781 340 781 c 1
 340 781 429 781 429 781 c 1
 429 781 430 778 430 778 c 1
 430 778 355 664 355 664 c 1
470 190 m 2
 470 58 392 -11 262 -11 c 0
 132 -11 54 58 54 190 c 2
 54 190 54 606 54 606 c 1
 54 606 167 606 167 606 c 1
 167 606 167 194 167 194 c 2
 167 124 202 87 262 87 c 0
 322 87 357 124 357 194 c 2
 357 194 357 606 357 606 c 1
 357 606 470 606 470 606 c 1
 470 606 470 190 470 190 c 2
EndSplineSet
Position2: "'cpsp' Capital Spacing lookup 0 subtable" dx=5 dy=0 dh=10 dv=0
EndChar

StartChar: Umacron
Encoding: 362 362 110
Width: 523
GlyphClass: 2
Flags: MW
HStem: -11 98<232 292 232 327> 586 20G<54 167 167 167 357 470 470 470> 671 77<149 375 149 375>
VStem: 54 113<190 194 194 606> 357 113<194 606>
LayerCount: 2
Back
Fore
SplineSet
149 671 m 1
 149 671 149 748 149 748 c 1
 149 748 375 748 375 748 c 1
 375 748 375 671 375 671 c 1
 375 671 149 671 149 671 c 1
470 190 m 2
 470 58 392 -11 262 -11 c 0
 132 -11 54 58 54 190 c 2
 54 190 54 606 54 606 c 1
 54 606 167 606 167 606 c 1
 167 606 167 194 167 194 c 2
 167 124 202 87 262 87 c 0
 322 87 357 124 357 194 c 2
 357 194 357 606 357 606 c 1
 357 606 470 606 470 606 c 1
 470 606 470 190 470 190 c 2
EndSplineSet
Position2: "'cpsp' Capital Spacing lookup 0 subtable" dx=5 dy=0 dh=10 dv=0
EndChar

StartChar: Uogonek
Encoding: 370 370 111
Width: 523
GlyphClass: 2
Flags: MW
HStem: -164 61<312 391> -11 98<232 262 262 270> 586 20G<54 167 167 167 357 470 470 470>
VStem: 54 113<197 201 201 606> 245 146<-114.5 -103 -151 -68.5> 357 113<201 606>
LayerCount: 2
Back
Fore
SplineSet
470 606 m 1xf4
 470 606 470 197 470 197 c 2xf4
 470 97 430 32 358 4 c 1
 347 -8 331 -33 331 -57 c 0
 331 -80 342 -103 371 -103 c 2
 371 -103 391 -103 391 -103 c 1
 391 -103 391 -151 391 -151 c 1
 370 -159 352 -164 332 -164 c 0
 292 -164 245 -145 245 -84 c 0xf8
 245 -53 256 -30 270 -11 c 1
 270 -11 262 -11 262 -11 c 2
 132 -11 54 61 54 197 c 2
 54 197 54 606 54 606 c 1
 54 606 167 606 167 606 c 1
 167 606 167 201 167 201 c 2
 167 126 202 87 262 87 c 0
 322 87 357 126 357 201 c 2
 357 201 357 606 357 606 c 1
 357 606 470 606 470 606 c 1xf4
EndSplineSet
Position2: "'cpsp' Capital Spacing lookup 0 subtable" dx=5 dy=0 dh=10 dv=0
EndChar

StartChar: Uring
Encoding: 366 366 112
Width: 523
GlyphClass: 2
Flags: MW
HStem: -11 98<232 292 232 327> 586 20G<54 167 167 167 357 470 470 470> 637 45<250.5 273 250.5 285.5> 763 44<250.5 273>
VStem: 54 113<190 194 194 606> 177 44<710.5 733.5 710.5 745.5> 302 45<710.5 733.5> 357 113<194 606>
LayerCount: 2
Back
Fore
SplineSet
262 807 m 0
 309 807 347 768 347 722 c 0
 347 675 309 637 262 637 c 0
 216 637 177 674 177 722 c 0
 177 769 215 807 262 807 c 0
262 763 m 0
 239 763 221 745 221 722 c 0
 221 699 239 682 262 682 c 0
 284 682 302 699 302 722 c 0
 302 745 284 763 262 763 c 0
470 190 m 2xf9
 470 58 392 -11 262 -11 c 0
 132 -11 54 58 54 190 c 2
 54 190 54 606 54 606 c 1
 54 606 167 606 167 606 c 1
 167 606 167 194 167 194 c 2
 167 124 202 87 262 87 c 0
 322 87 357 124 357 194 c 2
 357 194 357 606 357 606 c 1
 357 606 470 606 470 606 c 1
 470 606 470 190 470 190 c 2xf9
EndSplineSet
Position2: "'cpsp' Capital Spacing lookup 0 subtable" dx=5 dy=0 dh=10 dv=0
EndChar

StartChar: Utilde
Encoding: 360 360 113
Width: 523
GlyphClass: 2
Flags: MW
HStem: -11 98<232 292 232 327> 586 20G<54 167 167 167 357 470 470 470> 673 108<169 171 113 211 352 354>
VStem: 54 113<190 194 194 606> 357 113<194 606>
LayerCount: 2
Back
Fore
SplineSet
410 781 m 1
 410 732 385 673 323 673 c 0
 301 673 282 681 262 689 c 0
 244 697 226 705 206 705 c 0
 187 705 175 697 171 673 c 1
 171 673 113 673 113 673 c 1
 113 721 138 781 200 781 c 0
 222 781 242 772 261 764 c 0
 280 756 298 748 317 748 c 0
 336 748 348 756 352 781 c 1
 352 781 410 781 410 781 c 1
470 190 m 2
 470 58 392 -11 262 -11 c 0
 132 -11 54 58 54 190 c 2
 54 190 54 606 54 606 c 1
 54 606 167 606 167 606 c 1
 167 606 167 194 167 194 c 2
 167 124 202 87 262 87 c 0
 322 87 357 124 357 194 c 2
 357 194 357 606 357 606 c 1
 357 606 470 606 470 606 c 1
 470 606 470 190 470 190 c 2
EndSplineSet
Position2: "'cpsp' Capital Spacing lookup 0 subtable" dx=5 dy=0 dh=10 dv=0
EndChar

StartChar: V
Encoding: 86 86 114
Width: 484
GlyphClass: 2
Flags: MW
HStem: 0 21G<185 299 185 185> 0 172<244 248 244 299 185 248> 586 20G<0 117 117 117 373 484 484 484>
VStem: 0 484<606 606>
LayerCount: 2
Back
Fore
SplineSet
0 606 m 1xb0
 0 606 117 606 117 606 c 1
 117 606 244 172 244 172 c 1
 244 172 248 172 248 172 c 1x70
 248 172 373 606 373 606 c 1
 373 606 484 606 484 606 c 1
 484 606 299 0 299 0 c 1
 299 0 185 0 185 0 c 1
 185 0 0 606 0 606 c 1xb0
EndSplineSet
Position2: "'cpsp' Capital Spacing lookup 0 subtable" dx=5 dy=0 dh=10 dv=0
EndChar

StartChar: W
Encoding: 87 87 115
Width: 684
GlyphClass: 2
Flags: MW
HStem: 0 21G<132 246 132 132 438 438 438 552> 0 149<196 200 196 246 132 200 497 500> 472 134<339 343 339 339> 586 20G<0 112 112 112 285 413 413 413 586 683 683 683>
VStem: 0 683<606 606>
AnchorPoint: "Anchor-1" 0 0 basechar 0
AnchorPoint: "Anchor-0" 342 606 basechar 0
LayerCount: 2
Back
Fore
SplineSet
355 386 m 2xa8
 348 417 343 472 343 472 c 1
 343 472 339 472 339 472 c 1
 339 472 332 412 327 386 c 2xa8
 327 386 246 0 246 0 c 1
 246 0 132 0 132 0 c 1
 132 0 0 606 0 606 c 1
 0 606 112 606 112 606 c 1
 112 606 185 233 185 233 c 2
 190 207 196 149 196 149 c 1
 196 149 200 149 200 149 c 1
 200 149 206 208 211 233 c 2
 211 233 285 606 285 606 c 1
 285 606 413 606 413 606 c 1
 413 606 485 233 485 233 c 2
 490 210 497 149 497 149 c 1
 497 149 500 149 500 149 c 1
 500 149 506 203 512 233 c 2x58
 512 233 586 606 586 606 c 1
 586 606 683 606 683 606 c 1
 683 606 552 0 552 0 c 1
 552 0 438 0 438 0 c 1
 438 0 355 386 355 386 c 2xa8
EndSplineSet
Position2: "'cpsp' Capital Spacing lookup 0 subtable" dx=5 dy=0 dh=10 dv=0
EndChar

StartChar: Wacute
Encoding: 7810 7810 116
Width: 684
GlyphClass: 2
Flags: MW
HStem: 0 21G<132 246 132 132 438 552 438 438> 0 149<196 200 196 246 132 200 497 500> 472 134<339 343 339 339> 586 20G<0 112 112 112 285 413 413 413 586 683 683 683> 664 117<357 369 281 463>
VStem: 0 683<606 606>
LayerCount: 2
Back
Fore
SplineSet
369 664 m 1x9c
 369 664 281 664 281 664 c 1
 281 664 357 781 357 781 c 1
 357 781 463 781 463 781 c 1
 463 781 464 778 464 778 c 1
 464 778 369 664 369 664 c 1x9c
438 0 m 1
 438 0 355 386 355 386 c 2
 348 417 343 472 343 472 c 1
 343 472 339 472 339 472 c 1
 339 472 332 412 327 386 c 2xac
 327 386 246 0 246 0 c 1
 246 0 132 0 132 0 c 1
 132 0 0 606 0 606 c 1
 0 606 112 606 112 606 c 1
 112 606 185 233 185 233 c 2
 190 207 196 149 196 149 c 1
 196 149 200 149 200 149 c 1
 200 149 206 208 211 233 c 2
 211 233 285 606 285 606 c 1
 285 606 413 606 413 606 c 1
 413 606 485 233 485 233 c 2
 490 210 497 149 497 149 c 1
 497 149 500 149 500 149 c 1
 500 149 506 203 512 233 c 2x5c
 512 233 586 606 586 606 c 1
 586 606 683 606 683 606 c 1
 683 606 552 0 552 0 c 1
 552 0 438 0 438 0 c 1
EndSplineSet
Position2: "'cpsp' Capital Spacing lookup 0 subtable" dx=5 dy=0 dh=10 dv=0
EndChar

StartChar: Wcircumflex
Encoding: 372 372 117
Width: 684
GlyphClass: 2
Flags: MW
HStem: 0 21G<132 246 132 132 438 438 438 552> 0 149<196 200 196 246 132 200 497 500> 472 134<339 343 339 339> 586 20G<0 112 112 112 285 413 413 413 586 683 683 683> 661 120<300 303 224 386 382 382 382 386 300 461>
VStem: 0 683<606 606>
LayerCount: 2
Back
Fore
SplineSet
343 722 m 1x9c
 343 722 303 661 303 661 c 1
 303 661 224 661 224 661 c 1
 224 661 300 781 300 781 c 1
 300 781 386 781 386 781 c 1
 386 781 461 661 461 661 c 1
 461 661 382 661 382 661 c 1
 382 661 343 722 343 722 c 1x9c
355 386 m 2xac
 348 417 343 472 343 472 c 1
 343 472 339 472 339 472 c 1
 339 472 332 412 327 386 c 2xac
 327 386 246 0 246 0 c 1
 246 0 132 0 132 0 c 1
 132 0 0 606 0 606 c 1
 0 606 112 606 112 606 c 1
 112 606 185 233 185 233 c 2
 190 207 196 149 196 149 c 1
 196 149 200 149 200 149 c 1
 200 149 206 208 211 233 c 2
 211 233 285 606 285 606 c 1
 285 606 413 606 413 606 c 1
 413 606 485 233 485 233 c 2
 490 210 497 149 497 149 c 1
 497 149 500 149 500 149 c 1
 500 149 506 203 512 233 c 2x5c
 512 233 586 606 586 606 c 1
 586 606 683 606 683 606 c 1
 683 606 552 0 552 0 c 1
 552 0 438 0 438 0 c 1
 438 0 355 386 355 386 c 2xac
EndSplineSet
Position2: "'cpsp' Capital Spacing lookup 0 subtable" dx=5 dy=0 dh=10 dv=0
EndChar

StartChar: Wdieresis
Encoding: 7812 7812 118
Width: 684
GlyphClass: 2
Flags: MW
HStem: 0 21G<132 246 132 132 438 552 438 438> 0 149<196 200 196 246 132 200 497 500> 472 134<339 343 339 339> 586 20G<0 112 112 112 285 413 413 413 586 683 683 683> 684 97<221 309 221 309 376 464 221 376>
VStem: 221 88<684 781 684 781> 376 88<684 781 684 781>
LayerCount: 2
Back
Fore
SplineSet
221 684 m 1x9e
 221 684 221 781 221 781 c 1
 221 781 309 781 309 781 c 1
 309 781 309 684 309 684 c 1
 309 684 221 684 221 684 c 1x9e
376 684 m 1
 376 684 376 781 376 781 c 1
 376 781 464 781 464 781 c 1
 464 781 464 684 464 684 c 1
 464 684 376 684 376 684 c 1
438 0 m 1
 438 0 355 386 355 386 c 2
 348 417 343 472 343 472 c 1
 343 472 339 472 339 472 c 1
 339 472 332 412 327 386 c 2xae
 327 386 246 0 246 0 c 1
 246 0 132 0 132 0 c 1
 132 0 0 606 0 606 c 1
 0 606 112 606 112 606 c 1
 112 606 185 233 185 233 c 2
 190 207 196 149 196 149 c 1
 196 149 200 149 200 149 c 1
 200 149 206 208 211 233 c 2
 211 233 285 606 285 606 c 1
 285 606 413 606 413 606 c 1
 413 606 485 233 485 233 c 2
 490 210 497 149 497 149 c 1
 497 149 500 149 500 149 c 1
 500 149 506 203 512 233 c 2x5e
 512 233 586 606 586 606 c 1
 586 606 683 606 683 606 c 1
 683 606 552 0 552 0 c 1
 552 0 438 0 438 0 c 1
EndSplineSet
Position2: "'cpsp' Capital Spacing lookup 0 subtable" dx=5 dy=0 dh=10 dv=0
EndChar

StartChar: Wgrave
Encoding: 7808 7808 119
Width: 684
GlyphClass: 2
Flags: MW
HStem: 0 21G<132 246 132 132 438 552 438 438> 0 149<196 200 196 246 132 200 497 500> 472 134<339 343 339 339> 586 20G<0 112 112 112 285 413 413 413 586 683 683 683> 664 117<316 316 316 327 221 403>
VStem: 0 683<606 606>
LayerCount: 2
Back
Fore
SplineSet
316 664 m 1x9c
 316 664 220 778 220 778 c 1
 220 778 221 781 221 781 c 1
 221 781 327 781 327 781 c 1
 327 781 403 664 403 664 c 1
 403 664 316 664 316 664 c 1x9c
438 0 m 1
 438 0 355 386 355 386 c 2
 348 417 343 472 343 472 c 1
 343 472 339 472 339 472 c 1
 339 472 332 412 327 386 c 2xac
 327 386 246 0 246 0 c 1
 246 0 132 0 132 0 c 1
 132 0 0 606 0 606 c 1
 0 606 112 606 112 606 c 1
 112 606 185 233 185 233 c 2
 190 207 196 149 196 149 c 1
 196 149 200 149 200 149 c 1
 200 149 206 208 211 233 c 2
 211 233 285 606 285 606 c 1
 285 606 413 606 413 606 c 1
 413 606 485 233 485 233 c 2
 490 210 497 149 497 149 c 1
 497 149 500 149 500 149 c 1
 500 149 506 203 512 233 c 2x5c
 512 233 586 606 586 606 c 1
 586 606 683 606 683 606 c 1
 683 606 552 0 552 0 c 1
 552 0 438 0 438 0 c 1
EndSplineSet
Position2: "'cpsp' Capital Spacing lookup 0 subtable" dx=5 dy=0 dh=10 dv=0
EndChar

StartChar: X
Encoding: 88 88 120
Width: 484
GlyphClass: 2
Flags: MW
HStem: 0 21G<0 118 0 0 357 483 357 357> 586 20G<16 142 142 142 349 467 467 467>
VStem: 0 483<0 0>
LayerCount: 2
Back
Fore
SplineSet
483 0 m 1
 483 0 357 0 357 0 c 1
 357 0 239 229 239 229 c 1
 239 229 235 229 235 229 c 1
 235 229 118 0 118 0 c 1
 118 0 0 0 0 0 c 1
 0 0 171 318 171 318 c 1
 171 318 16 606 16 606 c 1
 16 606 142 606 142 606 c 1
 142 606 244 408 244 408 c 1
 244 408 248 408 248 408 c 1
 248 408 349 606 349 606 c 1
 349 606 467 606 467 606 c 1
 467 606 310 320 310 320 c 1
 310 320 483 0 483 0 c 1
EndSplineSet
Position2: "'cpsp' Capital Spacing lookup 0 subtable" dx=5 dy=0 dh=10 dv=0
EndChar

StartChar: Y
Encoding: 89 89 121
Width: 484
GlyphClass: 2
Flags: MW
HStem: 0 21G<186 186 186 299> 586 20G<0 119 119 119 370 484 484 484>
VStem: 186 113<0 229 0 229>
AnchorPoint: "Anchor-1" 0 0 basechar 0
AnchorPoint: "Anchor-0" 242 606 basechar 0
LayerCount: 2
Back
Fore
SplineSet
186 0 m 1
 186 0 186 229 186 229 c 1
 186 229 0 606 0 606 c 1
 0 606 119 606 119 606 c 1
 119 606 243 340 243 340 c 1
 243 340 247 340 247 340 c 1
 247 340 370 606 370 606 c 1
 370 606 484 606 484 606 c 1
 484 606 299 229 299 229 c 1
 299 229 299 0 299 0 c 1
 299 0 186 0 186 0 c 1
EndSplineSet
Position2: "'cpsp' Capital Spacing lookup 0 subtable" dx=5 dy=0 dh=10 dv=0
EndChar

StartChar: Yacute
Encoding: 221 221 122
Width: 484
GlyphClass: 2
Flags: MW
HStem: 0 21G<186 299 186 186> 586 20G<0 119 119 119 370 484 484 484> 664 117<257 269 181 363>
VStem: 186 113<0 229>
LayerCount: 2
Back
Fore
SplineSet
269 664 m 1
 269 664 181 664 181 664 c 1
 181 664 257 781 257 781 c 1
 257 781 363 781 363 781 c 1
 363 781 364 778 364 778 c 1
 364 778 269 664 269 664 c 1
299 0 m 1
 299 0 186 0 186 0 c 1
 186 0 186 229 186 229 c 1
 186 229 0 606 0 606 c 1
 0 606 119 606 119 606 c 1
 119 606 243 340 243 340 c 1
 243 340 247 340 247 340 c 1
 247 340 370 606 370 606 c 1
 370 606 484 606 484 606 c 1
 484 606 299 229 299 229 c 1
 299 229 299 0 299 0 c 1
EndSplineSet
Position2: "'cpsp' Capital Spacing lookup 0 subtable" dx=5 dy=0 dh=10 dv=0
EndChar

StartChar: Ycircumflex
Encoding: 374 374 123
Width: 484
GlyphClass: 2
Flags: MW
HStem: 0 21G<186 186 186 299> 586 20G<0 119 119 119 370 484 484 484> 661 120<199 202 123 286 281 281 281 286 199 361>
VStem: 186 113<0 229 0 229>
LayerCount: 2
Back
Fore
SplineSet
242 722 m 1
 242 722 202 661 202 661 c 1
 202 661 123 661 123 661 c 1
 123 661 199 781 199 781 c 1
 199 781 286 781 286 781 c 1
 286 781 361 661 361 661 c 1
 361 661 281 661 281 661 c 1
 281 661 242 722 242 722 c 1
186 0 m 1
 186 0 186 229 186 229 c 1
 186 229 0 606 0 606 c 1
 0 606 119 606 119 606 c 1
 119 606 243 340 243 340 c 1
 243 340 247 340 247 340 c 1
 247 340 370 606 370 606 c 1
 370 606 484 606 484 606 c 1
 484 606 299 229 299 229 c 1
 299 229 299 0 299 0 c 1
 299 0 186 0 186 0 c 1
EndSplineSet
Position2: "'cpsp' Capital Spacing lookup 0 subtable" dx=5 dy=0 dh=10 dv=0
EndChar

StartChar: Ydieresis
Encoding: 376 376 124
Width: 484
GlyphClass: 2
Flags: MW
HStem: 0 21G<186 299 186 186> 586 20G<0 119 119 119 370 484 484 484> 684 97<120 209 120 209 275 363 120 275>
VStem: 120 89<684 781 684 781> 186 113<0 229> 275 88<684 781 684 781>
LayerCount: 2
Back
Fore
SplineSet
120 684 m 1xf4
 120 684 120 781 120 781 c 1
 120 781 209 781 209 781 c 1
 209 781 209 684 209 684 c 1
 209 684 120 684 120 684 c 1xf4
275 684 m 1
 275 684 275 781 275 781 c 1
 275 781 363 781 363 781 c 1
 363 781 363 684 363 684 c 1
 363 684 275 684 275 684 c 1
299 0 m 1xe8
 299 0 186 0 186 0 c 1
 186 0 186 229 186 229 c 1
 186 229 0 606 0 606 c 1
 0 606 119 606 119 606 c 1
 119 606 243 340 243 340 c 1
 243 340 247 340 247 340 c 1
 247 340 370 606 370 606 c 1
 370 606 484 606 484 606 c 1
 484 606 299 229 299 229 c 1
 299 229 299 0 299 0 c 1xe8
EndSplineSet
Position2: "'cpsp' Capital Spacing lookup 0 subtable" dx=5 dy=0 dh=10 dv=0
EndChar

StartChar: Ygrave
Encoding: 7922 7922 125
Width: 484
GlyphClass: 2
Flags: MW
HStem: 0 21G<186 299 186 186> 586 20G<0 119 119 119 370 484 484 484> 664 117<215 215 215 226 120 302>
VStem: 186 113<0 229>
LayerCount: 2
Back
Fore
SplineSet
215 664 m 1
 215 664 119 778 119 778 c 1
 119 778 120 781 120 781 c 1
 120 781 226 781 226 781 c 1
 226 781 302 664 302 664 c 1
 302 664 215 664 215 664 c 1
299 0 m 1
 299 0 186 0 186 0 c 1
 186 0 186 229 186 229 c 1
 186 229 0 606 0 606 c 1
 0 606 119 606 119 606 c 1
 119 606 243 340 243 340 c 1
 243 340 247 340 247 340 c 1
 247 340 370 606 370 606 c 1
 370 606 484 606 484 606 c 1
 484 606 299 229 299 229 c 1
 299 229 299 0 299 0 c 1
EndSplineSet
Position2: "'cpsp' Capital Spacing lookup 0 subtable" dx=5 dy=0 dh=10 dv=0
EndChar

StartChar: Z
Encoding: 90 90 126
Width: 443
GlyphClass: 2
Flags: MW
HStem: 0 101<169 424 169 424> 506 100<33 263 33 418>
VStem: 14 410<0 43 43 43>
AnchorPoint: "Anchor-1" 0 0 basechar 0
AnchorPoint: "Anchor-0" 222 606 basechar 0
LayerCount: 2
Back
Fore
SplineSet
169 101 m 1
 169 101 424 101 424 101 c 1
 424 101 424 0 424 0 c 1
 424 0 14 0 14 0 c 1
 14 0 14 43 14 43 c 1
 14 43 263 506 263 506 c 1
 263 506 33 506 33 506 c 1
 33 506 33 606 33 606 c 1
 33 606 418 606 418 606 c 1
 418 606 418 562 418 562 c 1
 418 562 169 101 169 101 c 1
EndSplineSet
Position2: "'cpsp' Capital Spacing lookup 0 subtable" dx=5 dy=0 dh=10 dv=0
EndChar

StartChar: Zacute
Encoding: 377 377 127
Width: 443
GlyphClass: 2
Flags: MW
HStem: 0 101<169 424 169 424> 506 100<33 263 33 418> 664 117<237 248 161 343>
VStem: 14 410<0 43 43 43>
LayerCount: 2
Back
Fore
SplineSet
248 664 m 1
 248 664 161 664 161 664 c 1
 161 664 237 781 237 781 c 1
 237 781 343 781 343 781 c 1
 343 781 344 778 344 778 c 1
 344 778 248 664 248 664 c 1
169 101 m 1
 169 101 424 101 424 101 c 1
 424 101 424 0 424 0 c 1
 424 0 14 0 14 0 c 1
 14 0 14 43 14 43 c 1
 14 43 263 506 263 506 c 1
 263 506 33 506 33 506 c 1
 33 506 33 606 33 606 c 1
 33 606 418 606 418 606 c 1
 418 606 418 562 418 562 c 1
 418 562 169 101 169 101 c 1
EndSplineSet
Position2: "'cpsp' Capital Spacing lookup 0 subtable" dx=5 dy=0 dh=10 dv=0
EndChar

StartChar: Zcaron
Encoding: 381 381 128
Width: 443
GlyphClass: 2
Flags: MW
HStem: 0 101<169 424 169 424> 506 100<33 263 33 418> 661 120<179 179 179 182 261 265>
VStem: 14 410<0 43 43 43>
LayerCount: 2
Back
Fore
SplineSet
179 661 m 1
 179 661 103 781 103 781 c 1
 103 781 182 781 182 781 c 1
 182 781 222 720 222 720 c 1
 222 720 261 781 261 781 c 1
 261 781 340 781 340 781 c 1
 340 781 265 661 265 661 c 1
 265 661 179 661 179 661 c 1
169 101 m 1
 169 101 424 101 424 101 c 1
 424 101 424 0 424 0 c 1
 424 0 14 0 14 0 c 1
 14 0 14 43 14 43 c 1
 14 43 263 506 263 506 c 1
 263 506 33 506 33 506 c 1
 33 506 33 606 33 606 c 1
 33 606 418 606 418 606 c 1
 418 606 418 562 418 562 c 1
 418 562 169 101 169 101 c 1
EndSplineSet
Position2: "'cpsp' Capital Spacing lookup 0 subtable" dx=5 dy=0 dh=10 dv=0
EndChar

StartChar: Zdotaccent
Encoding: 379 379 129
Width: 443
GlyphClass: 2
Flags: MW
HStem: 0 101<169 424 169 424> 506 100<33 263 33 418> 679 102<174 269 174 269>
VStem: 174 95<679 781 679 781>
LayerCount: 2
Back
Fore
SplineSet
174 679 m 1
 174 679 174 781 174 781 c 1
 174 781 269 781 269 781 c 1
 269 781 269 679 269 679 c 1
 269 679 174 679 174 679 c 1
169 101 m 1
 169 101 424 101 424 101 c 1
 424 101 424 0 424 0 c 1
 424 0 14 0 14 0 c 1
 14 0 14 43 14 43 c 1
 14 43 263 506 263 506 c 1
 263 506 33 506 33 506 c 1
 33 506 33 606 33 606 c 1
 33 606 418 606 418 606 c 1
 418 606 418 562 418 562 c 1
 418 562 169 101 169 101 c 1
EndSplineSet
Position2: "'cpsp' Capital Spacing lookup 0 subtable" dx=5 dy=0 dh=10 dv=0
EndChar

StartChar: a
Encoding: 97 97 130
Width: 403
GlyphClass: 2
Flags: MW
HStem: -11 89<155 160> 206 77<212 243> 389 87<172.5 214.5>
VStem: 12 109<114 160 114 183> 34 105<327 385.5> 243 107<179 206 206 206 283 331 331 339>
AnchorPoint: "Anchor-1" 0 0 basechar 0
AnchorPoint: "Anchor-0" 202 465 basechar 0
LayerCount: 2
Back
Fore
SplineSet
192 476 m 0xf4
 300 476 350 425 350 339 c 2
 350 339 350 110 350 110 c 2
 350 88 362 79 375 79 c 2
 375 79 396 79 396 79 c 1
 396 79 396 4 396 4 c 1
 385 -3 365 -11 333 -11 c 0
 291 -11 262 14 251 50 c 1
 251 50 247 50 247 50 c 1
 220 13 191 -11 129 -11 c 0
 86 -11 12 12 12 120 c 0xf4
 12 246 108 283 243 283 c 1
 243 283 243 331 243 331 c 2
 243 363 235 389 194 389 c 0
 151 389 139 362 139 340 c 2
 139 340 139 327 139 327 c 1
 139 327 35 327 35 327 c 1
 34 332 34 339 34 347 c 0xec
 34 424 96 476 192 476 c 0xf4
243 206 m 1
 181 206 121 190 121 130 c 0
 121 98 137 78 173 78 c 0
 224 78 243 125 243 179 c 2
 243 179 243 206 243 206 c 1
EndSplineSet
Substitution2: "Single Substitution lookup 33 subtable" ordfeminine
Substitution2: "'aalt' Access All Alternates lookup 0 subtable" ordfeminine
EndChar

StartChar: aacute
Encoding: 225 225 131
Width: 403
GlyphClass: 2
Flags: MW
HStem: -11 89<155 160> 206 77<212 243> 389 87<172.5 214.5> 522 117<207 218 131 313>
VStem: 12 109<114 160 114 183> 34 105<327 385.5> 243 107<179 206 206 206 283 331 331 339>
LayerCount: 2
Back
Fore
SplineSet
218 522 m 1xfa
 218 522 131 522 131 522 c 1
 131 522 207 639 207 639 c 1
 207 639 313 639 313 639 c 1
 313 639 314 636 314 636 c 1
 314 636 218 522 218 522 c 1xfa
192 476 m 0
 300 476 350 425 350 339 c 2
 350 339 350 110 350 110 c 2
 350 88 362 79 375 79 c 2
 375 79 396 79 396 79 c 1
 396 79 396 4 396 4 c 1
 385 -3 365 -11 333 -11 c 0
 291 -11 262 14 251 50 c 1
 251 50 247 50 247 50 c 1
 220 13 191 -11 129 -11 c 0
 86 -11 12 12 12 120 c 0xfa
 12 246 108 283 243 283 c 1
 243 283 243 331 243 331 c 2
 243 363 235 389 194 389 c 0
 151 389 139 362 139 340 c 2
 139 340 139 327 139 327 c 1
 139 327 35 327 35 327 c 1
 34 332 34 339 34 347 c 0xf6
 34 424 96 476 192 476 c 0
243 206 m 1
 181 206 121 190 121 130 c 0
 121 98 137 78 173 78 c 0
 224 78 243 125 243 179 c 2
 243 179 243 206 243 206 c 1
EndSplineSet
EndChar

StartChar: abreve
Encoding: 259 259 132
Width: 403
GlyphClass: 2
Flags: MW
HStem: -11 89<155 160> 206 77<212 243> 389 87<172.5 214.5> 545 65<177 206 177 227.5> 545 94<73 227.5>
VStem: 12 109<114 160 114 183> 34 105<327 385.5> 243 107<179 206 206 206 283 331 331 339>
LayerCount: 2
Back
Fore
SplineSet
310 639 m 1xed
 310 595 264 545 191 545 c 0
 118 545 73 595 73 639 c 1
 73 639 140 639 140 639 c 1xed
 142 627 163 610 191 610 c 0xf5
 221 610 242 627 244 639 c 1
 244 639 310 639 310 639 c 1xed
192 476 m 0
 300 476 350 425 350 339 c 2
 350 339 350 110 350 110 c 2
 350 88 362 79 375 79 c 2
 375 79 396 79 396 79 c 1
 396 79 396 4 396 4 c 1
 385 -3 365 -11 333 -11 c 0
 291 -11 262 14 251 50 c 1
 251 50 247 50 247 50 c 1
 220 13 191 -11 129 -11 c 0
 86 -11 12 12 12 120 c 0xed
 12 246 108 283 243 283 c 1
 243 283 243 331 243 331 c 2
 243 363 235 389 194 389 c 0
 151 389 139 362 139 340 c 2
 139 340 139 327 139 327 c 1
 139 327 35 327 35 327 c 1
 34 332 34 339 34 347 c 0xeb
 34 424 96 476 192 476 c 0
243 206 m 1
 181 206 121 190 121 130 c 0
 121 98 137 78 173 78 c 0
 224 78 243 125 243 179 c 2
 243 179 243 206 243 206 c 1
EndSplineSet
EndChar

StartChar: acircumflex
Encoding: 226 226 133
Width: 403
GlyphClass: 2
Flags: MW
HStem: -11 89<155 160> 206 77<212 243> 389 87<172.5 214.5> 520 119<149 152 73 236 232 232 232 236 149 311> 581 58<192 192>
VStem: 12 109<114 160 114 183> 34 105<327 385.5> 243 107<179 206 206 206 283 331 331 339>
LayerCount: 2
Back
Fore
SplineSet
192 581 m 1xed
 192 581 152 520 152 520 c 1
 152 520 73 520 73 520 c 1
 73 520 149 639 149 639 c 1
 149 639 236 639 236 639 c 1
 236 639 311 520 311 520 c 1
 311 520 232 520 232 520 c 1xf3
 232 520 192 581 192 581 c 1xed
192 476 m 0
 300 476 350 425 350 339 c 2
 350 339 350 110 350 110 c 2
 350 88 362 79 375 79 c 2
 375 79 396 79 396 79 c 1
 396 79 396 4 396 4 c 1
 385 -3 365 -11 333 -11 c 0
 291 -11 262 14 251 50 c 1
 251 50 247 50 247 50 c 1
 220 13 191 -11 129 -11 c 0
 86 -11 12 12 12 120 c 0xf5
 12 246 108 283 243 283 c 1
 243 283 243 331 243 331 c 2
 243 363 235 389 194 389 c 0
 151 389 139 362 139 340 c 2
 139 340 139 327 139 327 c 1
 139 327 35 327 35 327 c 1
 34 332 34 339 34 347 c 0
 34 424 96 476 192 476 c 0
243 206 m 1xf5
 181 206 121 190 121 130 c 0
 121 98 137 78 173 78 c 0
 224 78 243 125 243 179 c 2
 243 179 243 206 243 206 c 1xf5
EndSplineSet
EndChar

StartChar: adieresis
Encoding: 228 228 134
Width: 403
GlyphClass: 2
Flags: MW
HStem: -11 89<155 160> 206 77<212 243> 389 87<172.5 214.5> 543 96<71 159 71 159 225 313 71 225>
VStem: 12 109<114 160 114 183> 34 105<327 385.5> 71 88<543 639 543 639> 225 88<543 639 543 639> 243 107<179 206 206 206 283 331 331 339>
LayerCount: 2
Back
Fore
SplineSet
71 543 m 1xf280
 71 543 71 639 71 639 c 1
 71 639 159 639 159 639 c 1
 159 639 159 543 159 543 c 1
 159 543 71 543 71 543 c 1xf280
225 543 m 1xf3
 225 543 225 639 225 639 c 1
 225 639 313 639 313 639 c 1
 313 639 313 543 313 543 c 1
 313 543 225 543 225 543 c 1xf3
192 476 m 0xf480
 300 476 350 425 350 339 c 2
 350 339 350 110 350 110 c 2
 350 88 362 79 375 79 c 2
 375 79 396 79 396 79 c 1
 396 79 396 4 396 4 c 1
 385 -3 365 -11 333 -11 c 0
 291 -11 262 14 251 50 c 1
 251 50 247 50 247 50 c 1
 220 13 191 -11 129 -11 c 0
 86 -11 12 12 12 120 c 0xf880
 12 246 108 283 243 283 c 1
 243 283 243 331 243 331 c 2
 243 363 235 389 194 389 c 0
 151 389 139 362 139 340 c 2
 139 340 139 327 139 327 c 1
 139 327 35 327 35 327 c 1
 34 332 34 339 34 347 c 0
 34 424 96 476 192 476 c 0xf480
243 206 m 1xf880
 181 206 121 190 121 130 c 0
 121 98 137 78 173 78 c 0
 224 78 243 125 243 179 c 2
 243 179 243 206 243 206 c 1xf880
EndSplineSet
EndChar

StartChar: agrave
Encoding: 224 224 135
Width: 403
GlyphClass: 2
Flags: MW
HStem: -11 89<155 160> 206 77<212 243> 389 87<172.5 214.5> 522 117<165 165 165 177 71 253>
VStem: 12 109<114 160 114 183> 34 105<327 385.5> 243 107<179 206 206 206 283 331 331 339>
LayerCount: 2
Back
Fore
SplineSet
165 522 m 1xfa
 165 522 70 636 70 636 c 1
 70 636 71 639 71 639 c 1
 71 639 177 639 177 639 c 1
 177 639 253 522 253 522 c 1
 253 522 165 522 165 522 c 1xfa
192 476 m 0
 300 476 350 425 350 339 c 2
 350 339 350 110 350 110 c 2
 350 88 362 79 375 79 c 2
 375 79 396 79 396 79 c 1
 396 79 396 4 396 4 c 1
 385 -3 365 -11 333 -11 c 0
 291 -11 262 14 251 50 c 1
 251 50 247 50 247 50 c 1
 220 13 191 -11 129 -11 c 0
 86 -11 12 12 12 120 c 0xfa
 12 246 108 283 243 283 c 1
 243 283 243 331 243 331 c 2
 243 363 235 389 194 389 c 0
 151 389 139 362 139 340 c 2
 139 340 139 327 139 327 c 1
 139 327 35 327 35 327 c 1
 34 332 34 339 34 347 c 0xf6
 34 424 96 476 192 476 c 0
243 206 m 1
 181 206 121 190 121 130 c 0
 121 98 137 78 173 78 c 0
 224 78 243 125 243 179 c 2
 243 179 243 206 243 206 c 1
EndSplineSet
EndChar

StartChar: amacron
Encoding: 257 257 136
Width: 403
GlyphClass: 2
Flags: MW
HStem: -11 89<155 160> 206 77<212 243> 389 87<172.5 214.5> 530 76<79 305 79 305>
VStem: 12 109<114 160 114 183> 34 105<327 385.5> 79 226<530 606 530 606> 243 107<179 206 206 206 283 331 331 339>
LayerCount: 2
Back
Fore
SplineSet
79 606 m 1xf2
 79 606 305 606 305 606 c 1
 305 606 305 530 305 530 c 1
 305 530 79 530 79 530 c 1
 79 530 79 606 79 606 c 1xf2
192 476 m 0xf5
 300 476 350 425 350 339 c 2
 350 339 350 110 350 110 c 2
 350 88 362 79 375 79 c 2
 375 79 396 79 396 79 c 1
 396 79 396 4 396 4 c 1
 385 -3 365 -11 333 -11 c 0
 291 -11 262 14 251 50 c 1
 251 50 247 50 247 50 c 1
 220 13 191 -11 129 -11 c 0
 86 -11 12 12 12 120 c 0xf9
 12 246 108 283 243 283 c 1
 243 283 243 331 243 331 c 2
 243 363 235 389 194 389 c 0
 151 389 139 362 139 340 c 2
 139 340 139 327 139 327 c 1
 139 327 35 327 35 327 c 1
 34 332 34 339 34 347 c 0
 34 424 96 476 192 476 c 0xf5
243 206 m 1xf9
 181 206 121 190 121 130 c 0
 121 98 137 78 173 78 c 0
 224 78 243 125 243 179 c 2
 243 179 243 206 243 206 c 1xf9
EndSplineSet
EndChar

StartChar: aogonek
Encoding: 261 261 137
Width: 403
GlyphClass: 2
Flags: MW
HStem: -164 61<350.5 429> -152 21G<429 429> -152 49<409 429> -11 89<155 160> -8 21G 206 77<212 243> 389 87<172.5 214.5>
VStem: 12 109<114 160 114 183> 34 105<327 385.5> 243 107<179 206 206 206 283 331 331 339> 283 113<-115.5 79>
LayerCount: 2
Back
Fore
SplineSet
429 -152 m 1x4f20
 408 -160 390 -164 370 -164 c 0
 331 -164 283 -146 283 -85 c 0
 283 -50 294 -27 310 -8 c 1x8f20
 280 -1 260 21 251 50 c 1
 251 50 247 50 247 50 c 1
 220 13 191 -11 129 -11 c 0
 86 -11 12 12 12 120 c 0x5720
 12 246 108 283 243 283 c 1
 243 283 243 331 243 331 c 2
 243 363 235 389 194 389 c 0
 151 389 139 362 139 340 c 2
 139 340 139 327 139 327 c 1
 139 327 35 327 35 327 c 1
 34 332 34 339 34 347 c 0
 34 424 96 476 192 476 c 0
 300 476 350 425 350 339 c 2
 350 339 350 110 350 110 c 2
 350 88 362 79 375 79 c 2x4ec0
 375 79 396 79 396 79 c 1
 396 79 396 4 396 4 c 1
 386 -9 370 -34 370 -58 c 0
 370 -81 380 -103 409 -103 c 2
 409 -103 429 -103 429 -103 c 1x2f20
 429 -103 429 -152 429 -152 c 1x4f20
243 206 m 1x5740
 181 206 121 190 121 130 c 0
 121 98 137 78 173 78 c 0
 224 78 243 125 243 179 c 2
 243 179 243 206 243 206 c 1x5740
EndSplineSet
EndChar

StartChar: aring
Encoding: 229 229 138
Width: 403
GlyphClass: 2
Flags: MW
HStem: -11 89<155 160> 206 77<212 243> 389 87<172.5 214.5> 496 44<180.5 203 180.5 215.5> 621 45<180.5 203>
VStem: 12 109<114 160 114 183> 34 105<327 385.5> 107 44<569.5 592.5 569.5 604.5> 232 45<569.5 592.5> 243 107<179 206 206 206 283 331 331 339>
LayerCount: 2
Back
Fore
SplineSet
192 666 m 0xf980
 240 666 277 627 277 581 c 0
 277 534 239 496 192 496 c 0
 146 496 107 533 107 581 c 0
 107 628 145 666 192 666 c 0xf980
192 621 m 0
 169 621 151 604 151 581 c 0
 151 558 169 540 192 540 c 0
 214 540 232 558 232 581 c 0
 232 604 214 621 192 621 c 0
192 476 m 0xea40
 300 476 350 425 350 339 c 2
 350 339 350 110 350 110 c 2
 350 88 362 79 375 79 c 2
 375 79 396 79 396 79 c 1
 396 79 396 4 396 4 c 1
 385 -3 365 -11 333 -11 c 0
 291 -11 262 14 251 50 c 1
 251 50 247 50 247 50 c 1
 220 13 191 -11 129 -11 c 0
 86 -11 12 12 12 120 c 0xec40
 12 246 108 283 243 283 c 1
 243 283 243 331 243 331 c 2
 243 363 235 389 194 389 c 0
 151 389 139 362 139 340 c 2
 139 340 139 327 139 327 c 1
 139 327 35 327 35 327 c 1
 34 332 34 339 34 347 c 0
 34 424 96 476 192 476 c 0xea40
243 206 m 1xec40
 181 206 121 190 121 130 c 0
 121 98 137 78 173 78 c 0
 224 78 243 125 243 179 c 2
 243 179 243 206 243 206 c 1xec40
EndSplineSet
EndChar

StartChar: aringacute
Encoding: 507 507 139
Width: 442
GlyphClass: 2
Flags: MW
HStem: -11 89<155 160> 206 77<212 243> 389 87<172.5 214.5> 496 42<180.5 203 180.5 215.5> 617 43<180.5 203> 679 102<220 241 154 326>
VStem: 12 109<114 160 114 183> 34 105<327 385.5> 107 44<566.5 589 566.5 600.5> 232 45<566.5 589> 243 107<179 206 206 206 283 331 331 339>
LayerCount: 2
Back
Fore
SplineSet
241 679 m 1xe4a0
 241 679 154 679 154 679 c 1
 154 679 220 781 220 781 c 1
 220 781 326 781 326 781 c 1
 326 781 327 778 327 778 c 1
 327 778 241 679 241 679 c 1xe4a0
192 660 m 0xfcc0
 240 660 277 622 277 578 c 0
 277 533 239 496 192 496 c 0
 146 496 107 532 107 578 c 0
 107 623 145 660 192 660 c 0xfcc0
192 617 m 0
 169 617 151 600 151 578 c 0
 151 555 169 538 192 538 c 0
 214 538 232 555 232 578 c 0
 232 600 214 617 192 617 c 0
192 476 m 0xe520
 300 476 350 425 350 339 c 2
 350 339 350 110 350 110 c 2
 350 88 362 79 375 79 c 2
 375 79 396 79 396 79 c 1
 396 79 396 4 396 4 c 1
 385 -3 365 -11 333 -11 c 0
 291 -11 262 14 251 50 c 1
 251 50 247 50 247 50 c 1
 220 13 191 -11 129 -11 c 0
 86 -11 12 12 12 120 c 0xe620
 12 246 108 283 243 283 c 1
 243 283 243 331 243 331 c 2
 243 363 235 389 194 389 c 0
 151 389 139 362 139 340 c 2
 139 340 139 327 139 327 c 1
 139 327 35 327 35 327 c 1
 34 332 34 339 34 347 c 0
 34 424 96 476 192 476 c 0xe520
243 206 m 1xe620
 181 206 121 190 121 130 c 0
 121 98 137 78 173 78 c 0
 224 78 243 125 243 179 c 2
 243 179 243 206 243 206 c 1xe620
EndSplineSet
EndChar

StartChar: atilde
Encoding: 227 227 140
Width: 403
GlyphClass: 2
Flags: MW
HStem: -11 89<155 160> 206 77<212 243> 389 87<172.5 214.5> 531 75<242 257 238 284.5> 531 108<99 102 43 141 282 284.5> 564 75<127 141 99 146>
VStem: 12 109<114 160 114 183> 34 105<327 385.5> 243 107<179 206 206 206 283 331 331 339>
LayerCount: 2
Back
Fore
SplineSet
340 639 m 1xea80
 340 591 316 531 253 531 c 0xea80
 231 531 212 540 192 548 c 0
 174 556 156 564 136 564 c 0xe680
 118 564 105 555 102 531 c 1
 102 531 43 531 43 531 c 1
 43 580 68 639 130 639 c 0xea80
 152 639 172 630 191 622 c 0
 210 614 228 606 248 606 c 0xf280
 266 606 278 614 282 639 c 1
 282 639 340 639 340 639 c 1xea80
192 476 m 0
 300 476 350 425 350 339 c 2
 350 339 350 110 350 110 c 2
 350 88 362 79 375 79 c 2
 375 79 396 79 396 79 c 1
 396 79 396 4 396 4 c 1
 385 -3 365 -11 333 -11 c 0
 291 -11 262 14 251 50 c 1
 251 50 247 50 247 50 c 1
 220 13 191 -11 129 -11 c 0
 86 -11 12 12 12 120 c 0xea80
 12 246 108 283 243 283 c 1
 243 283 243 331 243 331 c 2
 243 363 235 389 194 389 c 0
 151 389 139 362 139 340 c 2
 139 340 139 327 139 327 c 1
 139 327 35 327 35 327 c 1
 34 332 34 339 34 347 c 0xe980
 34 424 96 476 192 476 c 0
243 206 m 1
 181 206 121 190 121 130 c 0
 121 98 137 78 173 78 c 0
 224 78 243 125 243 179 c 2
 243 179 243 206 243 206 c 1
EndSplineSet
EndChar

StartChar: ae
Encoding: 230 230 141
Width: 644
GlyphClass: 2
Flags: MW
HStem: -11 87<419.5 464 419.5 493> 206 77<232.5 263 375 499> 389 87<193 235 419.5 461.5>
VStem: 33 108<114 160 114 183> 55 104<327 385.5> 263 111<179 206 206 206 206 331> 499 111
AnchorPoint: "Anchor-1" 0 0 basechar 0
AnchorPoint: "Anchor-0" 323 465 basechar 0
LayerCount: 2
Back
Fore
SplineSet
442 476 m 0xf6
 554 476 610 400 610 232 c 2
 610 232 610 206 610 206 c 1
 610 206 374 206 374 206 c 1
 375 123 393 76 446 76 c 0
 482 76 505 109 505 164 c 1
 505 164 610 164 610 164 c 1
 610 45 540 -11 446 -11 c 0
 384 -11 337 10 307 52 c 1
 273 15 232 -11 167 -11 c 0
 117 -11 33 12 33 120 c 0xf6
 33 246 128 283 263 283 c 1
 263 283 263 331 263 331 c 2
 263 363 255 389 215 389 c 0
 171 389 159 362 159 340 c 2
 159 340 159 327 159 327 c 1
 159 327 56 327 56 327 c 1
 55 332 55 339 55 347 c 0xee
 55 424 117 476 212 476 c 0
 265 476 305 460 331 431 c 1
 360 461 397 476 442 476 c 0xf6
442 389 m 0
 397 389 378 350 375 283 c 1
 375 283 499 283 499 283 c 1
 499 350 481 389 442 389 c 0
263 206 m 1
 202 206 141 190 141 130 c 0
 141 98 157 78 194 78 c 0
 244 78 263 125 263 179 c 2
 263 179 263 206 263 206 c 1
EndSplineSet
EndChar

StartChar: aeacute
Encoding: 509 509 142
Width: 644
GlyphClass: 2
Flags: MW
HStem: -11 87<419.5 464 419.5 493> 206 77<232.5 263 375 499> 389 87<193 235 419.5 461.5> 522 117<338 349 262 444>
VStem: 33 108<114 160 114 183> 55 104<327 385.5> 263 111<179 206 206 206 206 331> 499 111
LayerCount: 2
Back
Fore
SplineSet
349 522 m 1xfb
 349 522 262 522 262 522 c 1
 262 522 338 639 338 639 c 1
 338 639 444 639 444 639 c 1
 444 639 445 636 445 636 c 1
 445 636 349 522 349 522 c 1xfb
442 476 m 0
 554 476 610 400 610 232 c 2
 610 232 610 206 610 206 c 1
 610 206 374 206 374 206 c 1
 375 123 393 76 446 76 c 0
 482 76 505 109 505 164 c 1
 505 164 610 164 610 164 c 1
 610 45 540 -11 446 -11 c 0
 384 -11 337 10 307 52 c 1
 273 15 232 -11 167 -11 c 0
 117 -11 33 12 33 120 c 0xfb
 33 246 128 283 263 283 c 1
 263 283 263 331 263 331 c 2
 263 363 255 389 215 389 c 0
 171 389 159 362 159 340 c 2
 159 340 159 327 159 327 c 1
 159 327 56 327 56 327 c 1
 55 332 55 339 55 347 c 0xf7
 55 424 117 476 212 476 c 0
 265 476 305 460 331 431 c 1
 360 461 397 476 442 476 c 0
442 389 m 0
 397 389 378 350 375 283 c 1
 375 283 499 283 499 283 c 1
 499 350 481 389 442 389 c 0
263 206 m 1
 202 206 141 190 141 130 c 0
 141 98 157 78 194 78 c 0
 244 78 263 125 263 179 c 2
 263 179 263 206 263 206 c 1
EndSplineSet
EndChar

StartChar: b
Encoding: 98 98 143
Width: 443
GlyphClass: 2
Flags: MW
HStem: -11 97<235 251 199.5 303> 0 86<49 251> 57 29 379 97<239.5 251> 619 20G<49 155 155 155>
VStem: 49 106<174 216 216 248 417 639> 296 111<216 249 249 291>
LayerCount: 2
Back
Fore
SplineSet
159 417 m 1x9e
 176 454 216 476 263 476 c 0
 345 476 407 402 407 233 c 0
 407 65 349 -11 257 -11 c 0x9e
 213 -11 175 12 152 57 c 1
 152 57 148 57 148 57 c 1x3e
 148 57 137 0 137 0 c 1
 137 0 49 0 49 0 c 1x5e
 49 0 49 639 49 639 c 1
 49 639 155 639 155 639 c 1
 155 639 155 417 155 417 c 1
 155 417 159 417 159 417 c 1x9e
225 379 m 0
 174 379 155 331 155 248 c 2
 155 248 155 216 155 216 c 2
 155 132 174 86 225 86 c 0
 277 86 296 132 296 216 c 2
 296 216 296 249 296 249 c 2
 296 333 277 379 225 379 c 0
EndSplineSet
EndChar

StartChar: c
Encoding: 99 99 144
Width: 403
GlyphClass: 2
Flags: MW
HStem: -11 90<188 231 188 260.5> 386 90<186.5 227>
VStem: 36 111<171 216 216 249 171 316> 266 105<143 175>
AnchorPoint: "Anchor-1" 202 0 basechar 0
AnchorPoint: "Anchor-0" 202 465 basechar 0
LayerCount: 2
Back
Fore
SplineSet
209 476 m 0
 308 476 371 420 371 290 c 1
 371 290 263 290 263 290 c 1
 263 355 245 386 209 386 c 0
 164 386 147 339 147 249 c 2
 147 249 147 216 147 216 c 2
 147 126 164 79 212 79 c 0
 250 79 266 111 266 175 c 1
 266 175 371 175 371 175 c 1
 371 45 309 -11 212 -11 c 0
 91 -11 36 65 36 232 c 0
 36 400 94 476 209 476 c 0
EndSplineSet
EndChar

StartChar: cacute
Encoding: 263 263 145
Width: 403
GlyphClass: 2
Flags: MW
HStem: -11 90<188 231 188 260.5> 386 90<186.5 227> 522 117<225 237 149 331>
VStem: 36 111<171 216 216 249 171 316> 266 105<143 175>
LayerCount: 2
Back
Fore
SplineSet
237 522 m 1
 237 522 149 522 149 522 c 1
 149 522 225 639 225 639 c 1
 225 639 331 639 331 639 c 1
 331 639 331 636 331 636 c 1
 331 636 237 522 237 522 c 1
209 476 m 0
 308 476 371 420 371 290 c 1
 371 290 263 290 263 290 c 1
 263 355 245 386 209 386 c 0
 164 386 147 339 147 249 c 2
 147 249 147 216 147 216 c 2
 147 126 164 79 212 79 c 0
 250 79 266 111 266 175 c 1
 266 175 371 175 371 175 c 1
 371 45 309 -11 212 -11 c 0
 91 -11 36 65 36 232 c 0
 36 400 94 476 209 476 c 0
EndSplineSet
EndChar

StartChar: ccaron
Encoding: 269 269 146
Width: 403
GlyphClass: 2
Flags: MW
HStem: -11 90<188 231 188 260.5> 386 90<186.5 227> 520 119<167 171 249 254 167 167>
VStem: 36 111<171 216 216 249 171 316> 266 105<143 175>
LayerCount: 2
Back
Fore
SplineSet
91 639 m 1
 91 639 171 639 171 639 c 1
 171 639 210 578 210 578 c 1
 210 578 249 639 249 639 c 1
 249 639 329 639 329 639 c 1
 329 639 254 520 254 520 c 1
 254 520 167 520 167 520 c 1
 167 520 91 639 91 639 c 1
209 476 m 0
 308 476 371 420 371 290 c 1
 371 290 263 290 263 290 c 1
 263 355 245 386 209 386 c 0
 164 386 147 339 147 249 c 2
 147 249 147 216 147 216 c 2
 147 126 164 79 212 79 c 0
 250 79 266 111 266 175 c 1
 266 175 371 175 371 175 c 1
 371 45 309 -11 212 -11 c 0
 91 -11 36 65 36 232 c 0
 36 400 94 476 209 476 c 0
EndSplineSet
EndChar

StartChar: ccedilla
Encoding: 231 231 147
Width: 403
GlyphClass: 2
Flags: MW
HStem: -161 50<191 192 192 201.5 129 222> -154 21G<129 129> -68 39<165 230> -10 21G<232 232> -7 21G<172 172> 386 90<186.5 227>
VStem: 36 111<171 216 216 249 171 316> 168.5 62.5 224 76<-97.5 -82> 263 108<290 322.5>
LayerCount: 2
Back
Fore
SplineSet
209 476 m 0x8e40
 308 476 371 420 371 290 c 1
 371 290 263 290 263 290 c 1
 263 355 245 386 209 386 c 0
 164 386 147 339 147 249 c 2
 147 249 147 216 147 216 c 2
 147 126 164 79 212 79 c 0
 250 79 266 111 266 175 c 1
 266 175 371 175 371 175 c 1xae40
 371 54 317 -2 232 -10 c 1x9740
 232 -10 230 -29 230 -29 c 1
 268 -32 300 -49 300 -89 c 0
 300 -149 241 -161 203 -161 c 0xae80
 179 -161 150 -158 129 -154 c 1x4e40
 129 -154 129 -111 129 -111 c 1
 129 -111 192 -111 192 -111 c 2
 211 -111 224 -106 224 -89 c 0
 224 -75 217 -68 194 -68 c 2xae80
 194 -68 165 -68 165 -68 c 1xaf40
 165 -68 172 -7 172 -7 c 1
 79 8 36 85 36 232 c 0
 36 400 94 476 209 476 c 0x8e40
EndSplineSet
EndChar

StartChar: ccircumflex
Encoding: 265 265 148
Width: 403
GlyphClass: 2
Flags: MW
HStem: -11 90<188 231 188 260.5> 386 90<186.5 227> 520 119<167 171 91 254 249 249 249 254 167 329> 581 58<210 210>
VStem: 36 111<171 216 216 249 171 316> 266 105<143 175>
LayerCount: 2
Back
Fore
SplineSet
210 581 m 1xdc
 210 581 171 520 171 520 c 1
 171 520 91 520 91 520 c 1
 91 520 167 639 167 639 c 1
 167 639 254 639 254 639 c 1
 254 639 329 520 329 520 c 1
 329 520 249 520 249 520 c 1xec
 249 520 210 581 210 581 c 1xdc
209 476 m 0
 308 476 371 420 371 290 c 1
 371 290 263 290 263 290 c 1
 263 355 245 386 209 386 c 0
 164 386 147 339 147 249 c 2
 147 249 147 216 147 216 c 2
 147 126 164 79 212 79 c 0
 250 79 266 111 266 175 c 1
 266 175 371 175 371 175 c 1
 371 45 309 -11 212 -11 c 0
 91 -11 36 65 36 232 c 0
 36 400 94 476 209 476 c 0
EndSplineSet
EndChar

StartChar: cdotaccent
Encoding: 267 267 149
Width: 403
GlyphClass: 2
Flags: MW
HStem: -11 90<188 231 188 260.5> 386 90<186.5 227> 537 102<163 257 163 257>
VStem: 36 111<171 216 216 249 171 316> 163 94<537 639 537 639> 266 105<143 175>
LayerCount: 2
Back
Fore
SplineSet
163 639 m 1
 163 639 257 639 257 639 c 1
 257 639 257 537 257 537 c 1
 257 537 163 537 163 537 c 1
 163 537 163 639 163 639 c 1
209 476 m 0xfc
 308 476 371 420 371 290 c 1
 371 290 263 290 263 290 c 1
 263 355 245 386 209 386 c 0
 164 386 147 339 147 249 c 2
 147 249 147 216 147 216 c 2
 147 126 164 79 212 79 c 0
 250 79 266 111 266 175 c 1
 266 175 371 175 371 175 c 1
 371 45 309 -11 212 -11 c 0
 91 -11 36 65 36 232 c 0
 36 400 94 476 209 476 c 0xfc
EndSplineSet
EndChar

StartChar: d
Encoding: 100 100 150
Width: 443
GlyphClass: 2
Flags: MW
HStem: -11 97<191.5 208> 0 86<191.5 394 191.5 306> 379 38 379 97<191.5 203.5 139 243> 619 20G<288 394 394 394>
VStem: 36 111<174 216 216 249 174 317.5> 288 106<216 248 248 289.5 417 639 0 639>
LayerCount: 2
Back
Fore
SplineSet
295 57 m 1x9e
 295 57 291 57 291 57 c 1
 268 12 230 -11 186 -11 c 0
 94 -11 36 65 36 233 c 0
 36 402 98 476 180 476 c 0x9e
 227 476 267 454 284 417 c 1
 284 417 288 417 288 417 c 1
 288 417 288 639 288 639 c 1
 288 639 394 639 394 639 c 1
 394 639 394 0 394 0 c 1
 394 0 306 0 306 0 c 1x6e
 306 0 295 57 295 57 c 1x9e
217 379 m 0
 166 379 147 333 147 249 c 2
 147 249 147 216 147 216 c 2
 147 132 166 86 217 86 c 0
 269 86 288 132 288 216 c 2
 288 216 288 248 288 248 c 2
 288 331 269 379 217 379 c 0
EndSplineSet
EndChar

StartChar: eth
Encoding: 240 240 151
Width: 443
GlyphClass: 2
Flags: MW
HStem: -11 90<194.5 249.5 194.5 284> 386 90<194.5 203.5 147.5 249.5> 452 20G<243 243> 521 63 521 118 540 67 587 20
VStem: 36 111<171 216 216 249 171 312> 297 111<216 249 249 294>
LayerCount: 2
Back
Fore
SplineSet
228 639 m 1xa980
 240 629 255 614 272 597 c 1
 272 597 387 607 387 607 c 1xa380
 387 607 387 543 387 543 c 1
 387 543 321 537 321 537 c 1
 367 469 408 372 408 232 c 0
 408 65 346 -11 222 -11 c 0
 98 -11 36 65 36 232 c 0
 36 392 98 476 197 476 c 0xc580
 210 476 227 473 240 469 c 1
 240 469 243 472 243 472 c 1
 234 489 222 508 210 526 c 1
 210 526 95 516 95 516 c 1xa980
 95 516 95 581 95 581 c 1xb180
 95 581 162 587 162 587 c 1
 151 599 141 610 132 619 c 0xa380
 125 625 120 631 115 636 c 1
 115 636 117 639 117 639 c 1
 117 639 228 639 228 639 c 1xa980
222 386 m 0xc980
 167 386 147 339 147 249 c 2
 147 249 147 216 147 216 c 2
 147 126 167 79 222 79 c 0
 277 79 297 126 297 216 c 2
 297 216 297 249 297 249 c 2
 297 339 277 386 222 386 c 0xc980
EndSplineSet
EndChar

StartChar: dcaron
Encoding: 271 271 152
Width: 521
GlyphClass: 2
Flags: MW
HStem: -11 97<191.5 208> 0 86<191.5 394 191.5 306> 379 97<191.5 203.5 139 243> 485 121<422 470 422 544> 485 154<288 470 288 422>
VStem: 36 111<174 216 216 249 174 317.5> 288 106<216 248 248 289.5 417 639 0 639> 422 122<496 606 496 606 496 606>
LayerCount: 2
Back
Fore
SplineSet
295 57 m 1x96
 295 57 291 57 291 57 c 1x96
 268 12 230 -11 186 -11 c 0
 94 -11 36 65 36 233 c 0
 36 402 98 476 180 476 c 0
 227 476 267 454 284 417 c 1
 284 417 288 417 288 417 c 1xb6
 288 417 288 639 288 639 c 1
 288 639 394 639 394 639 c 1
 394 639 394 0 394 0 c 1
 394 0 306 0 306 0 c 1x4e
 306 0 295 57 295 57 c 1x96
422 347 m 1
 422 347 470 485 470 485 c 1
 470 485 422 485 422 485 c 1
 422 485 422 606 422 606 c 1
 422 606 544 606 544 606 c 1
 544 606 544 496 544 496 c 1
 544 496 485 347 485 347 c 1x97
 485 347 422 347 422 347 c 1
217 379 m 0xb6
 166 379 147 333 147 249 c 2
 147 249 147 216 147 216 c 2
 147 132 166 86 217 86 c 0
 269 86 288 132 288 216 c 2
 288 216 288 248 288 248 c 2
 288 331 269 379 217 379 c 0xb6
EndSplineSet
EndChar

StartChar: dcroat
Encoding: 273 273 153
Width: 446
GlyphClass: 2
Flags: MW
HStem: -11 97<191.5 208> 0 86<191.5 394 191.5 306> 379 38 379 97<191.5 203.5 139 243> 515 77<171 288 171 288 394 442> 515 124<171 394 171 394 288 442 288 394>
VStem: 36 111<174 216 216 249 174 317.5> 288 106<216 248 248 289.5 417 515 0 515 592 639>
LayerCount: 2
Back
Fore
SplineSet
442 592 m 1x9b
 442 592 442 515 442 515 c 1
 442 515 394 515 394 515 c 1
 394 515 394 0 394 0 c 1
 394 0 306 0 306 0 c 1x57
 306 0 295 57 295 57 c 1
 295 57 291 57 291 57 c 1
 268 12 230 -11 186 -11 c 0
 94 -11 36 65 36 233 c 0
 36 402 98 476 180 476 c 0x97
 227 476 267 454 284 417 c 1
 284 417 288 417 288 417 c 1
 288 417 288 515 288 515 c 1
 288 515 171 515 171 515 c 1xa7
 171 515 171 592 171 592 c 1
 171 592 288 592 288 592 c 1x9b
 288 592 288 639 288 639 c 1
 288 639 394 639 394 639 c 1x97
 394 639 394 592 394 592 c 1
 394 592 442 592 442 592 c 1x9b
217 379 m 0
 166 379 147 333 147 249 c 2
 147 249 147 216 147 216 c 2
 147 132 166 86 217 86 c 0x97
 269 86 288 132 288 216 c 2
 288 216 288 248 288 248 c 2
 288 331 269 379 217 379 c 0
EndSplineSet
EndChar

StartChar: e
Encoding: 101 101 154
Width: 403
GlyphClass: 2
Flags: MW
HStem: -11 87<183.5 228 183.5 257> 206 77<139 263 139 374 138 263> 389 87<183.5 225.5>
VStem: 27 111<206 206 206 316> 263 111
AnchorPoint: "Anchor-1" 202 0 basechar 0
AnchorPoint: "Anchor-0" 202 465 basechar 0
LayerCount: 2
Back
Fore
SplineSet
206 476 m 0
 318 476 374 400 374 232 c 2
 374 232 374 206 374 206 c 1
 374 206 138 206 138 206 c 1
 139 123 157 76 210 76 c 0
 246 76 269 109 269 164 c 1
 269 164 374 164 374 164 c 1
 374 45 304 -11 210 -11 c 0
 90 -11 27 65 27 232 c 0
 27 400 91 476 206 476 c 0
206 389 m 0
 161 389 142 350 139 283 c 1
 139 283 263 283 263 283 c 1
 263 350 245 389 206 389 c 0
EndSplineSet
EndChar

StartChar: eacute
Encoding: 233 233 155
Width: 403
GlyphClass: 2
Flags: MW
HStem: -11 87<183.5 228 183.5 257> 206 77<139 263 139 374 138 263> 389 87<183.5 225.5> 522 117<217 228 141 323>
VStem: 27 111<206 206 206 316> 263 111
LayerCount: 2
Back
Fore
SplineSet
228 522 m 1
 228 522 141 522 141 522 c 1
 141 522 217 639 217 639 c 1
 217 639 323 639 323 639 c 1
 323 639 324 636 324 636 c 1
 324 636 228 522 228 522 c 1
206 476 m 0
 318 476 374 400 374 232 c 2
 374 232 374 206 374 206 c 1
 374 206 138 206 138 206 c 1
 139 123 157 76 210 76 c 0
 246 76 269 109 269 164 c 1
 269 164 374 164 374 164 c 1
 374 45 304 -11 210 -11 c 0
 90 -11 27 65 27 232 c 0
 27 400 91 476 206 476 c 0
206 389 m 0
 161 389 142 350 139 283 c 1
 139 283 263 283 263 283 c 1
 263 350 245 389 206 389 c 0
EndSplineSet
EndChar

StartChar: ebreve
Encoding: 277 277 156
Width: 403
GlyphClass: 2
Flags: MW
HStem: -11 87<183.5 228 183.5 257> 206 77<139 263 139 374 138 263> 389 87<183.5 225.5> 545 65<187 217 187 238.5> 545 94<84 238.5>
VStem: 27 111<206 206 206 316> 263 111
LayerCount: 2
Back
Fore
SplineSet
320 639 m 1xee
 320 595 275 545 202 545 c 0
 129 545 84 595 84 639 c 1
 84 639 149 639 149 639 c 1xee
 152 627 172 610 202 610 c 0xf6
 232 610 253 627 255 639 c 1
 255 639 320 639 320 639 c 1xee
206 476 m 0
 318 476 374 400 374 232 c 2
 374 232 374 206 374 206 c 1
 374 206 138 206 138 206 c 1
 139 123 157 76 210 76 c 0
 246 76 269 109 269 164 c 1
 269 164 374 164 374 164 c 1
 374 45 304 -11 210 -11 c 0
 90 -11 27 65 27 232 c 0
 27 400 91 476 206 476 c 0
206 389 m 0
 161 389 142 350 139 283 c 1
 139 283 263 283 263 283 c 1
 263 350 245 389 206 389 c 0
EndSplineSet
EndChar

StartChar: ecaron
Encoding: 283 283 157
Width: 403
GlyphClass: 2
Flags: MW
HStem: -11 87<183.5 228 183.5 257> 206 77<139 263 139 374 138 263> 389 87<183.5 225.5> 520 119<159 163 241 246 159 159>
VStem: 27 111<206 206 206 316> 263 111
LayerCount: 2
Back
Fore
SplineSet
83 639 m 1
 83 639 163 639 163 639 c 1
 163 639 202 578 202 578 c 1
 202 578 241 639 241 639 c 1
 241 639 321 639 321 639 c 1
 321 639 246 520 246 520 c 1
 246 520 159 520 159 520 c 1
 159 520 83 639 83 639 c 1
206 476 m 0
 318 476 374 400 374 232 c 2
 374 232 374 206 374 206 c 1
 374 206 138 206 138 206 c 1
 139 123 157 76 210 76 c 0
 246 76 269 109 269 164 c 1
 269 164 374 164 374 164 c 1
 374 45 304 -11 210 -11 c 0
 90 -11 27 65 27 232 c 0
 27 400 91 476 206 476 c 0
206 389 m 0
 161 389 142 350 139 283 c 1
 139 283 263 283 263 283 c 1
 263 350 245 389 206 389 c 0
EndSplineSet
EndChar

StartChar: ecircumflex
Encoding: 234 234 158
Width: 403
GlyphClass: 2
Flags: MW
HStem: -11 87<183.5 228 183.5 257> 206 77<139 263 139 374 138 263> 389 87<183.5 225.5> 520 119<159 163 83 246 241 241 241 246 159 321> 581 58<202 202>
VStem: 27 111<206 206 206 316> 263 111
LayerCount: 2
Back
Fore
SplineSet
202 581 m 1xee
 202 581 163 520 163 520 c 1
 163 520 83 520 83 520 c 1
 83 520 159 639 159 639 c 1
 159 639 246 639 246 639 c 1
 246 639 321 520 321 520 c 1
 321 520 241 520 241 520 c 1xf6
 241 520 202 581 202 581 c 1xee
206 476 m 0
 318 476 374 400 374 232 c 2
 374 232 374 206 374 206 c 1
 374 206 138 206 138 206 c 1
 139 123 157 76 210 76 c 0
 246 76 269 109 269 164 c 1
 269 164 374 164 374 164 c 1
 374 45 304 -11 210 -11 c 0
 90 -11 27 65 27 232 c 0
 27 400 91 476 206 476 c 0
206 389 m 0
 161 389 142 350 139 283 c 1
 139 283 263 283 263 283 c 1
 263 350 245 389 206 389 c 0
EndSplineSet
EndChar

StartChar: edieresis
Encoding: 235 235 159
Width: 403
GlyphClass: 2
Flags: MW
HStem: -11 87<183.5 228 183.5 257> 206 77<139 263 139 374 138 263> 389 87<183.5 225.5> 543 96<80 169 80 169 235 324 80 235>
VStem: 27 111<206 206 206 316> 80 89<543 639 543 639> 235 89<543 639 543 639> 263 111
LayerCount: 2
Back
Fore
SplineSet
80 543 m 1xf6
 80 543 80 639 80 639 c 1
 80 639 169 639 169 639 c 1
 169 639 169 543 169 543 c 1
 169 543 80 543 80 543 c 1xf6
235 543 m 1
 235 543 235 639 235 639 c 1
 235 639 324 639 324 639 c 1
 324 639 324 543 324 543 c 1
 324 543 235 543 235 543 c 1
206 476 m 0xf9
 318 476 374 400 374 232 c 2
 374 232 374 206 374 206 c 1
 374 206 138 206 138 206 c 1
 139 123 157 76 210 76 c 0
 246 76 269 109 269 164 c 1
 269 164 374 164 374 164 c 1
 374 45 304 -11 210 -11 c 0
 90 -11 27 65 27 232 c 0
 27 400 91 476 206 476 c 0xf9
206 389 m 0
 161 389 142 350 139 283 c 1
 139 283 263 283 263 283 c 1
 263 350 245 389 206 389 c 0
EndSplineSet
EndChar

StartChar: edotaccent
Encoding: 279 279 160
Width: 403
GlyphClass: 2
Flags: MW
HStem: -11 87<183.5 228 183.5 257> 206 77<139 263 139 374 138 263> 389 87<183.5 225.5> 537 102<155 249 155 249>
VStem: 27 111<206 206 206 316> 155 94<537 639 537 639> 263 111
LayerCount: 2
Back
Fore
SplineSet
155 639 m 1
 155 639 249 639 249 639 c 1
 249 639 249 537 249 537 c 1
 249 537 155 537 155 537 c 1
 155 537 155 639 155 639 c 1
206 476 m 0xfe
 318 476 374 400 374 232 c 2
 374 232 374 206 374 206 c 1
 374 206 138 206 138 206 c 1
 139 123 157 76 210 76 c 0
 246 76 269 109 269 164 c 1
 269 164 374 164 374 164 c 1
 374 45 304 -11 210 -11 c 0
 90 -11 27 65 27 232 c 0
 27 400 91 476 206 476 c 0xfe
206 389 m 0
 161 389 142 350 139 283 c 1
 139 283 263 283 263 283 c 1
 263 350 245 389 206 389 c 0
EndSplineSet
EndChar

StartChar: egrave
Encoding: 232 232 161
Width: 403
GlyphClass: 2
Flags: MW
HStem: -11 87<183.5 228 183.5 257> 206 77<139 263 139 374 138 263> 389 87<183.5 225.5> 522 117<175 175 175 187 80 263>
VStem: 27 111<206 206 206 316> 263 111
LayerCount: 2
Back
Fore
SplineSet
175 522 m 1
 175 522 80 636 80 636 c 1
 80 636 80 639 80 639 c 1
 80 639 187 639 187 639 c 1
 187 639 263 522 263 522 c 1
 263 522 175 522 175 522 c 1
206 476 m 0
 318 476 374 400 374 232 c 2
 374 232 374 206 374 206 c 1
 374 206 138 206 138 206 c 1
 139 123 157 76 210 76 c 0
 246 76 269 109 269 164 c 1
 269 164 374 164 374 164 c 1
 374 45 304 -11 210 -11 c 0
 90 -11 27 65 27 232 c 0
 27 400 91 476 206 476 c 0
206 389 m 0
 161 389 142 350 139 283 c 1
 139 283 263 283 263 283 c 1
 263 350 245 389 206 389 c 0
EndSplineSet
EndChar

StartChar: emacron
Encoding: 275 275 162
Width: 403
GlyphClass: 2
Flags: MW
HStem: -11 87<183.5 228 183.5 257> 206 77<139 263 139 374 138 263> 389 87<183.5 225.5> 530 76<89 315 89 315>
VStem: 27 111<206 206 206 316> 89 226<530 606 530 606> 263 111
LayerCount: 2
Back
Fore
SplineSet
89 606 m 1xf4
 89 606 315 606 315 606 c 1
 315 606 315 530 315 530 c 1
 315 530 89 530 89 530 c 1
 89 530 89 606 89 606 c 1xf4
206 476 m 0xfa
 318 476 374 400 374 232 c 2
 374 232 374 206 374 206 c 1
 374 206 138 206 138 206 c 1
 139 123 157 76 210 76 c 0
 246 76 269 109 269 164 c 1
 269 164 374 164 374 164 c 1
 374 45 304 -11 210 -11 c 0
 90 -11 27 65 27 232 c 0
 27 400 91 476 206 476 c 0xfa
206 389 m 0
 161 389 142 350 139 283 c 1
 139 283 263 283 263 283 c 1
 263 350 245 389 206 389 c 0
EndSplineSet
EndChar

StartChar: eogonek
Encoding: 281 281 163
Width: 403
GlyphClass: 2
Flags: MW
HStem: -164 61<241 319> -11 87 206 77<139 263 139 374 138 263> 389 87<183.5 225.5>
VStem: 27 111<206 206 206 316> 173 146<-114.5 -103 -151 -67.5> 263 111
LayerCount: 2
Back
Fore
SplineSet
374 206 m 1xfa
 374 206 138 206 138 206 c 1
 139 123 157 76 210 76 c 0
 246 76 269 109 269 164 c 1
 269 164 374 164 374 164 c 1xfa
 374 80 339 28 286 4 c 1
 276 -8 260 -33 260 -57 c 0
 260 -80 271 -103 300 -103 c 2
 300 -103 319 -103 319 -103 c 1
 319 -103 319 -151 319 -151 c 1
 299 -159 280 -164 261 -164 c 0
 221 -164 173 -145 173 -84 c 0xfc
 173 -51 184 -29 198 -11 c 1
 86 -6 27 71 27 232 c 0
 27 400 91 476 206 476 c 0
 318 476 374 400 374 232 c 2
 374 232 374 206 374 206 c 1xfa
263 283 m 1
 263 350 245 389 206 389 c 0
 161 389 142 350 139 283 c 1
 139 283 263 283 263 283 c 1
EndSplineSet
EndChar

StartChar: f
Encoding: 102 102 164
Width: 241
GlyphClass: 2
Flags: MW
HStem: 0 21G<55 161 55 55> 376 89<8 55 8 55 161 241> 557 89<122 198 122 241>
VStem: 55 106<0 376 0 376 465 519>
LayerCount: 2
Back
Fore
SplineSet
164 646 m 0
 189 646 224 641 241 636 c 1
 241 636 241 557 241 557 c 1
 241 557 198 557 198 557 c 2
 174 557 161 544 161 519 c 2
 161 519 161 465 161 465 c 1
 161 465 241 465 241 465 c 1
 241 465 241 376 241 376 c 1
 241 376 161 376 161 376 c 1
 161 376 161 0 161 0 c 1
 161 0 55 0 55 0 c 1
 55 0 55 376 55 376 c 1
 55 376 8 376 8 376 c 1
 8 376 8 465 8 465 c 1
 8 465 55 465 55 465 c 1
 55 465 55 522 55 522 c 2
 55 583 80 646 164 646 c 0
EndSplineSet
EndChar

StartChar: g
Encoding: 103 103 165
Width: 443
GlyphClass: 2
Flags: MW
HStem: -161 81<88.5 283 164 283 283 287> 5 98<152 331 171 287> 159 79<165.5 241 197.5 219> 397 79<197.5 233.5 163.5 241>
VStem: 14 107<-50.5 -31> 36 107<123 130.5> 48 106<292.5 342 292.5 365> 286 106<292.5 339 269.5 342> 331 107<-50.5 -24 -61 103> 342 88<534.5 543>
AnchorPoint: "Anchor-1" 0 0 basechar 0
AnchorPoint: "Anchor-0" 222 465 basechar 0
LayerCount: 2
Back
Fore
SplineSet
430 543 m 1xf240
 430 476 401 438 354 424 c 1
 378 398 392 361 392 317 c 0
 392 222 331 159 219 159 c 2
 219 159 175 159 175 159 c 2
 156 159 143 147 143 131 c 0
 143 115 155 103 171 103 c 2xf5
 171 103 331 103 331 103 c 2
 390 103 438 57 438 -18 c 0
 438 -104 370 -161 287 -161 c 2
 287 -161 117 -161 117 -161 c 2
 60 -161 14 -118 14 -54 c 0xf880
 14 -8 40 22 73 41 c 1
 50 55 36 79 36 110 c 0xf5
 36 151 67 179 104 192 c 1
 67 219 48 263 48 317 c 0
 48 413 108 476 219 476 c 0
 248 476 275 471 297 462 c 1
 332 488 342 526 342 543 c 1
 342 543 430 543 430 543 c 1xf240
219 397 m 0xf3
 176 397 154 367 154 317 c 0
 154 268 176 238 219 238 c 0
 263 238 286 268 286 317 c 0
 286 367 263 397 219 397 c 0xf3
164 5 m 2xf880
 140 5 121 -14 121 -37 c 0
 121 -64 140 -80 164 -80 c 2
 164 -80 283 -80 283 -80 c 2
 309 -80 331 -64 331 -37 c 0
 331 -11 311 5 287 5 c 2
 287 5 164 5 164 5 c 2xf880
EndSplineSet
EndChar

StartChar: gbreve
Encoding: 287 287 166
Width: 443
GlyphClass: 2
Flags: MW
HStem: -161 81<88.5 283 164 283 283 287> 5 98<152 331 171 287> 159 79<165.5 241 197.5 219> 397 79<197.5 233.5 163.5 241> 545 65<206.5 236 206.5 257.5> 545 94<103 257.5>
VStem: 14 107<-50.5 -31> 36 107<123 130.5> 48 106<292.5 342 292.5 365> 286 106<292.5 339 269.5 342> 331 107<-50.5 -24 -61 103> 342 88<534.5 543>
LayerCount: 2
Back
Fore
SplineSet
339 639 m 1xf4c0
 339 595 294 545 221 545 c 0
 149 545 103 595 103 639 c 1
 103 639 169 639 169 639 c 1xf4c0
 171 627 192 610 221 610 c 0xf8c0
 251 610 272 627 274 639 c 1
 274 639 339 639 339 639 c 1xf4c0
430 543 m 1xf490
 430 476 401 438 354 424 c 1
 378 398 392 361 392 317 c 0
 392 222 331 159 219 159 c 2
 219 159 175 159 175 159 c 2
 156 159 143 147 143 131 c 0
 143 115 155 103 171 103 c 2xf540
 171 103 331 103 331 103 c 2
 390 103 438 57 438 -18 c 0
 438 -104 370 -161 287 -161 c 2
 287 -161 117 -161 117 -161 c 2
 60 -161 14 -118 14 -54 c 0xf620
 14 -8 40 22 73 41 c 1
 50 55 36 79 36 110 c 0xf540
 36 151 67 179 104 192 c 1
 67 219 48 263 48 317 c 0
 48 413 108 476 219 476 c 0
 248 476 275 471 297 462 c 1
 332 488 342 526 342 543 c 1
 342 543 430 543 430 543 c 1xf490
219 397 m 0xf4c0
 176 397 154 367 154 317 c 0
 154 268 176 238 219 238 c 0
 263 238 286 268 286 317 c 0
 286 367 263 397 219 397 c 0xf4c0
164 5 m 2xf620
 140 5 121 -14 121 -37 c 0
 121 -64 140 -80 164 -80 c 2
 164 -80 283 -80 283 -80 c 2
 309 -80 331 -64 331 -37 c 0
 331 -11 311 5 287 5 c 2
 287 5 164 5 164 5 c 2xf620
EndSplineSet
EndChar

StartChar: gcircumflex
Encoding: 285 285 167
Width: 443
GlyphClass: 2
Flags: MW
HStem: -161 81<88.5 283 164 283 283 287> 5 98<152 331 171 287> 159 79<165.5 241 197.5 219> 397 65 397 79<197.5 233.5 163.5 241> 520 23<261 430> 520 119<179 182 103 265 261 261 261 265 179 340> 581 58<222 222>
VStem: 14 107<-50.5 -31> 36 107<123 130.5> 48 106<292.5 342 292.5 365> 286 106<292.5 339 269.5 342> 331 107<-50.5 -24 -61 103> 361 69<542 543 509.5 543>
LayerCount: 2
Back
Fore
SplineSet
222 581 m 1xe930
 222 581 182 520 182 520 c 1
 182 520 103 520 103 520 c 1
 103 520 179 639 179 639 c 1
 179 639 265 639 265 639 c 1
 265 639 340 520 340 520 c 1
 340 520 261 520 261 520 c 1xea30
 261 520 222 581 222 581 c 1xe930
430 543 m 1xf424
 430 476 401 438 354 424 c 1
 378 398 392 361 392 317 c 0
 392 222 331 159 219 159 c 2
 219 159 175 159 175 159 c 2
 156 159 143 147 143 131 c 0
 143 115 155 103 171 103 c 2xea50
 171 103 331 103 331 103 c 2
 390 103 438 57 438 -18 c 0
 438 -104 370 -161 287 -161 c 2
 287 -161 117 -161 117 -161 c 2
 60 -161 14 -118 14 -54 c 0xea88
 14 -8 40 22 73 41 c 1
 50 55 36 79 36 110 c 0xea50
 36 151 67 179 104 192 c 1
 67 219 48 263 48 317 c 0
 48 413 108 476 219 476 c 0xea30
 248 476 275 471 297 462 c 1
 361 465 361 524 361 542 c 0
 361 543 361 543 361 543 c 1
 361 543 430 543 430 543 c 1xf424
219 397 m 0xea30
 176 397 154 367 154 317 c 0
 154 268 176 238 219 238 c 0
 263 238 286 268 286 317 c 0
 286 367 263 397 219 397 c 0xea30
164 5 m 2xea88
 140 5 121 -14 121 -37 c 0
 121 -64 140 -80 164 -80 c 2
 164 -80 283 -80 283 -80 c 2
 309 -80 331 -64 331 -37 c 0
 331 -11 311 5 287 5 c 2
 287 5 164 5 164 5 c 2xea88
EndSplineSet
EndChar

StartChar: gcommaaccent
Encoding: 291 291 168
Width: 443
GlyphClass: 2
Flags: MW
HStem: -161 81<88.5 283 164 283 283 287> 5 98<152 331 171 287> 159 79<165.5 241 197.5 219> 397 79<197.5 233.5 163.5 241> 522 108<223 266 223 266 156 266>
VStem: 14 107<-50.5 -31> 36 107<123 130.5> 48 106<292.5 342 292.5 365> 156 110<522 621 621 621> 286 106<292.5 339 269.5 342> 331 107<-50.5 -24 -61 103> 342 88<534.5 543>
LayerCount: 2
Back
Fore
SplineSet
266 630 m 1xfca0
 266 630 266 522 266 522 c 1
 266 522 156 522 156 522 c 1
 156 522 156 621 156 621 c 1
 156 621 197 705 197 705 c 1
 197 705 255 705 255 705 c 1
 255 705 223 630 223 630 c 1
 223 630 266 630 266 630 c 1xfca0
430 543 m 1xf910
 430 476 401 438 354 424 c 1
 378 398 392 361 392 317 c 0
 392 222 331 159 219 159 c 2
 219 159 175 159 175 159 c 2
 156 159 143 147 143 131 c 0
 143 115 155 103 171 103 c 2xfac0
 171 103 331 103 331 103 c 2
 390 103 438 57 438 -18 c 0
 438 -104 370 -161 287 -161 c 2
 287 -161 117 -161 117 -161 c 2
 60 -161 14 -118 14 -54 c 0xfca0
 14 -8 40 22 73 41 c 1
 50 55 36 79 36 110 c 0xfaa0
 36 151 67 179 104 192 c 1
 67 219 48 263 48 317 c 0
 48 413 108 476 219 476 c 0
 248 476 275 471 297 462 c 1
 332 488 342 526 342 543 c 1
 342 543 430 543 430 543 c 1xf910
219 397 m 0xf940
 176 397 154 367 154 317 c 0
 154 268 176 238 219 238 c 0
 263 238 286 268 286 317 c 0
 286 367 263 397 219 397 c 0xf940
164 5 m 2xfca0
 140 5 121 -14 121 -37 c 0
 121 -64 140 -80 164 -80 c 2
 164 -80 283 -80 283 -80 c 2
 309 -80 331 -64 331 -37 c 0
 331 -11 311 5 287 5 c 2
 287 5 164 5 164 5 c 2xfca0
EndSplineSet
EndChar

StartChar: gdotaccent
Encoding: 289 289 169
Width: 443
GlyphClass: 2
Flags: MW
HStem: -161 81<88.5 283 164 283 283 287> 5 98<152 331 171 287> 159 79<165.5 241 197.5 219> 397 79<197.5 233.5 163.5 241> 537 102<174 269 174 269>
VStem: 14 107<-50.5 -31> 36 107<123 130.5> 48 106<292.5 342 292.5 365> 174 95<537 639 537 639> 286 106<292.5 339 269.5 342> 331 107<-50.5 -24 -61 103> 342 88<534.5 543>
LayerCount: 2
Back
Fore
SplineSet
174 639 m 1xf990
 174 639 269 639 269 639 c 1
 269 639 269 537 269 537 c 1
 269 537 174 537 174 537 c 1
 174 537 174 639 174 639 c 1xf990
430 543 m 1
 430 476 401 438 354 424 c 1
 378 398 392 361 392 317 c 0
 392 222 331 159 219 159 c 2
 219 159 175 159 175 159 c 2
 156 159 143 147 143 131 c 0
 143 115 155 103 171 103 c 2xfa40
 171 103 331 103 331 103 c 2
 390 103 438 57 438 -18 c 0
 438 -104 370 -161 287 -161 c 2
 287 -161 117 -161 117 -161 c 2
 60 -161 14 -118 14 -54 c 0xfc20
 14 -8 40 22 73 41 c 1
 50 55 36 79 36 110 c 0xfa40
 36 151 67 179 104 192 c 1
 67 219 48 263 48 317 c 0xf940
 48 413 108 476 219 476 c 0
 248 476 275 471 297 462 c 1
 332 488 342 526 342 543 c 1
 342 543 430 543 430 543 c 1
219 397 m 0xf940
 176 397 154 367 154 317 c 0
 154 268 176 238 219 238 c 0
 263 238 286 268 286 317 c 0
 286 367 263 397 219 397 c 0xf940
164 5 m 2xfc20
 140 5 121 -14 121 -37 c 0
 121 -64 140 -80 164 -80 c 2
 164 -80 283 -80 283 -80 c 2
 309 -80 331 -64 331 -37 c 0
 331 -11 311 5 287 5 c 2
 287 5 164 5 164 5 c 2xfc20
EndSplineSet
EndChar

StartChar: h
Encoding: 104 104 170
Width: 443
GlyphClass: 2
Flags: MW
HStem: 0 21G<49 155 49 49 288 394 288 288> 379 97<243.5 246> 619 20G<49 155 155 155>
VStem: 49 106<0 286 415 639> 288 106<0 297 297 326 0 327>
AnchorPoint: "Anchor-1" 0 0 basechar 0
AnchorPoint: "Anchor-0" 222 465 basechar 0
LayerCount: 2
Back
Fore
SplineSet
158 415 m 1
 179 445 216 476 271 476 c 0
 342 476 394 436 394 326 c 2
 394 326 394 0 394 0 c 1
 394 0 288 0 288 0 c 1
 288 0 288 297 288 297 c 2
 288 357 265 379 227 379 c 0
 186 379 155 339 155 286 c 2
 155 286 155 0 155 0 c 1
 155 0 49 0 49 0 c 1
 49 0 49 639 49 639 c 1
 49 639 155 639 155 639 c 1
 155 639 155 415 155 415 c 1
 155 415 158 415 158 415 c 1
EndSplineSet
EndChar

StartChar: hbar
Encoding: 295 295 171
Width: 443
GlyphClass: 2
Flags: MW
HStem: 0 21G<49 155 49 49 288 394 288 288> 379 97<243.5 246> 515 77<0 49 0 49 155 271> 515 124<0 155 0 155 49 271 49 155>
VStem: 49 106<0 286 415 515 592 639> 288 106<0 297 297 326 0 327>
LayerCount: 2
Back
Fore
SplineSet
271 592 m 1xec
 271 592 271 515 271 515 c 1
 271 515 155 515 155 515 c 1
 155 515 155 415 155 415 c 1
 155 415 158 415 158 415 c 1
 179 445 216 476 271 476 c 0
 342 476 394 436 394 326 c 2
 394 326 394 0 394 0 c 1
 394 0 288 0 288 0 c 1
 288 0 288 297 288 297 c 2
 288 357 265 379 227 379 c 0
 186 379 155 339 155 286 c 2
 155 286 155 0 155 0 c 1
 155 0 49 0 49 0 c 1
 49 0 49 515 49 515 c 1
 49 515 0 515 0 515 c 1xdc
 0 515 0 592 0 592 c 1
 0 592 49 592 49 592 c 1xec
 49 592 49 639 49 639 c 1
 49 639 155 639 155 639 c 1xdc
 155 639 155 592 155 592 c 1
 155 592 271 592 271 592 c 1xec
EndSplineSet
EndChar

StartChar: hcircumflex
Encoding: 293 293 172
Width: 443
GlyphClass: 2
Flags: MW
HStem: 0 21G<49 155 49 49 288 394 288 288> 379 97<243.5 246> 619 20G<49 155 155 155> 661 120<57 60 -19 143 139 139 139 143 57 218>
VStem: 49 106<0 286 415 639> 288 106<0 297 297 326 0 327>
LayerCount: 2
Back
Fore
SplineSet
100 722 m 1
 100 722 60 661 60 661 c 1
 60 661 -19 661 -19 661 c 1
 -19 661 57 781 57 781 c 1
 57 781 143 781 143 781 c 1
 143 781 218 661 218 661 c 1
 218 661 139 661 139 661 c 1
 139 661 100 722 100 722 c 1
158 415 m 1
 179 445 216 476 271 476 c 0
 342 476 394 436 394 326 c 2
 394 326 394 0 394 0 c 1
 394 0 288 0 288 0 c 1
 288 0 288 297 288 297 c 2
 288 357 265 379 227 379 c 0
 186 379 155 339 155 286 c 2
 155 286 155 0 155 0 c 1
 155 0 49 0 49 0 c 1
 49 0 49 639 49 639 c 1
 49 639 155 639 155 639 c 1xec
 155 639 155 415 155 415 c 1
 155 415 158 415 158 415 c 1
EndSplineSet
EndChar

StartChar: i
Encoding: 105 105 173
Width: 202
GlyphClass: 2
Flags: MW
HStem: 0 21G<48 154 48 48> 445 20G<48 154 154 154> 543 96<48 154 48 154>
VStem: 48 106<0 465 0 465 543 639>
LayerCount: 2
Back
Fore
SplineSet
48 639 m 1
 48 639 154 639 154 639 c 1
 154 639 154 543 154 543 c 1
 154 543 48 543 48 543 c 1
 48 543 48 639 48 639 c 1
48 465 m 1
 48 465 154 465 154 465 c 1
 154 465 154 0 154 0 c 1
 154 0 48 0 48 0 c 1
 48 0 48 465 48 465 c 1
EndSplineSet
EndChar

StartChar: dotlessi
Encoding: 305 305 174
Width: 202
GlyphClass: 2
Flags: MW
HStem: 0 21G<48 154 48 48> 445 20G<48 154 154 154>
VStem: 48 106<0 465 0 465>
AnchorPoint: "Anchor-1" 0 0 basechar 0
AnchorPoint: "Anchor-0" 101 465 basechar 0
LayerCount: 2
Back
Fore
SplineSet
48 465 m 1
 48 465 154 465 154 465 c 1
 154 465 154 0 154 0 c 1
 154 0 48 0 48 0 c 1
 48 0 48 465 48 465 c 1
EndSplineSet
EndChar

StartChar: iacute
Encoding: 237 237 175
Width: 202
GlyphClass: 2
Flags: MW
HStem: 0 21G<48 48 48 154> 445 20G<48 154 154 154> 522 117<116 128 40 222>
VStem: 48 106<0 465 0 465>
LayerCount: 2
Back
Fore
SplineSet
128 522 m 1
 128 522 40 522 40 522 c 1
 40 522 116 639 116 639 c 1
 116 639 222 639 222 639 c 1
 222 639 223 636 223 636 c 1
 223 636 128 522 128 522 c 1
48 0 m 1
 48 0 48 465 48 465 c 1
 48 465 154 465 154 465 c 1
 154 465 154 0 154 0 c 1
 154 0 48 0 48 0 c 1
EndSplineSet
EndChar

StartChar: ibreve
Encoding: 301 301 176
Width: 202
GlyphClass: 2
Flags: MW
HStem: 0 21G<48 154 48 48> 445 20G<48 154 154 154> 545 65<86.5 116 86.5 137.5> 545 94<-18 137.5>
VStem: 48 106<0 465 0 465>
LayerCount: 2
Back
Fore
SplineSet
219 639 m 1xd8
 219 595 174 545 101 545 c 0
 28 545 -18 595 -18 639 c 1
 -18 639 49 639 49 639 c 1xd8
 51 627 72 610 101 610 c 0xe8
 131 610 152 627 154 639 c 1
 154 639 219 639 219 639 c 1xd8
48 465 m 1
 48 465 154 465 154 465 c 1
 154 465 154 0 154 0 c 1
 154 0 48 0 48 0 c 1
 48 0 48 465 48 465 c 1
EndSplineSet
EndChar

StartChar: icircumflex
Encoding: 238 238 177
Width: 202
GlyphClass: 2
Flags: MW
HStem: 0 21G<48 154 48 48> 445 20G<48 154 154 154> 520 119<58 62 -19 145 141 141 141 145 58 220> 581 58<102 102>
VStem: 48 106<0 465 0 465>
LayerCount: 2
Back
Fore
SplineSet
102 581 m 1xd8
 102 581 62 520 62 520 c 1
 62 520 -19 520 -19 520 c 1
 -19 520 58 639 58 639 c 1
 58 639 145 639 145 639 c 1
 145 639 220 520 220 520 c 1
 220 520 141 520 141 520 c 1xe8
 141 520 102 581 102 581 c 1xd8
48 465 m 1
 48 465 154 465 154 465 c 1
 154 465 154 0 154 0 c 1
 154 0 48 0 48 0 c 1
 48 0 48 465 48 465 c 1
EndSplineSet
EndChar

StartChar: idieresis
Encoding: 239 239 178
Width: 202
GlyphClass: 2
Flags: MW
HStem: 0 21G<48 48 48 154> 445 20G<48 154 154 154> 543 96<-20 68 -20 68 134 223 -20 134>
VStem: -20 88<543 639 543 639> 48 106<0 465 0 465> 134 89<543 639 543 639>
LayerCount: 2
Back
Fore
SplineSet
-20 543 m 1xf4
 -20 543 -20 639 -20 639 c 1
 -20 639 68 639 68 639 c 1
 68 639 68 543 68 543 c 1
 68 543 -20 543 -20 543 c 1xf4
134 543 m 1
 134 543 134 639 134 639 c 1
 134 639 223 639 223 639 c 1
 223 639 223 543 223 543 c 1
 223 543 134 543 134 543 c 1
48 0 m 1xe8
 48 0 48 465 48 465 c 1
 48 465 154 465 154 465 c 1
 154 465 154 0 154 0 c 1
 154 0 48 0 48 0 c 1xe8
EndSplineSet
EndChar

StartChar: igrave
Encoding: 236 236 179
Width: 202
GlyphClass: 2
Flags: MW
HStem: 0 21G<48 48 48 154> 445 20G<48 154 154 154> 522 117<74 74 74 86 -20 162>
VStem: 48 106<0 465 0 465>
LayerCount: 2
Back
Fore
SplineSet
74 522 m 1
 74 522 -21 636 -21 636 c 1
 -21 636 -20 639 -20 639 c 1
 -20 639 86 639 86 639 c 1
 86 639 162 522 162 522 c 1
 162 522 74 522 74 522 c 1
48 0 m 1
 48 0 48 465 48 465 c 1
 48 465 154 465 154 465 c 1
 154 465 154 0 154 0 c 1
 154 0 48 0 48 0 c 1
EndSplineSet
EndChar

StartChar: ij
Encoding: 307 307 180
Width: 403
GlyphClass: 2
Flags: MW
HStem: -161 89<169 290> 0 21G<48 48 48 154> 445 20G<48 154 154 154 249 355 355 355> 543 96<48 154 48 154 249 355 48 249>
VStem: 48 106<0 465 0 465 543 639> 249 106<-29 465 543 639>
LayerCount: 2
Back
Fore
SplineSet
48 543 m 1
 48 543 48 639 48 639 c 1
 48 639 154 639 154 639 c 1
 154 639 154 543 154 543 c 1
 154 543 48 543 48 543 c 1
249 543 m 1
 249 543 249 639 249 639 c 1
 249 639 355 639 355 639 c 1
 355 639 355 543 355 543 c 1
 355 543 249 543 249 543 c 1
48 0 m 1
 48 0 48 465 48 465 c 1
 48 465 154 465 154 465 c 1
 154 465 154 0 154 0 c 1
 154 0 48 0 48 0 c 1
355 -36 m 2
 355 -98 332 -161 248 -161 c 0
 221 -161 187 -156 169 -150 c 1
 169 -150 169 -72 169 -72 c 1
 169 -72 208 -72 208 -72 c 2
 235 -72 249 -57 249 -29 c 2
 249 -29 249 465 249 465 c 1
 249 465 355 465 355 465 c 1
 355 465 355 -36 355 -36 c 2
EndSplineSet
EndChar

StartChar: imacron
Encoding: 299 299 181
Width: 202
GlyphClass: 2
Flags: MW
HStem: 0 21G<48 154 48 48> 445 20G<48 154 154 154> 530 76<-12 214 -12 214>
VStem: 48 106<0 465 0 465>
LayerCount: 2
Back
Fore
SplineSet
-12 606 m 1
 -12 606 214 606 214 606 c 1
 214 606 214 530 214 530 c 1
 214 530 -12 530 -12 530 c 1
 -12 530 -12 606 -12 606 c 1
48 465 m 1
 48 465 154 465 154 465 c 1
 154 465 154 0 154 0 c 1
 154 0 48 0 48 0 c 1
 48 0 48 465 48 465 c 1
EndSplineSet
EndChar

StartChar: iogonek
Encoding: 303 303 182
Width: 202
GlyphClass: 2
Flags: MW
HStem: -168 61<108 187> -156 21G<187 187> -156 49<167 187> 0 21G<48 80 48 48 154 154> 445 20G<48 154 154 154> 537 102<54 149 54 149>
VStem: 41 86<-73.5 -67.5> 48 106<0 465> 54 95<537 639 537 639>
LayerCount: 2
Back
Fore
SplineSet
54 537 m 1x5c80
 54 537 54 639 54 639 c 1
 54 639 149 639 149 639 c 1
 149 639 149 537 149 537 c 1
 149 537 54 537 54 537 c 1x5c80
154 0 m 1x5d
 143 -12 127 -37 127 -62 c 0
 127 -85 138 -107 167 -107 c 2
 167 -107 187 -107 187 -107 c 1x3d
 187 -107 187 -156 187 -156 c 1x5d
 166 -164 148 -168 128 -168 c 0
 88 -168 41 -149 41 -88 c 0
 41 -47 58 -22 80 0 c 1x9e
 80 0 48 0 48 0 c 1
 48 0 48 465 48 465 c 1
 48 465 154 465 154 465 c 1
 154 465 154 0 154 0 c 1x5d
EndSplineSet
EndChar

StartChar: itilde
Encoding: 297 297 183
Width: 202
GlyphClass: 2
Flags: MW
HStem: 0 21G<48 154 48 48> 445 20G<48 154 154 154> 531 75<152 166.5 147 194> 531 108<8 11 -48 50.5 191 194> 564 75<36.5 50.5 8 56>
VStem: 48 106<0 465 0 465>
LayerCount: 2
Back
Fore
SplineSet
250 639 m 1xd4
 250 591 225 531 163 531 c 0xd4
 141 531 122 540 102 548 c 0
 84 556 66 564 46 564 c 0xcc
 27 564 15 555 11 531 c 1
 11 531 -48 531 -48 531 c 1
 -48 580 -23 639 39 639 c 0xd4
 62 639 81 630 101 622 c 0
 119 614 137 606 157 606 c 0xe4
 176 606 187 614 191 639 c 1
 191 639 250 639 250 639 c 1xd4
48 465 m 1
 48 465 154 465 154 465 c 1
 154 465 154 0 154 0 c 1
 154 0 48 0 48 0 c 1
 48 0 48 465 48 465 c 1
EndSplineSet
EndChar

StartChar: j
Encoding: 106 106 184
Width: 202
GlyphClass: 2
Flags: MW
HStem: -161 89<-33 88.5> 445 20G<48 154 154 154> 543 96<48 154 48 154>
VStem: 48 106<-29 465 543 639>
LayerCount: 2
Back
Fore
SplineSet
48 639 m 1
 48 639 154 639 154 639 c 1
 154 639 154 543 154 543 c 1
 154 543 48 543 48 543 c 1
 48 543 48 639 48 639 c 1
154 -36 m 2
 154 -98 131 -161 46 -161 c 0
 19 -161 -14 -156 -33 -150 c 1
 -33 -150 -33 -72 -33 -72 c 1
 -33 -72 6 -72 6 -72 c 2
 34 -72 48 -57 48 -29 c 2
 48 -29 48 465 48 465 c 1
 48 465 154 465 154 465 c 1
 154 465 154 -36 154 -36 c 2
EndSplineSet
EndChar

StartChar: jcircumflex
Encoding: 309 309 185
Width: 202
GlyphClass: 2
Flags: MW
HStem: -161 89<-33 88.5> 445 20G<48 154 154 154> 520 119<59 63 -17 147 142 142 142 147 59 221> 581 58<103 103>
VStem: 48 106<-29 465>
LayerCount: 2
Back
Fore
SplineSet
103 581 m 1xd8
 103 581 63 520 63 520 c 1
 63 520 -17 520 -17 520 c 1
 -17 520 59 639 59 639 c 1
 59 639 147 639 147 639 c 1
 147 639 221 520 221 520 c 1
 221 520 142 520 142 520 c 1xe8
 142 520 103 581 103 581 c 1xd8
154 -36 m 2
 154 -98 131 -161 46 -161 c 0
 19 -161 -14 -156 -33 -150 c 1
 -33 -150 -33 -72 -33 -72 c 1
 -33 -72 6 -72 6 -72 c 2
 34 -72 48 -57 48 -29 c 2
 48 -29 48 465 48 465 c 1
 48 465 154 465 154 465 c 1
 154 465 154 -36 154 -36 c 2
EndSplineSet
EndChar

StartChar: k
Encoding: 107 107 186
Width: 403
GlyphClass: 2
Flags: MW
HStem: 0 21G<48 154 48 48 286 404 286 286> 445 20G<284 397 397 397> 619 20G<48 154 154 154>
VStem: 48 106<0 145 280 639>
AnchorPoint: "Anchor-1" 202 0 basechar 0
AnchorPoint: "Anchor-0" 0 0 basechar 0
LayerCount: 2
Back
Fore
SplineSet
397 465 m 1
 397 465 259 276 259 276 c 1
 259 276 404 0 404 0 c 1
 404 0 286 0 286 0 c 1
 286 0 193 193 193 193 c 1
 193 193 154 145 154 145 c 1
 154 145 154 0 154 0 c 1
 154 0 48 0 48 0 c 1
 48 0 48 639 48 639 c 1
 48 639 154 639 154 639 c 1
 154 639 154 280 154 280 c 1
 154 280 284 465 284 465 c 1
 284 465 397 465 397 465 c 1
EndSplineSet
EndChar

StartChar: kcommaaccent
Encoding: 311 311 187
Width: 403
GlyphClass: 2
Flags: MW
HStem: -157 108<148 190 148 256> 0 21G<48 154 48 48 286 404 286 286> 445 20G<284 397 397 397> 619 20G<48 154 154 154>
VStem: 48 106<0 145 280 639> 148 108<-148 -49 -148 -49 -148 -49>
LayerCount: 2
Back
Fore
SplineSet
397 465 m 1xf8
 397 465 259 276 259 276 c 1
 259 276 404 0 404 0 c 1
 404 0 286 0 286 0 c 1
 286 0 193 193 193 193 c 1
 193 193 154 145 154 145 c 1
 154 145 154 0 154 0 c 1
 154 0 48 0 48 0 c 1
 48 0 48 639 48 639 c 1
 48 639 154 639 154 639 c 1
 154 639 154 280 154 280 c 1
 154 280 284 465 284 465 c 1
 284 465 397 465 397 465 c 1xf8
159 -232 m 1xf4
 159 -232 190 -157 190 -157 c 1
 190 -157 148 -157 148 -157 c 1
 148 -157 148 -49 148 -49 c 1
 148 -49 256 -49 256 -49 c 1
 256 -49 256 -148 256 -148 c 1
 256 -148 217 -232 217 -232 c 1
 217 -232 159 -232 159 -232 c 1xf4
EndSplineSet
EndChar

StartChar: kgreenlandic
Encoding: 312 312 188
Width: 404
GlyphClass: 2
Flags: MW
HStem: 0 21G<48 154 48 48 286 404 286 286> 445 20G<48 154 154 154 284 397 397 397>
VStem: 48 106<0 145 280 465>
LayerCount: 2
Back
Fore
SplineSet
286 0 m 1
 286 0 193 193 193 193 c 1
 193 193 154 145 154 145 c 1
 154 145 154 0 154 0 c 1
 154 0 48 0 48 0 c 1
 48 0 48 465 48 465 c 1
 48 465 154 465 154 465 c 1
 154 465 154 280 154 280 c 1
 154 280 284 465 284 465 c 1
 284 465 397 465 397 465 c 1
 397 465 259 276 259 276 c 1
 259 276 404 0 404 0 c 1
 404 0 286 0 286 0 c 1
EndSplineSet
EndChar

StartChar: l
Encoding: 108 108 189
Width: 202
GlyphClass: 2
Flags: MW
HStem: 0 21G<48 154 48 48> 619 20G<48 154 154 154>
VStem: 48 106<0 639 0 639>
AnchorPoint: "Anchor-1" 101 0 basechar 0
AnchorPoint: "Anchor-0" 101 465 basechar 0
LayerCount: 2
Back
Fore
SplineSet
48 639 m 1
 48 639 154 639 154 639 c 1
 154 639 154 0 154 0 c 1
 154 0 48 0 48 0 c 1
 48 0 48 639 48 639 c 1
EndSplineSet
EndChar

StartChar: lacute
Encoding: 314 314 190
Width: 202
GlyphClass: 2
Flags: MW
HStem: 0 21G<48 48 48 154> 619 20G<48 154 154 154> 664 117<116 128 40 222>
VStem: 48 106<0 639 0 639>
LayerCount: 2
Back
Fore
SplineSet
128 664 m 1
 128 664 40 664 40 664 c 1
 40 664 116 781 116 781 c 1
 116 781 222 781 222 781 c 1
 222 781 223 778 223 778 c 1
 223 778 128 664 128 664 c 1
48 0 m 1
 48 0 48 639 48 639 c 1
 48 639 154 639 154 639 c 1xd0
 154 639 154 0 154 0 c 1
 154 0 48 0 48 0 c 1
EndSplineSet
EndChar

StartChar: lcaron
Encoding: 318 318 191
Width: 279
GlyphClass: 2
Flags: MW
HStem: 0 21G<48 154 48 48> 485 121<200 248 200 322> 485 154<48 248 48 200>
VStem: 48 106<0 639 0 639> 200 122<496 606 496 606 496 606>
LayerCount: 2
Back
Fore
SplineSet
48 639 m 1xb8
 48 639 154 639 154 639 c 1
 154 639 154 0 154 0 c 1
 154 0 48 0 48 0 c 1
 48 0 48 639 48 639 c 1xb8
200 347 m 1
 200 347 248 485 248 485 c 1
 248 485 200 485 200 485 c 1
 200 485 200 606 200 606 c 1
 200 606 322 606 322 606 c 1xd8
 322 606 322 496 322 496 c 1
 322 496 263 347 263 347 c 1
 263 347 200 347 200 347 c 1
EndSplineSet
EndChar

StartChar: lcommaaccent
Encoding: 316 316 192
Width: 202
GlyphClass: 2
Flags: MW
HStem: -157 108<47 90 47 156> 0 21G<48 154 48 48> 619 20G<48 154 154 154>
VStem: 48 106<0 639 0 639>
LayerCount: 2
Back
Fore
SplineSet
48 639 m 1
 48 639 154 639 154 639 c 1
 154 639 154 0 154 0 c 1
 154 0 48 0 48 0 c 1
 48 0 48 639 48 639 c 1
58 -232 m 1
 58 -232 90 -157 90 -157 c 1
 90 -157 47 -157 47 -157 c 1
 47 -157 47 -49 47 -49 c 1
 47 -49 156 -49 156 -49 c 1
 156 -49 156 -148 156 -148 c 1
 156 -148 116 -232 116 -232 c 1
 116 -232 58 -232 58 -232 c 1
EndSplineSet
EndChar

StartChar: ldot
Encoding: 320 320 193
Width: 295
GlyphClass: 2
Flags: MW
HStem: 0 21G<48 154 48 48> 246 116<188 295 188 295> 619 20G<48 154 154 154>
VStem: 48 106<0 639 0 639> 188 107<246 362 246 362>
LayerCount: 2
Back
Fore
SplineSet
48 639 m 1
 48 639 154 639 154 639 c 1
 154 639 154 0 154 0 c 1
 154 0 48 0 48 0 c 1
 48 0 48 639 48 639 c 1
188 362 m 1
 188 362 295 362 295 362 c 1
 295 362 295 246 295 246 c 1
 295 246 188 246 188 246 c 1
 188 246 188 362 188 362 c 1
EndSplineSet
Ligature2: "Ligature Substitution lookup 32 subtable" l periodcentered
EndChar

StartChar: lslash
Encoding: 322 322 194
Width: 202
GlyphClass: 2
Flags: MW
HStem: 0 21G<48 154 48 48> 619 20G<48 154 154 154>
VStem: 48 106<0 204 204 204 289 299 0 384 384 639>
LayerCount: 2
Back
Fore
SplineSet
224 361 m 1
 224 361 154 299 154 299 c 1
 154 299 154 0 154 0 c 1
 154 0 48 0 48 0 c 1
 48 0 48 204 48 204 c 1
 48 204 -12 151 -12 151 c 1
 -12 151 -12 236 -12 236 c 1
 -12 236 48 289 48 289 c 1
 48 289 48 639 48 639 c 1
 48 639 154 639 154 639 c 1
 154 639 154 384 154 384 c 1
 154 384 224 446 224 446 c 1
 224 446 224 361 224 361 c 1
EndSplineSet
EndChar

StartChar: m
Encoding: 109 109 195
Width: 644
GlyphClass: 2
Flags: MW
HStem: 0 21G<49 155 49 49 271 376 271 271 492 598 492 492> 379 86<49 236> 379 97<200 286 456 458>
VStem: 49 106<0 286 0 465> 271 105<0 293 0 297 0 327> 492 106<0 297 297 326 0 327>
LayerCount: 2
Back
Fore
SplineSet
484 476 m 0xbc
 550 476 598 438 598 326 c 2
 598 326 598 0 598 0 c 1
 598 0 492 0 492 0 c 1
 492 0 492 297 492 297 c 2
 492 357 476 379 440 379 c 0
 406 379 376 345 376 293 c 2
 376 293 376 0 376 0 c 1
 376 0 271 0 271 0 c 1
 271 0 271 297 271 297 c 2
 271 357 254 379 218 379 c 0
 182 379 155 341 155 286 c 2xbc
 155 286 155 0 155 0 c 1
 155 0 49 0 49 0 c 1
 49 0 49 465 49 465 c 1
 49 465 137 465 137 465 c 1xdc
 137 465 148 408 148 408 c 1
 148 408 153 408 153 408 c 1
 175 444 212 476 263 476 c 0
 309 476 345 456 363 408 c 1
 387 444 428 476 484 476 c 0xbc
EndSplineSet
EndChar

StartChar: n
Encoding: 110 110 196
Width: 443
GlyphClass: 2
Flags: MW
HStem: 0 21G<49 155 49 49 288 394 288 288> 379 97<243 246> 445 20G<49 137 137 137>
VStem: 49 106<0 286 0 465> 288 106<0 297 297 326 0 327>
AnchorPoint: "Anchor-1" 222 0 basechar 0
AnchorPoint: "Anchor-0" 222 465 basechar 0
LayerCount: 2
Back
Fore
SplineSet
271 476 m 0xd8
 342 476 394 436 394 326 c 2
 394 326 394 0 394 0 c 1
 394 0 288 0 288 0 c 1
 288 0 288 297 288 297 c 2
 288 357 265 379 227 379 c 0
 186 379 155 339 155 286 c 2xd8
 155 286 155 0 155 0 c 1
 155 0 49 0 49 0 c 1
 49 0 49 465 49 465 c 1
 49 465 137 465 137 465 c 1xb8
 137 465 148 408 148 408 c 1
 148 408 153 408 153 408 c 1
 177 444 215 476 271 476 c 0xd8
EndSplineSet
Substitution2: "'sups' Superscript lookup 10 subtable" nsuperior
Substitution2: "'aalt' Access All Alternates lookup 0 subtable" nsuperior
EndChar

StartChar: nacute
Encoding: 324 324 197
Width: 443
GlyphClass: 2
Flags: MW
HStem: 0 21G<49 155 49 49 288 394 288 288> 379 97<243 246> 445 20G<49 137 137 137> 522 117<237 248 161 343>
VStem: 49 106<0 286 0 465> 288 106<0 297 297 326 0 327>
LayerCount: 2
Back
Fore
SplineSet
248 522 m 1xbc
 248 522 161 522 161 522 c 1
 161 522 237 639 237 639 c 1
 237 639 343 639 343 639 c 1
 343 639 344 636 344 636 c 1
 344 636 248 522 248 522 c 1xbc
271 476 m 0xdc
 342 476 394 436 394 326 c 2
 394 326 394 0 394 0 c 1
 394 0 288 0 288 0 c 1
 288 0 288 297 288 297 c 2
 288 357 265 379 227 379 c 0
 186 379 155 339 155 286 c 2xdc
 155 286 155 0 155 0 c 1
 155 0 49 0 49 0 c 1
 49 0 49 465 49 465 c 1
 49 465 137 465 137 465 c 1xbc
 137 465 148 408 148 408 c 1
 148 408 153 408 153 408 c 1
 177 444 215 476 271 476 c 0xdc
EndSplineSet
EndChar

StartChar: napostrophe
Encoding: 329 329 198
Width: 598
GlyphClass: 2
Flags: MW
HStem: 0 21G<203 309 203 203 443 549 443 443> 379 97<397.5 401> 423 42 498 108<59 103 59 169>
VStem: 59 110<507 606 507 606 507 606> 203 106<0 286 0 465> 443 106<0 297 297 326 0 327>
LayerCount: 2
Back
Fore
SplineSet
129 423 m 1xbe
 129 423 72 423 72 423 c 1
 72 423 103 498 103 498 c 1
 103 498 59 498 59 498 c 1
 59 498 59 606 59 606 c 1
 59 606 169 606 169 606 c 1
 169 606 169 507 169 507 c 1
 169 507 129 423 129 423 c 1xbe
425 476 m 0xde
 497 476 549 436 549 326 c 2
 549 326 549 0 549 0 c 1
 549 0 443 0 443 0 c 1
 443 0 443 297 443 297 c 2
 443 357 420 379 382 379 c 0
 340 379 309 339 309 286 c 2xde
 309 286 309 0 309 0 c 1
 309 0 203 0 203 0 c 1
 203 0 203 465 203 465 c 1
 203 465 292 465 292 465 c 1xbe
 292 465 302 408 302 408 c 1
 302 408 308 408 308 408 c 1
 331 444 370 476 425 476 c 0xde
EndSplineSet
EndChar

StartChar: ncaron
Encoding: 328 328 199
Width: 443
GlyphClass: 2
Flags: MW
HStem: 0 21G<49 155 49 49 288 394 288 288> 379 97<243 246> 445 20G<49 137 137 137> 520 119<179 182 261 265 179 179>
VStem: 49 106<0 286 0 465> 288 106<0 297 297 326 0 327>
LayerCount: 2
Back
Fore
SplineSet
103 639 m 1xbc
 103 639 182 639 182 639 c 1
 182 639 222 578 222 578 c 1
 222 578 261 639 261 639 c 1
 261 639 340 639 340 639 c 1
 340 639 265 520 265 520 c 1
 265 520 179 520 179 520 c 1
 179 520 103 639 103 639 c 1xbc
271 476 m 0xdc
 342 476 394 436 394 326 c 2
 394 326 394 0 394 0 c 1
 394 0 288 0 288 0 c 1
 288 0 288 297 288 297 c 2
 288 357 265 379 227 379 c 0
 186 379 155 339 155 286 c 2xdc
 155 286 155 0 155 0 c 1
 155 0 49 0 49 0 c 1
 49 0 49 465 49 465 c 1
 49 465 137 465 137 465 c 1xbc
 137 465 148 408 148 408 c 1
 148 408 153 408 153 408 c 1
 177 444 215 476 271 476 c 0xdc
EndSplineSet
EndChar

StartChar: ncommaaccent
Encoding: 326 326 200
Width: 443
GlyphClass: 2
Flags: MW
HStem: -157 108<167 210 167 276> 0 21G<49 155 49 49 288 394 288 288> 379 97<243 246> 445 20G<49 137 137 137>
VStem: 49 106<0 286 0 465> 167 109<-148 -49 -148 -49 -148 -49> 288 106<0 297 297 326 0 327>
LayerCount: 2
Back
Fore
SplineSet
271 476 m 0xea
 342 476 394 436 394 326 c 2
 394 326 394 0 394 0 c 1
 394 0 288 0 288 0 c 1
 288 0 288 297 288 297 c 2
 288 357 265 379 227 379 c 0
 186 379 155 339 155 286 c 2xea
 155 286 155 0 155 0 c 1
 155 0 49 0 49 0 c 1
 49 0 49 465 49 465 c 1
 49 465 137 465 137 465 c 1xda
 137 465 148 408 148 408 c 1
 148 408 153 408 153 408 c 1
 177 444 215 476 271 476 c 0xea
179 -232 m 1xde
 179 -232 210 -157 210 -157 c 1
 210 -157 167 -157 167 -157 c 1
 167 -157 167 -49 167 -49 c 1
 167 -49 276 -49 276 -49 c 1
 276 -49 276 -148 276 -148 c 1
 276 -148 236 -232 236 -232 c 1
 236 -232 179 -232 179 -232 c 1xde
EndSplineSet
EndChar

StartChar: eng
Encoding: 331 331 201
Width: 443
GlyphClass: 2
Flags: MW
HStem: -161 89<208 328.5> 0 21G<49 155 49 49> 379 97<243 246> 445 20G<49 137 137 137>
VStem: 49 106<0 286 0 465> 288 106<-29 297 297 326>
LayerCount: 2
Back
Fore
SplineSet
271 476 m 0xec
 342 476 394 436 394 326 c 2
 394 326 394 -36 394 -36 c 2
 394 -98 371 -161 286 -161 c 0
 260 -161 226 -156 208 -150 c 1
 208 -150 208 -72 208 -72 c 1
 208 -72 247 -72 247 -72 c 2
 274 -72 288 -57 288 -29 c 2
 288 -29 288 297 288 297 c 2
 288 357 265 379 227 379 c 0
 186 379 155 339 155 286 c 2xec
 155 286 155 0 155 0 c 1
 155 0 49 0 49 0 c 1
 49 0 49 465 49 465 c 1
 49 465 137 465 137 465 c 1xdc
 137 465 148 408 148 408 c 1
 148 408 153 408 153 408 c 1
 177 444 215 476 271 476 c 0xec
EndSplineSet
EndChar

StartChar: ntilde
Encoding: 241 241 202
Width: 443
GlyphClass: 2
Flags: MW
HStem: 0 21G<49 155 49 49 288 394 288 288> 379 97<243 246> 445 20G<49 137 137 137> 531 75<272 287 268 314.5> 531 108<129 132 73 171 312 314.5> 564 75<157 171 129 176>
VStem: 49 106<0 286 0 465> 288 106<0 297 297 326 0 327>
LayerCount: 2
Back
Fore
SplineSet
370 639 m 1xab
 370 591 346 531 283 531 c 0xab
 261 531 242 540 222 548 c 0
 204 556 186 564 166 564 c 0xa7
 148 564 135 555 132 531 c 1
 132 531 73 531 73 531 c 1
 73 580 98 639 160 639 c 0xab
 182 639 202 630 221 622 c 0
 240 614 258 606 278 606 c 0xb3
 296 606 309 614 312 639 c 1
 312 639 370 639 370 639 c 1xab
271 476 m 0xcb
 342 476 394 436 394 326 c 2
 394 326 394 0 394 0 c 1
 394 0 288 0 288 0 c 1
 288 0 288 297 288 297 c 2
 288 357 265 379 227 379 c 0
 186 379 155 339 155 286 c 2xcb
 155 286 155 0 155 0 c 1
 155 0 49 0 49 0 c 1
 49 0 49 465 49 465 c 1
 49 465 137 465 137 465 c 1xab
 137 465 148 408 148 408 c 1
 148 408 153 408 153 408 c 1
 177 444 215 476 271 476 c 0xcb
EndSplineSet
EndChar

StartChar: o
Encoding: 111 111 203
Width: 443
GlyphClass: 2
Flags: MW
HStem: -11 90<194.5 249.5 194.5 284> 386 90<194.5 249.5>
VStem: 36 111<171 216 216 249 171 316> 297 111<216 249 249 294>
AnchorPoint: "Anchor-1" 0 0 basechar 0
AnchorPoint: "Anchor-0" 222 465 basechar 0
LayerCount: 2
Back
Fore
SplineSet
222 476 m 0
 346 476 408 400 408 232 c 0
 408 65 346 -11 222 -11 c 0
 98 -11 36 65 36 232 c 0
 36 400 98 476 222 476 c 0
222 386 m 0
 167 386 147 339 147 249 c 2
 147 249 147 216 147 216 c 2
 147 126 167 79 222 79 c 0
 277 79 297 126 297 216 c 2
 297 216 297 249 297 249 c 2
 297 339 277 386 222 386 c 0
EndSplineSet
Substitution2: "Single Substitution lookup 33 subtable" ordmasculine
Substitution2: "'aalt' Access All Alternates lookup 0 subtable" ordmasculine
EndChar

StartChar: oacute
Encoding: 243 243 204
Width: 443
GlyphClass: 2
Flags: MW
HStem: -11 90<194.5 249.5 194.5 284> 386 90<194.5 249.5> 522 117<237 248 161 343>
VStem: 36 111<171 216 216 249 171 316> 297 111<216 249 249 294>
LayerCount: 2
Back
Fore
SplineSet
248 522 m 1
 248 522 161 522 161 522 c 1
 161 522 237 639 237 639 c 1
 237 639 343 639 343 639 c 1
 343 639 344 636 344 636 c 1
 344 636 248 522 248 522 c 1
222 476 m 0
 346 476 408 400 408 232 c 0
 408 65 346 -11 222 -11 c 0
 98 -11 36 65 36 232 c 0
 36 400 98 476 222 476 c 0
222 386 m 0
 167 386 147 339 147 249 c 2
 147 249 147 216 147 216 c 2
 147 126 167 79 222 79 c 0
 277 79 297 126 297 216 c 2
 297 216 297 249 297 249 c 2
 297 339 277 386 222 386 c 0
EndSplineSet
EndChar

StartChar: obreve
Encoding: 335 335 205
Width: 443
GlyphClass: 2
Flags: MW
HStem: -11 90<194.5 249.5 194.5 284> 386 90<194.5 249.5> 545 65<206.5 236 206.5 257.5> 545 94<103 257.5>
VStem: 36 111<171 216 216 249 171 316> 297 111<216 249 249 294>
LayerCount: 2
Back
Fore
SplineSet
339 639 m 1xdc
 339 595 294 545 221 545 c 0
 149 545 103 595 103 639 c 1
 103 639 169 639 169 639 c 1xdc
 171 627 192 610 221 610 c 0xec
 251 610 272 627 274 639 c 1
 274 639 339 639 339 639 c 1xdc
222 476 m 0
 346 476 408 400 408 232 c 0
 408 65 346 -11 222 -11 c 0
 98 -11 36 65 36 232 c 0
 36 400 98 476 222 476 c 0
222 386 m 0
 167 386 147 339 147 249 c 2
 147 249 147 216 147 216 c 2
 147 126 167 79 222 79 c 0
 277 79 297 126 297 216 c 2
 297 216 297 249 297 249 c 2
 297 339 277 386 222 386 c 0
EndSplineSet
EndChar

StartChar: ocircumflex
Encoding: 244 244 206
Width: 443
GlyphClass: 2
Flags: MW
HStem: -11 90<194.5 249.5 194.5 284> 386 90<194.5 249.5> 520 119<179 182 103 265 261 261 261 265 179 340> 581 58<222 222>
VStem: 36 111<171 216 216 249 171 316> 297 111<216 249 249 294>
LayerCount: 2
Back
Fore
SplineSet
222 581 m 1xdc
 222 581 182 520 182 520 c 1
 182 520 103 520 103 520 c 1
 103 520 179 639 179 639 c 1
 179 639 265 639 265 639 c 1
 265 639 340 520 340 520 c 1
 340 520 261 520 261 520 c 1xec
 261 520 222 581 222 581 c 1xdc
222 476 m 0
 346 476 408 400 408 232 c 0
 408 65 346 -11 222 -11 c 0
 98 -11 36 65 36 232 c 0
 36 400 98 476 222 476 c 0
222 386 m 0
 167 386 147 339 147 249 c 2
 147 249 147 216 147 216 c 2
 147 126 167 79 222 79 c 0
 277 79 297 126 297 216 c 2
 297 216 297 249 297 249 c 2
 297 339 277 386 222 386 c 0
EndSplineSet
EndChar

StartChar: odieresis
Encoding: 246 246 207
Width: 443
GlyphClass: 2
Flags: MW
HStem: -11 90<194.5 249.5 194.5 284> 386 90<194.5 249.5> 543 96<100 188 100 188 255 343 100 255>
VStem: 36 111<171 216 216 249 171 316> 100 88<543 639 543 639> 255 88<543 639 543 639> 297 111<216 249 249 294>
LayerCount: 2
Back
Fore
SplineSet
100 543 m 1xec
 100 543 100 639 100 639 c 1
 100 639 188 639 188 639 c 1
 188 639 188 543 188 543 c 1
 188 543 100 543 100 543 c 1xec
255 543 m 1
 255 543 255 639 255 639 c 1
 255 639 343 639 343 639 c 1
 343 639 343 543 343 543 c 1
 343 543 255 543 255 543 c 1
222 476 m 0xf2
 346 476 408 400 408 232 c 0
 408 65 346 -11 222 -11 c 0
 98 -11 36 65 36 232 c 0
 36 400 98 476 222 476 c 0xf2
222 386 m 0
 167 386 147 339 147 249 c 2
 147 249 147 216 147 216 c 2
 147 126 167 79 222 79 c 0
 277 79 297 126 297 216 c 2
 297 216 297 249 297 249 c 2
 297 339 277 386 222 386 c 0
EndSplineSet
EndChar

StartChar: ograve
Encoding: 242 242 208
Width: 443
GlyphClass: 2
Flags: MW
HStem: -11 90<194.5 249.5 194.5 284> 386 90<194.5 249.5> 522 117<194 194 194 206 100 282>
VStem: 36 111<171 216 216 249 171 316> 297 111<216 249 249 294>
LayerCount: 2
Back
Fore
SplineSet
194 522 m 1
 194 522 99 636 99 636 c 1
 99 636 100 639 100 639 c 1
 100 639 206 639 206 639 c 1
 206 639 282 522 282 522 c 1
 282 522 194 522 194 522 c 1
222 476 m 0
 346 476 408 400 408 232 c 0
 408 65 346 -11 222 -11 c 0
 98 -11 36 65 36 232 c 0
 36 400 98 476 222 476 c 0
222 386 m 0
 167 386 147 339 147 249 c 2
 147 249 147 216 147 216 c 2
 147 126 167 79 222 79 c 0
 277 79 297 126 297 216 c 2
 297 216 297 249 297 249 c 2
 297 339 277 386 222 386 c 0
EndSplineSet
EndChar

StartChar: ohungarumlaut
Encoding: 337 337 209
Width: 443
GlyphClass: 2
Flags: MW
HStem: -11 90<194.5 249.5 194.5 284> 386 90<194.5 249.5> 522 117<122 265 177 192 246 265 301 316 246 246>
VStem: 36 111<171 216 216 249 171 316> 297 111<216 249 249 294>
LayerCount: 2
Back
Fore
SplineSet
122 522 m 1
 122 522 177 639 177 639 c 1
 177 639 265 639 265 639 c 1
 265 639 266 636 266 636 c 1
 266 636 192 522 192 522 c 1
 192 522 122 522 122 522 c 1
246 522 m 1
 246 522 301 639 301 639 c 1
 301 639 389 639 389 639 c 1
 389 639 390 636 390 636 c 1
 390 636 316 522 316 522 c 1
 316 522 246 522 246 522 c 1
222 476 m 0
 346 476 408 400 408 232 c 0
 408 65 346 -11 222 -11 c 0
 98 -11 36 65 36 232 c 0
 36 400 98 476 222 476 c 0
222 386 m 0
 167 386 147 339 147 249 c 2
 147 249 147 216 147 216 c 2
 147 126 167 79 222 79 c 0
 277 79 297 126 297 216 c 2
 297 216 297 249 297 249 c 2
 297 339 277 386 222 386 c 0
EndSplineSet
EndChar

StartChar: omacron
Encoding: 333 333 210
Width: 443
GlyphClass: 2
Flags: MW
HStem: -11 90<194.5 249.5 194.5 284> 386 90<194.5 249.5> 530 76<109 334 109 334>
VStem: 36 111<171 216 216 249 171 316> 109 225<530 606 530 606> 297 111<216 249 249 294>
LayerCount: 2
Back
Fore
SplineSet
109 606 m 1xe8
 109 606 334 606 334 606 c 1
 334 606 334 530 334 530 c 1
 334 530 109 530 109 530 c 1
 109 530 109 606 109 606 c 1xe8
222 476 m 0xf4
 346 476 408 400 408 232 c 0
 408 65 346 -11 222 -11 c 0
 98 -11 36 65 36 232 c 0
 36 400 98 476 222 476 c 0xf4
222 386 m 0
 167 386 147 339 147 249 c 2
 147 249 147 216 147 216 c 2
 147 126 167 79 222 79 c 0
 277 79 297 126 297 216 c 2
 297 216 297 249 297 249 c 2
 297 339 277 386 222 386 c 0
EndSplineSet
EndChar

StartChar: oslash
Encoding: 248 248 211
Width: 443
GlyphClass: 2
Flags: MW
HStem: -11 90<213 249.5 213 284> 386 90<194.5 230.5>
VStem: 36 111<205.5 216 216 249 205.5 316> 297 111<216 249 249 259.5>
AnchorPoint: "Anchor-1" 0 0 basechar 0
AnchorPoint: "Anchor-0" 222 465 basechar 0
LayerCount: 2
Back
Fore
SplineSet
357 422 m 1
 391 382 408 319 408 232 c 0
 408 65 346 -11 222 -11 c 0
 187 -11 157 -4 132 8 c 1
 132 8 112 -28 112 -28 c 1
 112 -28 46 -28 46 -28 c 1
 46 -28 86 44 86 44 c 1
 53 84 36 146 36 232 c 0
 36 400 98 476 222 476 c 0
 256 476 286 469 310 457 c 1
 310 457 330 493 330 493 c 1
 330 493 396 493 396 493 c 1
 396 493 357 422 357 422 c 1
222 386 m 0
 167 386 147 339 147 249 c 2
 147 249 147 216 147 216 c 2
 147 195 148 178 149 162 c 1
 149 162 263 372 263 372 c 1
 253 381 239 386 222 386 c 0
179 94 m 1
 190 84 204 79 222 79 c 0
 277 79 297 126 297 216 c 2
 297 216 297 249 297 249 c 2
 297 270 295 288 293 305 c 1
 293 305 179 94 179 94 c 1
EndSplineSet
EndChar

StartChar: oslashacute
Encoding: 511 511 212
Width: 443
GlyphClass: 2
Flags: MW
HStem: -11 90<213 249.5 213 284> 386 90<194.5 230.5> 522 117<237 248 161 343>
VStem: 36 111<205.5 216 216 249 205.5 316> 297 111<216 249 249 259.5>
LayerCount: 2
Back
Fore
SplineSet
248 522 m 1
 248 522 161 522 161 522 c 1
 161 522 237 639 237 639 c 1
 237 639 343 639 343 639 c 1
 343 639 344 636 344 636 c 1
 344 636 248 522 248 522 c 1
357 422 m 1
 391 382 408 319 408 232 c 0
 408 65 346 -11 222 -11 c 0
 187 -11 157 -4 132 8 c 1
 132 8 112 -28 112 -28 c 1
 112 -28 46 -28 46 -28 c 1
 46 -28 86 44 86 44 c 1
 53 84 36 146 36 232 c 0
 36 400 98 476 222 476 c 0
 256 476 286 469 310 457 c 1
 310 457 330 493 330 493 c 1
 330 493 396 493 396 493 c 1
 396 493 357 422 357 422 c 1
222 386 m 0
 167 386 147 339 147 249 c 2
 147 249 147 216 147 216 c 2
 147 195 148 178 149 162 c 1
 149 162 263 372 263 372 c 1
 253 381 239 386 222 386 c 0
179 94 m 1
 190 84 204 79 222 79 c 0
 277 79 297 126 297 216 c 2
 297 216 297 249 297 249 c 2
 297 270 295 288 293 305 c 1
 293 305 179 94 179 94 c 1
EndSplineSet
EndChar

StartChar: otilde
Encoding: 245 245 213
Width: 443
GlyphClass: 2
Flags: MW
HStem: -11 90<194.5 249.5 194.5 284> 386 90<194.5 249.5> 531 75<272 287 268 314.5> 531 108<129 132 73 171 312 314.5> 564 75<157 171 129 176>
VStem: 36 111<171 216 216 249 171 316> 297 111<216 249 249 294>
LayerCount: 2
Back
Fore
SplineSet
370 639 m 1xd6
 370 591 346 531 283 531 c 0xd6
 261 531 242 540 222 548 c 0
 204 556 186 564 166 564 c 0xce
 148 564 135 555 132 531 c 1
 132 531 73 531 73 531 c 1
 73 580 98 639 160 639 c 0xd6
 182 639 202 630 221 622 c 0
 240 614 258 606 278 606 c 0xe6
 296 606 309 614 312 639 c 1
 312 639 370 639 370 639 c 1xd6
222 476 m 0
 346 476 408 400 408 232 c 0
 408 65 346 -11 222 -11 c 0
 98 -11 36 65 36 232 c 0
 36 400 98 476 222 476 c 0
222 386 m 0
 167 386 147 339 147 249 c 2
 147 249 147 216 147 216 c 2
 147 126 167 79 222 79 c 0
 277 79 297 126 297 216 c 2
 297 216 297 249 297 249 c 2
 297 339 277 386 222 386 c 0
EndSplineSet
EndChar

StartChar: oe
Encoding: 339 339 214
Width: 684
GlyphClass: 2
Flags: MW
HStem: -11 87<454 498 454 527.5> -11 90<194.5 249.5 194.5 250> 206 77<409 533 409 644 408 533> 386 90<194.5 249.5> 389 87<453.5 495.5>
VStem: 36 111<171 216 216 249 171 316> 297 111<206 249 206 294> 533 111
AnchorPoint: "Anchor-1" 0 0 basechar 0
AnchorPoint: "Anchor-0" 342 465 basechar 0
LayerCount: 2
Back
Fore
SplineSet
476 476 m 0x77
 589 476 644 400 644 232 c 2
 644 232 644 206 644 206 c 1
 644 206 408 206 408 206 c 1
 409 123 428 76 480 76 c 0
 516 76 539 109 539 164 c 1xb7
 539 164 644 164 644 164 c 1
 644 45 575 -11 480 -11 c 0
 425 -11 383 8 353 47 c 1
 322 8 278 -11 222 -11 c 0
 98 -11 36 65 36 232 c 0
 36 400 98 476 222 476 c 0
 278 476 322 457 352 417 c 1
 382 457 423 476 476 476 c 0x77
476 389 m 0x6f
 431 389 413 350 409 283 c 1
 409 283 533 283 533 283 c 1
 533 350 515 389 476 389 c 0x6f
222 386 m 0x77
 167 386 147 339 147 249 c 2
 147 249 147 216 147 216 c 2
 147 126 167 79 222 79 c 0
 277 79 297 126 297 216 c 2
 297 216 297 249 297 249 c 2
 297 339 277 386 222 386 c 0x77
EndSplineSet
EndChar

StartChar: p
Encoding: 112 112 215
Width: 443
GlyphClass: 2
Flags: MW
HStem: -153 21G<49 155 49 49> -11 97<239.5 251 199.5 304> 48 38 379 86<49 251> 379 97<235 251>
VStem: 49 106<-153 48 175 217 217 249> 296 111<216 249 249 291>
LayerCount: 2
Back
Fore
SplineSet
257 476 m 0xce
 349 476 407 400 407 232 c 0
 407 63 345 -11 263 -11 c 0xce
 216 -11 176 11 159 48 c 1
 159 48 155 48 155 48 c 1
 155 48 155 -153 155 -153 c 1
 155 -153 49 -153 49 -153 c 1
 49 -153 49 465 49 465 c 1
 49 465 137 465 137 465 c 1xb6
 137 465 148 408 148 408 c 1
 148 408 152 408 152 408 c 1
 175 453 213 476 257 476 c 0xce
225 379 m 0
 174 379 155 333 155 249 c 2
 155 249 155 217 155 217 c 2
 155 133 174 86 225 86 c 0
 277 86 296 132 296 216 c 2
 296 216 296 249 296 249 c 2
 296 333 277 379 225 379 c 0
EndSplineSet
EndChar

StartChar: thorn
Encoding: 254 254 216
Width: 443
GlyphClass: 2
Flags: MW
HStem: -153 21G<49 155 49 49> -11 97<239.5 251 199.5 304> 48 38 379 97<236 251> 619 20G<49 155 155 155>
VStem: 49 106<-153 48 175 217 217 249 413 639> 296 111<216 249 249 291>
LayerCount: 2
Back
Fore
SplineSet
257 476 m 0xde
 349 476 407 400 407 232 c 0
 407 63 345 -11 263 -11 c 0xde
 216 -11 176 11 159 48 c 1
 159 48 155 48 155 48 c 1xbe
 155 48 155 -153 155 -153 c 1
 155 -153 49 -153 49 -153 c 1
 49 -153 49 639 49 639 c 1
 49 639 155 639 155 639 c 1
 155 639 155 413 155 413 c 1
 178 455 215 476 257 476 c 0xde
296 249 m 2
 296 333 277 379 225 379 c 0
 174 379 155 333 155 249 c 2
 155 249 155 217 155 217 c 2
 155 133 174 86 225 86 c 0
 277 86 296 132 296 216 c 2
 296 216 296 249 296 249 c 2
EndSplineSet
EndChar

StartChar: q
Encoding: 113 113 217
Width: 443
GlyphClass: 2
Flags: MW
HStem: -153 21G<288 394 288 288> -11 97<191.5 203.5> 379 29 379 86<191.5 394> 379 97<191.5 208 140 243>
VStem: 36 111<174 216 216 249 174 316> 288 106<-153 48 48 48 217 249 249 291>
LayerCount: 2
Back
Fore
SplineSet
186 476 m 0xce
 230 476 268 453 291 408 c 1
 291 408 295 408 295 408 c 1xe6
 295 408 306 465 306 465 c 1
 306 465 394 465 394 465 c 1xd6
 394 465 394 -153 394 -153 c 1
 394 -153 288 -153 288 -153 c 1
 288 -153 288 48 288 48 c 1
 288 48 284 48 284 48 c 1
 267 11 227 -11 180 -11 c 0
 98 -11 36 63 36 232 c 0
 36 400 94 476 186 476 c 0xce
217 379 m 0
 166 379 147 333 147 249 c 2
 147 249 147 216 147 216 c 2
 147 132 166 86 217 86 c 0
 269 86 288 133 288 217 c 2
 288 217 288 249 288 249 c 2
 288 333 269 379 217 379 c 0
EndSplineSet
EndChar

StartChar: r
Encoding: 114 114 218
Width: 282
GlyphClass: 2
Flags: MW
HStem: 0 21G<49 155 49 49> 366 99<49 241> 366 110<218 241 241 249 211.5 279> 449 20G<279 279>
VStem: 49 106<0 259>
AnchorPoint: "Anchor-1" 141 0 basechar 0
AnchorPoint: "Anchor-0" 141 465 basechar 0
LayerCount: 2
Back
Fore
SplineSet
235 476 m 0xa8
 263 476 279 469 279 469 c 1x98
 279 469 279 366 279 366 c 1
 279 366 241 366 241 366 c 2xa8
 195 366 155 341 155 259 c 2
 155 259 155 0 155 0 c 1
 155 0 49 0 49 0 c 1
 49 0 49 465 49 465 c 1
 49 465 137 465 137 465 c 1xc8
 137 465 149 397 149 397 c 1
 149 397 155 397 155 397 c 1
 167 436 188 476 235 476 c 0xa8
EndSplineSet
EndChar

StartChar: racute
Encoding: 341 341 219
Width: 282
GlyphClass: 2
Flags: MW
HStem: 0 21G<49 155 49 49> 366 99<49 241> 366 110<218 241 241 249 211.5 279> 449 20G<279 279> 522 117<113 126 37 220>
VStem: 49 106<0 259>
LayerCount: 2
Back
Fore
SplineSet
126 522 m 1x9c
 126 522 37 522 37 522 c 1
 37 522 113 639 113 639 c 1
 113 639 220 639 220 639 c 1
 220 639 221 636 221 636 c 1
 221 636 126 522 126 522 c 1x9c
235 476 m 0xac
 263 476 279 469 279 469 c 1x9c
 279 469 279 366 279 366 c 1
 279 366 241 366 241 366 c 2xac
 195 366 155 341 155 259 c 2
 155 259 155 0 155 0 c 1
 155 0 49 0 49 0 c 1
 49 0 49 465 49 465 c 1
 49 465 137 465 137 465 c 1xcc
 137 465 149 397 149 397 c 1
 149 397 155 397 155 397 c 1
 167 436 188 476 235 476 c 0xac
EndSplineSet
EndChar

StartChar: rcaron
Encoding: 345 345 220
Width: 282
GlyphClass: 2
Flags: MW
HStem: 0 21G<49 155 49 49> 366 99<49 241> 366 110<218 241 241 249 211.5 279> 449 20G<279 279> 520 119<56 59 138 142 56 56>
VStem: 49 106<0 259>
LayerCount: 2
Back
Fore
SplineSet
-20 639 m 1x9c
 -20 639 59 639 59 639 c 1
 59 639 99 578 99 578 c 1
 99 578 138 639 138 639 c 1
 138 639 217 639 217 639 c 1
 217 639 142 520 142 520 c 1
 142 520 56 520 56 520 c 1
 56 520 -20 639 -20 639 c 1x9c
235 476 m 0xac
 263 476 279 469 279 469 c 1x9c
 279 469 279 366 279 366 c 1
 279 366 241 366 241 366 c 2xac
 195 366 155 341 155 259 c 2
 155 259 155 0 155 0 c 1
 155 0 49 0 49 0 c 1
 49 0 49 465 49 465 c 1
 49 465 137 465 137 465 c 1xcc
 137 465 149 397 149 397 c 1
 149 397 155 397 155 397 c 1
 167 436 188 476 235 476 c 0xac
EndSplineSet
EndChar

StartChar: rcommaaccent
Encoding: 343 343 221
Width: 282
GlyphClass: 2
Flags: MW
HStem: -157 108<52 95 52 162> 0 21G<49 155 49 49> 366 99<49 241> 366 110<218 241 241 249 211.5 279> 449 20G<279 279>
VStem: 49 106<0 259> 52 110<-148 -49 -148 -49 -148 -49>
LayerCount: 2
Back
Fore
SplineSet
235 476 m 0xd4
 263 476 279 469 279 469 c 1xcc
 279 469 279 366 279 366 c 1
 279 366 241 366 241 366 c 2xd4
 195 366 155 341 155 259 c 2
 155 259 155 0 155 0 c 1
 155 0 49 0 49 0 c 1
 49 0 49 465 49 465 c 1
 49 465 137 465 137 465 c 1xe4
 137 465 149 397 149 397 c 1
 149 397 155 397 155 397 c 1
 167 436 188 476 235 476 c 0xd4
64 -232 m 1xcc
 64 -232 95 -157 95 -157 c 1xcc
 95 -157 52 -157 52 -157 c 1
 52 -157 52 -49 52 -49 c 1xca
 52 -49 162 -49 162 -49 c 1
 162 -49 162 -148 162 -148 c 1
 162 -148 121 -232 121 -232 c 1
 121 -232 64 -232 64 -232 c 1xcc
EndSplineSet
EndChar

StartChar: s
Encoding: 115 115 222
Width: 403
GlyphClass: 2
Flags: MW
HStem: -11 87<186.5 216 186.5 247.5> -11 159<30 247.5> 329 147<156 359 156 251> 389 87<182.5 215>
VStem: 29 109<93 148> 36 108<324.5 357 324.5 381.5> 263 108<107 147>
AnchorPoint: "Anchor-1" 202 0 basechar 0
AnchorPoint: "Anchor-0" 202 465 basechar 0
LayerCount: 2
Back
Fore
SplineSet
202 476 m 0x96
 291 476 360 429 360 349 c 0
 360 341 359 334 359 331 c 0
 359 330 359 329 359 329 c 1xa6
 359 329 251 329 251 329 c 1
 251 329 251 331 251 331 c 2
 250 370 231 389 199 389 c 0
 166 389 144 371 144 343 c 0x96
 144 306 182 296 228 285 c 0
 292 268 371 248 371 140 c 0
 371 27 297 -11 198 -11 c 0x9a
 91 -11 29 49 29 137 c 0
 29 141 30 148 30 148 c 1x5a
 30 148 138 148 138 148 c 1
 138 148 138 141 138 141 c 2x9a
 139 92 171 76 202 76 c 0
 230 76 263 88 263 126 c 0
 263 168 222 180 174 193 c 0
 111 211 36 231 36 334 c 0
 36 429 110 476 202 476 c 0x96
EndSplineSet
EndChar

